<mxfile host="app.diagrams.net" modified="2023-11-02T20:36:00.209Z" agent="Mozilla/5.0 (Windows NT 10.0; Win64; x64) AppleWebKit/537.36 (KHTML, like Gecko) Chrome/119.0.0.0 Safari/537.36" etag="7siXeXHpJdQxL9CzyhMi" version="22.0.8" type="google">
  <diagram name="Page-1" id="7N0LwCiL8MIET50ZhMuv">
    <mxGraphModel grid="0" page="1" gridSize="10" guides="1" tooltips="1" connect="1" arrows="1" fold="1" pageScale="1" pageWidth="1169" pageHeight="826" background="#000000" math="0" shadow="0">
      <root>
        <mxCell id="0" />
        <mxCell id="1" parent="0" />
        <mxCell id="BwXOe6zrHSaQDzwSpbx--2" value="" style="rounded=0;whiteSpace=wrap;html=1;fillColor=#F25322;" vertex="1" parent="1">
          <mxGeometry x="144" y="139" width="974" height="661" as="geometry" />
        </mxCell>
        <mxCell id="BwXOe6zrHSaQDzwSpbx--5" value="" style="rounded=0;whiteSpace=wrap;html=1;fillColor=#000000;" vertex="1" parent="1">
          <mxGeometry x="161" y="221" width="945" height="569" as="geometry" />
        </mxCell>
        <mxCell id="BwXOe6zrHSaQDzwSpbx--6" value="" style="image;aspect=fixed;html=1;points=[];align=center;fontSize=12;image=img/lib/azure2/general/Resource_Groups.svg;" vertex="1" parent="1">
          <mxGeometry x="189.48000000000002" y="38" width="90" height="84.71" as="geometry" />
        </mxCell>
        <mxCell id="BwXOe6zrHSaQDzwSpbx--47" style="edgeStyle=orthogonalEdgeStyle;rounded=0;orthogonalLoop=1;jettySize=auto;html=1;strokeColor=#FFFFFF;" edge="1" parent="1" source="BwXOe6zrHSaQDzwSpbx--79" target="BwXOe6zrHSaQDzwSpbx--20">
          <mxGeometry relative="1" as="geometry" />
        </mxCell>
        <mxCell id="BwXOe6zrHSaQDzwSpbx--72" style="edgeStyle=orthogonalEdgeStyle;rounded=0;orthogonalLoop=1;jettySize=auto;html=1;strokeColor=#FFFFFF;" edge="1" parent="1" source="BwXOe6zrHSaQDzwSpbx--99" target="BwXOe6zrHSaQDzwSpbx--16">
          <mxGeometry relative="1" as="geometry" />
        </mxCell>
        <mxCell id="BwXOe6zrHSaQDzwSpbx--8" value="" style="image;aspect=fixed;html=1;points=[];align=center;fontSize=12;image=img/lib/azure2/networking/Network_Security_Groups.svg;" vertex="1" parent="1">
          <mxGeometry x="180" y="240" width="70" height="85" as="geometry" />
        </mxCell>
        <mxCell id="BwXOe6zrHSaQDzwSpbx--9" value="&lt;font color=&quot;#ffffff&quot;&gt;SupremeNSG&lt;/font&gt;" style="text;strokeColor=none;align=center;fillColor=none;html=1;verticalAlign=middle;whiteSpace=wrap;rounded=0;" vertex="1" parent="1">
          <mxGeometry x="175.00000000000003" y="325" width="80" height="30" as="geometry" />
        </mxCell>
        <mxCell id="BwXOe6zrHSaQDzwSpbx--71" style="edgeStyle=orthogonalEdgeStyle;rounded=0;orthogonalLoop=1;jettySize=auto;html=1;strokeColor=#FFFFFF;" edge="1" parent="1" source="BwXOe6zrHSaQDzwSpbx--10" target="BwXOe6zrHSaQDzwSpbx--8">
          <mxGeometry relative="1" as="geometry" />
        </mxCell>
        <mxCell id="BwXOe6zrHSaQDzwSpbx--10" value="" style="shape=image;verticalLabelPosition=bottom;labelBackgroundColor=#ffffff;verticalAlign=top;aspect=fixed;imageAspect=0;image=data:image/svg+xml,PHN2ZyB4bWxuczpjYz0iaHR0cDovL2NyZWF0aXZlY29tbW9ucy5vcmcvbnMjIiB4bWxuczpkYz0iaHR0cDovL3B1cmwub3JnL2RjL2VsZW1lbnRzLzEuMS8iIHhtbG5zOmlua3NjYXBlPSJodHRwOi8vd3d3Lmlua3NjYXBlLm9yZy9uYW1lc3BhY2VzL2lua3NjYXBlIiB4bWxuczpyZGY9Imh0dHA6Ly93d3cudzMub3JnLzE5OTkvMDIvMjItcmRmLXN5bnRheC1ucyMiIHhtbG5zOnNvZGlwb2RpPSJodHRwOi8vc29kaXBvZGkuc291cmNlZm9yZ2UubmV0L0RURC9zb2RpcG9kaS0wLmR0ZCIgeG1sbnM6c3ZnPSJodHRwOi8vd3d3LnczLm9yZy8yMDAwL3N2ZyIgeG1sbnM9Imh0dHA6Ly93d3cudzMub3JnLzIwMDAvc3ZnIiB4bWxuczp4bGluaz0iaHR0cDovL3d3dy53My5vcmcvMTk5OS94bGluayIgdmVyc2lvbj0iMS4xIiBpZD0ic3ZnNjAzNjAiIGlua3NjYXBlOnZlcnNpb249IjAuOTIuMyAoMjQwNTU0NiwgMjAxOC0wMy0xMSkiIHNvZGlwb2RpOmRvY25hbWU9ImF6dXJlX3BvcnRhbF9jbG91ZF9zZXJ2aWNlX2NsYXNzaWMuc3ZnIiB4PSIwcHgiIHk9IjBweCIgdmlld0JveD0iMCAwIDM2LjM0IDI5LjE4IiBzdHlsZT0iZW5hYmxlLWJhY2tncm91bmQ6bmV3IDAgMCAzNi4zNCAyOS4xODsiIHhtbDpzcGFjZT0icHJlc2VydmUiPiYjeGE7PHNvZGlwb2RpOm5hbWVkdmlldyBib3JkZXJjb2xvcj0iIzY2NjY2NiIgYm9yZGVyb3BhY2l0eT0iMSIgZml0LW1hcmdpbi1ib3R0b209IjAiIGZpdC1tYXJnaW4tbGVmdD0iMCIgZml0LW1hcmdpbi1yaWdodD0iMCIgZml0LW1hcmdpbi10b3A9IjAiIGdyaWR0b2xlcmFuY2U9IjEwIiBndWlkZXRvbGVyYW5jZT0iMTAiIGlkPSJuYW1lZHZpZXc2MDM2MiIgaW5rc2NhcGU6Y3VycmVudC1sYXllcj0ic3ZnNjAzNjAiIGlua3NjYXBlOmN4PSIzNC45MzUzMzQiIGlua3NjYXBlOmN5PSIxOC45MjAxNDMiIGlua3NjYXBlOnBhZ2VvcGFjaXR5PSIwIiBpbmtzY2FwZTpwYWdlc2hhZG93PSIyIiBpbmtzY2FwZTp3aW5kb3ctaGVpZ2h0PSIxMDE3IiBpbmtzY2FwZTp3aW5kb3ctbWF4aW1pemVkPSIxIiBpbmtzY2FwZTp3aW5kb3ctd2lkdGg9IjE5MjAiIGlua3NjYXBlOndpbmRvdy14PSItOCIgaW5rc2NhcGU6d2luZG93LXk9Ii04IiBpbmtzY2FwZTp6b29tPSIxMy45MTA3OTkiIG9iamVjdHRvbGVyYW5jZT0iMTAiIHBhZ2Vjb2xvcj0iI2ZmZmZmZiIgc2hvd2dyaWQ9ImZhbHNlIj4mI3hhOwk8L3NvZGlwb2RpOm5hbWVkdmlldz4mI3hhOzxnIGlkPSJnNjAzNTgiIHRyYW5zZm9ybT0idHJhbnNsYXRlKC0xOS4wMzU1MDksLTAuNzQ5OTk4MTQpIj4mI3hhOwk8dGl0bGUgaWQ9InRpdGxlNjAzMTQiPlBhZ2UtMTwvdGl0bGU+JiN4YTsJPGcgaWQ9Imdyb3VwNDMyMy0xIiB0cmFuc2Zvcm09InRyYW5zbGF0ZSgxOS4wMzU0LC0zNi4xNzU2KSI+JiN4YTsJCTx0aXRsZSBpZD0idGl0bGU2MDMxNiI+QXp1cmUgUG9ydGFsIC0gQ2xvdWQgc2VydmljZSAoY2xhc3NpYyk8L3RpdGxlPiYjeGE7CQk8ZyBpZD0ic2hhcGU0MzI0LTIiPiYjeGE7CQkJPHRpdGxlIGlkPSJ0aXRsZTYwMzE4Ij5TaGVldC40MzI0PC90aXRsZT4mI3hhOwkJCTxyZWN0IGlkPSJyZWN0NjAzMjAiIHg9IjAiIHk9IjM2LjkzIiBzdHlsZT0iZGlzcGxheTpub25lO2ZpbGw6IzU5NTk1OTsiIHdpZHRoPSIzNi4zNCIgaGVpZ2h0PSIyOS4xOCIvPiYjeGE7CQkJPHJlY3QgaWQ9InJlY3Q2MDMyMiIgeD0iMCIgeT0iMzYuOTMiIHN0eWxlPSJmaWxsOm5vbmU7IiB3aWR0aD0iMzYuMzQiIGhlaWdodD0iMjkuMTgiLz4mI3hhOwkJPC9nPiYjeGE7CQk8ZyBpZD0iZ3JvdXA0MzI1LTUiIHRyYW5zZm9ybT0idHJhbnNsYXRlKDQuMjcyNTYsLTMuNjE4OTMpIj4mI3hhOwkJCTx0aXRsZSBpZD0idGl0bGU2MDMyNSI+U2hlZXQuNDMyNTwvdGl0bGU+JiN4YTsJCQk8ZyBpZD0ic2hhcGU0MzI2LTYiIHRyYW5zZm9ybT0idHJhbnNsYXRlKDAsMS4xNjY2MykiPiYjeGE7CQkJCTx0aXRsZSBpZD0idGl0bGU2MDMyNyI+U2hlZXQuNDMyNjwvdGl0bGU+JiN4YTsJCQkJJiN4YTsJCQkJCTxwYXRoIGlkPSJwYXRoNjAzMjkiIGlua3NjYXBlOmNvbm5lY3Rvci1jdXJ2YXR1cmU9IjAiIHN0eWxlPSJmaWxsOiNGRkZGRkY7c3Ryb2tlOiNGRkZGRkY7c3Ryb2tlLXdpZHRoOjEuNTtzdHJva2UtbWl0ZXJsaW1pdDozOyIgZD0iICAgICAgTTI1LjQzLDUwLjU1bC0wLjU0LTAuMTdsMC4xNC0wLjU1YzAuMTQtMC41NSwwLjIyLTEuMSwwLjIyLTEuNjdjMC0zLjYxLTIuOTUtNi41NS02LjU3LTYuNTVjLTIuNjYsMC01LjA0LDEuNTctNi4wNiw0LjAyICAgICAgbC0wLjM5LDAuOWwtMC42MS0wLjc0Yy0wLjg3LTEuMDItMi4xLTEuNTgtMy40Mi0xLjU4Yy0yLjQ2LDAtNC40NywyLTQuNDcsNC40N2MwLDAuNDEsMC4wNiwwLjgyLDAuMTYsMS4yM2wwLjE2LDAuNTMgICAgICBsLTAuNTIsMC4xOUMxLjMyLDUxLjQ0LDAsNTMuMjMsMCw1NS40M2MwLDIuODgsMi4zNyw1LjEzLDUuMzgsNS4xM2gxLjM0Yy0wLjA0LDAtMC4wNywwLjUtMC4wNywwLjc0YzAsMi42NSwyLjE3LDQuODEsNC44LDQuODEgICAgICBjMS45MywwLDMuNjctMS4xNSw0LjQyLTIuOTNsMC4yOC0wLjY2bDAuNDYsMC41NGMwLjYzLDAuNzQsMS41NCwxLjE2LDIuNDgsMS4xNmMxLjgxLDAsMy4yOC0xLjQ5LDMuMjgtMy4yOSAgICAgIGMwLTAuMTMtMC4wMS0wLjM3LTAuMDMtMC4zN2gxLjQ3YzMuMDIsMCw1LjM3LTIuMjUsNS4zNy01LjEzQzI5LjE4LDUzLjE0LDI3Ljc1LDUxLjI4LDI1LjQzLDUwLjU1eiIvPiYjeGE7CQkJPC9nPiYjeGE7CQk8L2c+JiN4YTsJCTxnIGlkPSJncm91cDQzMjctOCIgdHJhbnNmb3JtPSJ0cmFuc2xhdGUoMjIuMzIxMywtMTYuMDUxOCkiPiYjeGE7CQkJPHRpdGxlIGlkPSJ0aXRsZTYwMzMzIj5TaGVldC40MzI3PC90aXRsZT4mI3hhOwkJCTxnIGlkPSJzaGFwZTQzMjgtOSI+JiN4YTsJCQkJPHRpdGxlIGlkPSJ0aXRsZTYwMzM1Ij5TaGVldC40MzI4PC90aXRsZT4mI3hhOwkJCQkmI3hhOwkJCQkJPGNpcmNsZSBpZD0iZWxsaXBzZTYwMzM3IiBzdHlsZT0iZmlsbDojQjhENDMyO3N0cm9rZTojNTlCNEQ5O3N0cm9rZS13aWR0aDowLjc1O3N0cm9rZS1taXRlcmxpbWl0OjM7IiBjeD0iMS42NSIgY3k9IjY0LjQ1IiByPSIxLjY1Ii8+JiN4YTsJCQk8L2c+JiN4YTsJCTwvZz4mI3hhOwkJPGcgaWQ9Imdyb3VwNDMyOS0xMSIgdHJhbnNmb3JtPSJ0cmFuc2xhdGUoMTMuNzA2MiwtMTAuNDQ3MSkiPiYjeGE7CQkJPHRpdGxlIGlkPSJ0aXRsZTYwMzQxIj5TaGVldC40MzI5PC90aXRsZT4mI3hhOwkJCTxnIGlkPSJzaGFwZTQzMzAtMTIiPiYjeGE7CQkJCTx0aXRsZSBpZD0idGl0bGU2MDM0MyI+U2hlZXQuNDMzMDwvdGl0bGU+JiN4YTsJCQkJJiN4YTsJCQkJCTxwYXRoIGlkPSJwYXRoNjAzNDUiIGlua3NjYXBlOmNvbm5lY3Rvci1jdXJ2YXR1cmU9IjAiIHN0eWxlPSJmaWxsOiNCOEQ0MzI7c3Ryb2tlOiM1OUI0RDk7c3Ryb2tlLXdpZHRoOjAuNzU7c3Ryb2tlLW1pdGVybGltaXQ6MzsiIGQ9IiAgICAgIE0xLjY2LDYyLjhDMC43NCw2Mi44LDAsNjMuNTQsMCw2NC40NmMwLDAuOTEsMC43NCwxLjY1LDEuNjYsMS42NWMwLjkxLDAsMS42NC0wLjczLDEuNjQtMS42NVMyLjU4LDYyLjgsMS42Niw2Mi44eiIvPiYjeGE7CQkJPC9nPiYjeGE7CQk8L2c+JiN4YTsJCTxnIGlkPSJncm91cDQzMzEtMTQiIHRyYW5zZm9ybT0idHJhbnNsYXRlKDIuMDA4MjcsLTAuMzYwMTk2KSI+JiN4YTsJCQk8dGl0bGUgaWQ9InRpdGxlNjAzNDkiPlNoZWV0LjQzMzE8L3RpdGxlPiYjeGE7CQkJPGcgaWQ9InNoYXBlNDMzMi0xNSI+JiN4YTsJCQkJPHRpdGxlIGlkPSJ0aXRsZTYwMzUxIj5TaGVldC40MzMyPC90aXRsZT4mI3hhOwkJCQk8cGF0aCBpZD0icGF0aDYwMzUzIiBpbmtzY2FwZTpjb25uZWN0b3ItY3VydmF0dXJlPSIwIiBzdHlsZT0iZmlsbDojNTlCNEQ5OyIgZD0iTTI3LjM0LDQ5LjMzbC0xLjUxLDAuNTFsLTAuMzksMC44MWwwLjU4LDEuMTkgICAgICBsMC4wNywwLjE3bC0wLjg0LDAuODJsLTEuMzctMC42NGwtMC44MiwwLjM0bC0wLjQyLDEuMjRsLTAuMDUsMC4xN0gyMS40bC0wLjUxLTEuNDNsLTAuOC0wLjMybC0xLjE4LDAuNmwtMC4xNywwLjA3bC0wLjgzLTAuODEgICAgICBsMC42NC0xLjM5bC0wLjM0LTAuODFsLTEuMDYtMC40MmwwLjA0LTAuMDVWNDguMmwxLjIyLTAuNTJsMC4yNC0wLjgxbC0wLjY2LTEuMThsLTAuMS0wLjE2bDAuODMtMC44NGwxLjM2LDAuNjZsMC44MS0wLjMzICAgICAgbDAuNDEtMS4xN2wwLjA2LTAuMDdoMS4xN2wwLjUyLDEuMzNsMC44MSwwLjI4bDEuMTktMC42M2wwLjE1LTAuMDhsMC44MywwLjgzbC0wLjYzLDEuMzZsMC4zMiwwLjgxbDEuMzUsMC40MWwwLjI3LDAuMDZWNDkuMzN6ICAgICAgIE04LjE2LDUzLjhsMS40My0wLjUxbDAuMzQtMC44MWwtMC42LTEuMTlsLTAuMDgtMC4xNmwwLjgzLTAuODNsMS4zOCwwLjY1bDAuODEtMC4zNGwwLjQxLTEuMTRsMC4wNi0wLjA1aDEuMTlsMC41LDEuMzEgICAgICBsMC44MSwwLjI4bDEuMTktMC42M2wwLjE2LTAuMWwwLjgzLDAuODNsLTAuNjUsMS4zNmwwLjM0LDAuODJsMS4xNSwwLjRsMC4wNSwwLjA3djEuMThsLTEuMywwLjUxbC0wLjI5LDAuODFsMC42NCwxLjE5ICAgICAgbDAuMDksMC4xNWwtMC44MywwLjg0bC0xLjM4LTAuNjVsLTAuOCwwLjM0bC0wLjQxLDEuMjdsLTAuMDcsMC4xOEgxMi44bC0wLjUzLTEuNDRsLTAuODEtMC4zNWwtMS4xOCwwLjZsLTAuMTYsMC4wOGwtMC44My0wLjg0ICAgICAgbDAuNjQtMS4zNkw5LjYsNTUuNDZsLTEuMjctMC40MmwtMC4xNy0wLjA2VjUzLjh6IE0yOS45MSw0Ny44MWwtMC42My0wLjIxbDAuMTctMC42NGMwLjE2LTAuNjUsMC4yNS0xLjMsMC4yNS0xLjk2ICAgICAgYzAtNC4yNi0zLjQ3LTcuNzEtNy43My03LjcxYy0zLjEzLDAtNS45MywxLjg1LTcuMTMsNC43M2wtMC40NSwxLjA1bC0wLjcyLTAuODdjLTEuMDItMS4xOS0yLjQ3LTEuODUtNC4wMi0xLjg1ICAgICAgYy0yLjksMC01LjI2LDIuMzUtNS4yNiw1LjI2YzAsMC40OCwwLjA3LDAuOTYsMC4xOSwxLjQ0bDAuMTgsMC42MmwtMC42LDAuMjNDMS41Niw0OC44NiwwLDUwLjk1LDAsNTMuNTUgICAgICBjMCwzLjM5LDIuNzksNi4wMyw2LjMzLDYuMDNoMS41OGMtMC4wNSwwLTAuMDgsMC41OS0wLjA4LDAuODhjMCwzLjExLDIuNTQsNS42NSw1LjY0LDUuNjVjMi4yNywwLDQuMzItMS4zNiw1LjItMy40NUwxOSw2MS44OSAgICAgIGwwLjU0LDAuNjNjMC43NCwwLjg3LDEuODEsMS4zNywyLjkyLDEuMzdjMi4xMiwwLDMuODUtMS43NSwzLjg1LTMuODdjMC0wLjE2LTAuMDEtMC40NC0wLjAzLTAuNDRoMS43MyAgICAgIGMzLjU1LDAsNi4zMi0yLjY0LDYuMzItNi4wM0MzNC4zMyw1MC44NSwzMi42NCw0OC42NiwyOS45MSw0Ny44MXoiLz4mI3hhOwkJCTwvZz4mI3hhOwkJPC9nPiYjeGE7CTwvZz4mI3hhOzwvZz4mI3hhOzwvc3ZnPg==;" vertex="1" parent="1">
          <mxGeometry y="238.89" width="106.9" height="86.11" as="geometry" />
        </mxCell>
        <mxCell id="BwXOe6zrHSaQDzwSpbx--12" value="" style="fontColor=#0066CC;verticalAlign=top;verticalLabelPosition=bottom;labelPosition=center;align=center;html=1;outlineConnect=0;fillColor=#CCCCCC;strokeColor=#6881B3;gradientColor=none;gradientDirection=north;strokeWidth=2;shape=mxgraph.networks.pc;" vertex="1" parent="1">
          <mxGeometry x="10" y="520" width="100" height="80" as="geometry" />
        </mxCell>
        <mxCell id="BwXOe6zrHSaQDzwSpbx--13" style="rounded=0;orthogonalLoop=1;jettySize=auto;html=1;exitX=0.5;exitY=0.07;exitDx=0;exitDy=0;exitPerimeter=0;strokeColor=#FFFFFF;" edge="1" parent="1" source="BwXOe6zrHSaQDzwSpbx--12">
          <mxGeometry relative="1" as="geometry">
            <mxPoint x="61" y="320" as="targetPoint" />
          </mxGeometry>
        </mxCell>
        <mxCell id="BwXOe6zrHSaQDzwSpbx--16" value="" style="image;aspect=fixed;html=1;points=[];align=center;fontSize=12;image=img/lib/azure2/compute/Virtual_Machine.svg;" vertex="1" parent="1">
          <mxGeometry x="179.63" y="524.4100000000001" width="81.5" height="75.59" as="geometry" />
        </mxCell>
        <mxCell id="BwXOe6zrHSaQDzwSpbx--110" style="edgeStyle=orthogonalEdgeStyle;rounded=0;orthogonalLoop=1;jettySize=auto;html=1;exitX=0.5;exitY=1;exitDx=0;exitDy=0;entryX=0.5;entryY=0;entryDx=0;entryDy=0;strokeColor=#FFFFFF;" edge="1" parent="1" source="BwXOe6zrHSaQDzwSpbx--17" target="BwXOe6zrHSaQDzwSpbx--106">
          <mxGeometry relative="1" as="geometry" />
        </mxCell>
        <mxCell id="BwXOe6zrHSaQDzwSpbx--17" value="&lt;font color=&quot;#ffffff&quot;&gt;JumpBoxProvisioner&lt;br&gt;20.168.54.181&lt;br&gt;&lt;/font&gt;" style="text;strokeColor=none;align=center;fillColor=none;html=1;verticalAlign=middle;whiteSpace=wrap;rounded=0;" vertex="1" parent="1">
          <mxGeometry x="140.01" y="605.5899999999999" width="160.75" height="30" as="geometry" />
        </mxCell>
        <mxCell id="BwXOe6zrHSaQDzwSpbx--20" value="" style="shape=image;verticalLabelPosition=bottom;labelBackgroundColor=#ffffff;verticalAlign=top;aspect=fixed;imageAspect=0;image=data:image/svg+xml,PHN2ZyB4bWxuczpkYz0iaHR0cDovL3B1cmwub3JnL2RjL2VsZW1lbnRzLzEuMS8iIHhtbG5zOmNjPSJodHRwOi8vY3JlYXRpdmVjb21tb25zLm9yZy9ucyMiIHhtbG5zOnJkZj0iaHR0cDovL3d3dy53My5vcmcvMTk5OS8wMi8yMi1yZGYtc3ludGF4LW5zIyIgeG1sbnM6c3ZnPSJodHRwOi8vd3d3LnczLm9yZy8yMDAwL3N2ZyIgeG1sbnM9Imh0dHA6Ly93d3cudzMub3JnLzIwMDAvc3ZnIiB4bWxuczpzb2RpcG9kaT0iaHR0cDovL3NvZGlwb2RpLnNvdXJjZWZvcmdlLm5ldC9EVEQvc29kaXBvZGktMC5kdGQiIHhtbG5zOmlua3NjYXBlPSJodHRwOi8vd3d3Lmlua3NjYXBlLm9yZy9uYW1lc3BhY2VzL2lua3NjYXBlIiB2ZXJzaW9uPSIxLjEiIGlkPSJzdmc4Mjg3OSIgaW5rc2NhcGU6dmVyc2lvbj0iMC45Mi4zICgyNDA1NTQ2LCAyMDE4LTAzLTExKSIgc29kaXBvZGk6ZG9jbmFtZT0ibG9hZF9iYWxhbmNlci5zdmciIHg9IjBweCIgeT0iMHB4IiB2aWV3Qm94PSIwIDAgMTAwLjMxIDEwMC4zMSIgeG1sOnNwYWNlPSJwcmVzZXJ2ZSIgd2lkdGg9IjEwMC4zMSIgaGVpZ2h0PSIxMDAuMzEiPjxtZXRhZGF0YSBpZD0ibWV0YWRhdGEyNDEyIj48cmRmOlJERj48Y2M6V29yayByZGY6YWJvdXQ9IiI+PGRjOmZvcm1hdD5pbWFnZS9zdmcreG1sPC9kYzpmb3JtYXQ+PGRjOnR5cGUgcmRmOnJlc291cmNlPSJodHRwOi8vcHVybC5vcmcvZGMvZGNtaXR5cGUvU3RpbGxJbWFnZSIvPjxkYzp0aXRsZS8+PC9jYzpXb3JrPjwvcmRmOlJERj48L21ldGFkYXRhPjxkZWZzIGlkPSJkZWZzMjQxMCIvPiYjeGE7PGZpbHRlciBpZD0iZmlsdGVyXzIiPiYjeGE7CTxmZUdhdXNzaWFuQmx1ciBpZD0iZmVHYXVzc2lhbkJsdXI4MjgzNiIgc3RkRGV2aWF0aW9uPSIyIi8+JiN4YTs8L2ZpbHRlcj4mI3hhOzxzb2RpcG9kaTpuYW1lZHZpZXcgYm9yZGVyY29sb3I9IiM2NjY2NjYiIGJvcmRlcm9wYWNpdHk9IjEiIGZpdC1tYXJnaW4tYm90dG9tPSIwIiBmaXQtbWFyZ2luLWxlZnQ9IjAiIGZpdC1tYXJnaW4tcmlnaHQ9IjAiIGZpdC1tYXJnaW4tdG9wPSIwIiBncmlkdG9sZXJhbmNlPSIxMCIgZ3VpZGV0b2xlcmFuY2U9IjEwIiBpZD0ibmFtZWR2aWV3ODI4ODEiIGlua3NjYXBlOmN1cnJlbnQtbGF5ZXI9InN2ZzgyODc5IiBpbmtzY2FwZTpjeD0iLTM2LjI2NDEyMyIgaW5rc2NhcGU6Y3k9IjQzLjM4OTQ1NSIgaW5rc2NhcGU6cGFnZW9wYWNpdHk9IjAiIGlua3NjYXBlOnBhZ2VzaGFkb3c9IjIiIGlua3NjYXBlOndpbmRvdy1oZWlnaHQ9IjEwMTciIGlua3NjYXBlOndpbmRvdy1tYXhpbWl6ZWQ9IjEiIGlua3NjYXBlOndpbmRvdy13aWR0aD0iMTkyMCIgaW5rc2NhcGU6d2luZG93LXg9Ii04IiBpbmtzY2FwZTp3aW5kb3cteT0iLTgiIGlua3NjYXBlOnpvb209IjUuMjEwODU3NiIgb2JqZWN0dG9sZXJhbmNlPSIxMCIgcGFnZWNvbG9yPSIjZmZmZmZmIiBzaG93Z3JpZD0iZmFsc2UiPiYjeGE7CTwvc29kaXBvZGk6bmFtZWR2aWV3PiYjeGE7JiN4YTs8cGF0aCBpZD0icGF0aDgyODQ5IiBpbmtzY2FwZTpjb25uZWN0b3ItY3VydmF0dXJlPSIwIiBzdHlsZT0iZmlsbDojN2ZiYTAwIiBkPSJtIDUwLjE1LDEwMC4zMSBjIC0yLjQ3LDAgLTQuNzksLTAuOTcgLTYuNTQsLTIuNzEgTCAyLjcxLDU2LjY5IEMgMC45OSw1NC45NyAwLDUyLjU5IDAsNTAuMTUgMCw0Ny43MiAwLjk5LDQ1LjMzIDIuNzEsNDMuNjEgTCA0My42MSwyLjcxIEMgNDUuMzYsMC45NiA0Ny42OCwwIDUwLjE1LDAgYyAyLjQ3LDAgNC44LDAuOTYgNi41NSwyLjcxIGwgNDAuODksNDAuOSBjIDEuNzUsMS43NCAyLjcyLDQuMDcgMi43Miw2LjU0IDAsMi40OCAtMC45Nyw0LjggLTIuNzIsNi41NSBMIDU2LjcsOTcuNiBjIC0xLjc1LDEuNzQgLTQuMDgsMi43MSAtNi41NSwyLjcxIHoiLz4mI3hhOyYjeGE7PHBhdGggaWQ9InBhdGg4Mjg1NyIgaW5rc2NhcGU6Y29ubmVjdG9yLWN1cnZhdHVyZT0iMCIgc3R5bGU9ImZpbGw6I2ZmZmZmZiIgZD0iTSA5MS41LDQ5LjQ4IDc4LjI0LDM2LjIxIHYgOS4zNyBMIDY0LjE2LDQ1LjU3IEMgNjIuOCw0MC43MiA1OSwzNi44OCA1NC4xNiwzNS41IFYgMjIuMDcgaCA5LjI2IEwgNTAuMTUsOC44MSAzNi44OSwyMi4wNyBoIDkuMjUgdiAxMy40MiBjIC00LjgzLDEuMzkgLTguNjMsNS4yMSAtOS45OSwxMC4wNSBMIDIyLjA3LDQ1LjUzIFYgMzYuMjYgTCA4LjgsNDkuNTMgMjIuMDcsNjIuNzkgdiAtOS4zNiBsIDE0LjA4LDAuMDEgYyAxLjM3LDQuODMgNS4xNyw4LjY0IDkuOTksMTAuMDIgdiA5LjMxIGMgLTIuMDEsMS40NiAtNS4wNyw0LjUzIC01LjA3LDguMSAwLDQuOTggNC4wOCw5LjAzIDkuMDUsOS4wMyA0Ljk4LDAgOS4wNSwtNC4wNSA5LjA1LC05LjAzIDAsLTMuNTMgLTMsLTYuNTcgLTUuMDEsLTguMDUgdiAtOS4zNiBjIDQuODIsLTEuMzggOC42MSwtNS4xOCA5Ljk4LC05Ljk5IGwgMTQuMSwwLjAxIHYgOS4yNiB6Ii8+JiN4YTsmI3hhOzxwYXRoIGlkPSJwYXRoODI4NjUiIGlua3NjYXBlOmNvbm5lY3Rvci1jdXJ2YXR1cmU9IjAiIHN0eWxlPSJmaWxsOiM1OWI0ZDkiIGQ9Im0gNTAuMTUsMzguOTMgYyAtNS44MiwwIC0xMC41NSw0LjczIC0xMC41NSwxMC41NSAwLDUuODIgNC43MywxMC41NSAxMC41NSwxMC41NSA1LjgxLDAgMTAuNTUsLTQuNzMgMTAuNTUsLTEwLjU1IDAsLTUuODIgLTQuNzQsLTEwLjU1IC0xMC41NSwtMTAuNTUgeiIvPiYjeGE7JiN4YTs8cGF0aCBpZD0icGF0aDgyODczIiBpbmtzY2FwZTpjb25uZWN0b3ItY3VydmF0dXJlPSIwIiBzdHlsZT0iZmlsbDojZmZmZmZmO2ZpbGwtb3BhY2l0eTowLjE1IiBkPSJNIDU2LjcsMi43MiBDIDU0Ljk1LDAuOTcgNTIuNjMsMCA1MC4xNSwwIDQ3LjY5LDAgNDUuMzYsMC45NyA0My42MSwyLjcyIEwgMi43MSw0My42MiBDIDAuOTksNDUuMzQgMCw0Ny43MiAwLDUwLjE2IDAsNTIuNTkgMC45OSw1NC45OCAyLjcxLDU2LjcgTCAyNS44Nyw3OS44NiA2OS40MywxNS40NSBaIi8+JiN4YTs8L3N2Zz4=;" vertex="1" parent="1">
          <mxGeometry x="811.5" y="290" width="100" height="100" as="geometry" />
        </mxCell>
        <mxCell id="BwXOe6zrHSaQDzwSpbx--21" value="" style="image;aspect=fixed;html=1;points=[];align=center;fontSize=12;image=img/lib/azure2/compute/Virtual_Machine.svg;" vertex="1" parent="1">
          <mxGeometry x="710" y="524.41" width="81.5" height="75.59" as="geometry" />
        </mxCell>
        <mxCell id="BwXOe6zrHSaQDzwSpbx--22" value="" style="image;aspect=fixed;html=1;points=[];align=center;fontSize=12;image=img/lib/azure2/compute/Virtual_Machine.svg;" vertex="1" parent="1">
          <mxGeometry x="945.29" y="522.2" width="81.5" height="75.59" as="geometry" />
        </mxCell>
        <mxCell id="BwXOe6zrHSaQDzwSpbx--7" value="&lt;font color=&quot;#ffffff&quot;&gt;SupremeGroup&lt;/font&gt;" style="text;strokeColor=none;align=center;fillColor=none;html=1;verticalAlign=middle;whiteSpace=wrap;rounded=0;" vertex="1" parent="1">
          <mxGeometry x="175" y="102" width="110" height="50" as="geometry" />
        </mxCell>
        <mxCell id="BwXOe6zrHSaQDzwSpbx--25" value="&lt;font color=&quot;#ffffff&quot;&gt;SupremeBackendPool&lt;/font&gt;" style="text;strokeColor=none;align=center;fillColor=none;html=1;verticalAlign=middle;whiteSpace=wrap;rounded=0;" vertex="1" parent="1">
          <mxGeometry x="810" y="735.59" width="140" height="30" as="geometry" />
        </mxCell>
        <mxCell id="BwXOe6zrHSaQDzwSpbx--26" value="&lt;div&gt;&lt;font color=&quot;#ffffff&quot;&gt;SupremeLB&lt;/font&gt;&lt;/div&gt;&lt;div&gt;&lt;br&gt;&lt;/div&gt;" style="text;strokeColor=none;align=center;fillColor=none;html=1;verticalAlign=middle;whiteSpace=wrap;rounded=0;" vertex="1" parent="1">
          <mxGeometry x="821.5" y="262.5" width="80" height="40" as="geometry" />
        </mxCell>
        <mxCell id="BwXOe6zrHSaQDzwSpbx--124" style="edgeStyle=orthogonalEdgeStyle;rounded=0;orthogonalLoop=1;jettySize=auto;html=1;exitX=0.5;exitY=1;exitDx=0;exitDy=0;entryX=0.5;entryY=0;entryDx=0;entryDy=0;strokeColor=#FFFFFF;" edge="1" parent="1" source="BwXOe6zrHSaQDzwSpbx--29" target="BwXOe6zrHSaQDzwSpbx--116">
          <mxGeometry relative="1" as="geometry" />
        </mxCell>
        <mxCell id="BwXOe6zrHSaQDzwSpbx--29" value="&lt;font color=&quot;#ffffff&quot;&gt;Web-1&lt;br&gt;10.0.0.5&lt;br&gt;&lt;/font&gt;" style="text;strokeColor=none;align=center;fillColor=none;html=1;verticalAlign=middle;whiteSpace=wrap;rounded=0;" vertex="1" parent="1">
          <mxGeometry x="715" y="595.5899999999999" width="80" height="40" as="geometry" />
        </mxCell>
        <mxCell id="BwXOe6zrHSaQDzwSpbx--125" style="edgeStyle=orthogonalEdgeStyle;rounded=0;orthogonalLoop=1;jettySize=auto;html=1;exitX=0.5;exitY=1;exitDx=0;exitDy=0;entryX=0.5;entryY=0;entryDx=0;entryDy=0;strokeColor=#FFFFFF;" edge="1" parent="1" source="BwXOe6zrHSaQDzwSpbx--30" target="BwXOe6zrHSaQDzwSpbx--117">
          <mxGeometry relative="1" as="geometry" />
        </mxCell>
        <mxCell id="BwXOe6zrHSaQDzwSpbx--30" value="&lt;font color=&quot;#ffffff&quot;&gt;Web-2&lt;br&gt;10.0.0.6&lt;br&gt;&lt;/font&gt;" style="text;strokeColor=none;align=center;fillColor=none;html=1;verticalAlign=middle;whiteSpace=wrap;rounded=0;" vertex="1" parent="1">
          <mxGeometry x="830" y="595.59" width="80.75" height="40" as="geometry" />
        </mxCell>
        <mxCell id="BwXOe6zrHSaQDzwSpbx--32" value="" style="image;aspect=fixed;html=1;points=[];align=center;fontSize=12;image=img/lib/azure2/compute/Virtual_Machine.svg;" vertex="1" parent="1">
          <mxGeometry x="830" y="522.2" width="81.5" height="75.59" as="geometry" />
        </mxCell>
        <mxCell id="BwXOe6zrHSaQDzwSpbx--126" style="edgeStyle=orthogonalEdgeStyle;rounded=0;orthogonalLoop=1;jettySize=auto;html=1;exitX=0.5;exitY=1;exitDx=0;exitDy=0;strokeColor=#FFFFFF;" edge="1" parent="1" source="BwXOe6zrHSaQDzwSpbx--33" target="BwXOe6zrHSaQDzwSpbx--118">
          <mxGeometry relative="1" as="geometry" />
        </mxCell>
        <mxCell id="BwXOe6zrHSaQDzwSpbx--33" value="&lt;font color=&quot;#ffffff&quot;&gt;Web-3&lt;br&gt;10.0.0.8&lt;br&gt;&lt;/font&gt;" style="text;strokeColor=none;align=center;fillColor=none;html=1;verticalAlign=middle;whiteSpace=wrap;rounded=0;" vertex="1" parent="1">
          <mxGeometry x="950" y="597.7900000000001" width="80" height="40" as="geometry" />
        </mxCell>
        <mxCell id="BwXOe6zrHSaQDzwSpbx--40" value="" style="endArrow=classic;html=1;rounded=0;strokeColor=#FFFFFF;" edge="1" parent="1">
          <mxGeometry relative="1" as="geometry">
            <mxPoint x="788" y="557.5899999999999" as="sourcePoint" />
            <mxPoint x="828" y="558" as="targetPoint" />
          </mxGeometry>
        </mxCell>
        <mxCell id="BwXOe6zrHSaQDzwSpbx--65" value="" style="endArrow=classic;startArrow=classic;html=1;rounded=0;exitX=0.398;exitY=0.061;exitDx=0;exitDy=0;exitPerimeter=0;entryX=0.185;entryY=0.9;entryDx=0;entryDy=0;entryPerimeter=0;strokeColor=#FFFFFF;" edge="1" parent="1" source="BwXOe6zrHSaQDzwSpbx--21" target="BwXOe6zrHSaQDzwSpbx--20">
          <mxGeometry width="50" height="50" relative="1" as="geometry">
            <mxPoint x="770" y="490" as="sourcePoint" />
            <mxPoint x="845" y="390" as="targetPoint" />
          </mxGeometry>
        </mxCell>
        <mxCell id="BwXOe6zrHSaQDzwSpbx--66" value="" style="endArrow=classic;startArrow=classic;html=1;rounded=0;exitX=0.398;exitY=0.061;exitDx=0;exitDy=0;exitPerimeter=0;entryX=0.5;entryY=1;entryDx=0;entryDy=0;strokeColor=#FFFFFF;" edge="1" parent="1" target="BwXOe6zrHSaQDzwSpbx--20">
          <mxGeometry width="50" height="50" relative="1" as="geometry">
            <mxPoint x="860" y="522.2" as="sourcePoint" />
            <mxPoint x="963" y="383.2" as="targetPoint" />
          </mxGeometry>
        </mxCell>
        <mxCell id="BwXOe6zrHSaQDzwSpbx--67" value="" style="endArrow=classic;startArrow=classic;html=1;rounded=0;exitX=0.398;exitY=0.061;exitDx=0;exitDy=0;exitPerimeter=0;entryX=0.885;entryY=0.8;entryDx=0;entryDy=0;entryPerimeter=0;strokeColor=#FFFFFF;" edge="1" parent="1" target="BwXOe6zrHSaQDzwSpbx--20">
          <mxGeometry width="50" height="50" relative="1" as="geometry">
            <mxPoint x="970" y="520" as="sourcePoint" />
            <mxPoint x="1073" y="381" as="targetPoint" />
          </mxGeometry>
        </mxCell>
        <mxCell id="BwXOe6zrHSaQDzwSpbx--74" value="&lt;font color=&quot;#ffffff&quot;&gt;SupremeVNG&lt;/font&gt;" style="text;strokeColor=none;align=center;fillColor=none;html=1;verticalAlign=middle;whiteSpace=wrap;rounded=0;" vertex="1" parent="1">
          <mxGeometry x="556.25" y="179" width="78.5" height="34" as="geometry" />
        </mxCell>
        <mxCell id="BwXOe6zrHSaQDzwSpbx--78" value="" style="image;aspect=fixed;html=1;points=[];align=center;fontSize=12;image=img/lib/azure2/networking/Virtual_Networks.svg;" vertex="1" parent="1">
          <mxGeometry x="562" y="145" width="67" height="40" as="geometry" />
        </mxCell>
        <mxCell id="BwXOe6zrHSaQDzwSpbx--80" value="" style="edgeStyle=orthogonalEdgeStyle;rounded=0;orthogonalLoop=1;jettySize=auto;html=1;strokeColor=#FFFFFF;" edge="1" parent="1" source="BwXOe6zrHSaQDzwSpbx--8" target="BwXOe6zrHSaQDzwSpbx--79">
          <mxGeometry relative="1" as="geometry">
            <mxPoint x="250" y="283" as="sourcePoint" />
            <mxPoint x="812" y="340" as="targetPoint" />
          </mxGeometry>
        </mxCell>
        <mxCell id="BwXOe6zrHSaQDzwSpbx--79" value="&lt;font color=&quot;#ffffff&quot;&gt;http&lt;/font&gt;" style="text;strokeColor=none;align=center;fillColor=none;html=1;verticalAlign=middle;whiteSpace=wrap;rounded=0;" vertex="1" parent="1">
          <mxGeometry x="420" y="260" width="60" height="30" as="geometry" />
        </mxCell>
        <mxCell id="BwXOe6zrHSaQDzwSpbx--81" value="&lt;font color=&quot;#ffffff&quot;&gt;http&lt;/font&gt;" style="text;strokeColor=none;align=center;fillColor=none;html=1;verticalAlign=middle;whiteSpace=wrap;rounded=0;rotation=55;" vertex="1" parent="1">
          <mxGeometry x="930" y="430" width="60" height="50" as="geometry" />
        </mxCell>
        <mxCell id="BwXOe6zrHSaQDzwSpbx--82" value="&lt;font color=&quot;#ffffff&quot;&gt;http&lt;/font&gt;" style="text;strokeColor=none;align=center;fillColor=none;html=1;verticalAlign=middle;whiteSpace=wrap;rounded=0;rotation=-90;" vertex="1" parent="1">
          <mxGeometry x="811.5" y="440" width="60" height="50" as="geometry" />
        </mxCell>
        <mxCell id="BwXOe6zrHSaQDzwSpbx--90" value="&lt;font color=&quot;#ffffff&quot;&gt;http&lt;/font&gt;" style="text;strokeColor=none;align=center;fillColor=none;html=1;verticalAlign=middle;whiteSpace=wrap;rounded=0;rotation=-45;" vertex="1" parent="1">
          <mxGeometry x="731.5" y="430" width="60" height="50" as="geometry" />
        </mxCell>
        <mxCell id="BwXOe6zrHSaQDzwSpbx--92" value="&lt;font color=&quot;#ffffff&quot;&gt;http&lt;/font&gt;" style="text;strokeColor=none;align=center;fillColor=none;html=1;verticalAlign=middle;whiteSpace=wrap;rounded=0;" vertex="1" parent="1">
          <mxGeometry x="100" y="240" width="60" height="50" as="geometry" />
        </mxCell>
        <mxCell id="BwXOe6zrHSaQDzwSpbx--97" value="&lt;font color=&quot;#ffffff&quot;&gt;ssh&lt;/font&gt;" style="text;strokeColor=none;align=center;fillColor=none;html=1;verticalAlign=middle;whiteSpace=wrap;rounded=0;rotation=-90;" vertex="1" parent="1">
          <mxGeometry x="36.9" y="400" width="70" height="40" as="geometry" />
        </mxCell>
        <mxCell id="BwXOe6zrHSaQDzwSpbx--98" value="&lt;font color=&quot;#ffffff&quot;&gt;ssh&lt;/font&gt;" style="text;strokeColor=none;align=center;fillColor=none;html=1;verticalAlign=middle;whiteSpace=wrap;rounded=0;" vertex="1" parent="1">
          <mxGeometry x="95" y="270" width="70" height="40" as="geometry" />
        </mxCell>
        <mxCell id="BwXOe6zrHSaQDzwSpbx--100" value="" style="edgeStyle=orthogonalEdgeStyle;rounded=0;orthogonalLoop=1;jettySize=auto;html=1;strokeColor=#FFFFFF;" edge="1" parent="1" target="BwXOe6zrHSaQDzwSpbx--99">
          <mxGeometry relative="1" as="geometry">
            <mxPoint x="210" y="350" as="sourcePoint" />
            <mxPoint x="220" y="524" as="targetPoint" />
          </mxGeometry>
        </mxCell>
        <mxCell id="BwXOe6zrHSaQDzwSpbx--99" value="&lt;font color=&quot;#ffffff&quot;&gt;ssh&lt;/font&gt;" style="text;strokeColor=none;align=center;fillColor=none;html=1;verticalAlign=middle;whiteSpace=wrap;rounded=0;rotation=0;" vertex="1" parent="1">
          <mxGeometry x="185.38" y="413" width="70" height="40" as="geometry" />
        </mxCell>
        <mxCell id="BwXOe6zrHSaQDzwSpbx--102" value="&lt;font color=&quot;#ffffff&quot;&gt;http&lt;/font&gt;" style="text;strokeColor=none;align=center;fillColor=none;html=1;verticalAlign=middle;whiteSpace=wrap;rounded=0;rotation=-90;" vertex="1" parent="1">
          <mxGeometry x="20" y="410" width="60" height="30" as="geometry" />
        </mxCell>
        <mxCell id="BwXOe6zrHSaQDzwSpbx--105" value="" style="endArrow=classic;html=1;rounded=0;strokeColor=#FFFFFF;" edge="1" parent="1">
          <mxGeometry relative="1" as="geometry">
            <mxPoint x="910" y="557.5899999999999" as="sourcePoint" />
            <mxPoint x="945" y="557.1233333333334" as="targetPoint" />
          </mxGeometry>
        </mxCell>
        <mxCell id="BwXOe6zrHSaQDzwSpbx--24" value="" style="rounded=0;whiteSpace=wrap;html=1;fillColor=none;strokeColor=#FFFFFF;" vertex="1" parent="1">
          <mxGeometry x="655.75" y="515.59" width="430" height="250" as="geometry" />
        </mxCell>
        <mxCell id="BwXOe6zrHSaQDzwSpbx--106" value="" style="shape=image;verticalLabelPosition=bottom;labelBackgroundColor=#ffffff;verticalAlign=top;aspect=fixed;imageAspect=0;image=data:image/svg+xml,PHN2ZyB4bWxuczpkYz0iaHR0cDovL3B1cmwub3JnL2RjL2VsZW1lbnRzLzEuMS8iIHhtbG5zOmNjPSJodHRwOi8vY3JlYXRpdmVjb21tb25zLm9yZy9ucyMiIHhtbG5zOnJkZj0iaHR0cDovL3d3dy53My5vcmcvMTk5OS8wMi8yMi1yZGYtc3ludGF4LW5zIyIgeG1sbnM6c3ZnPSJodHRwOi8vd3d3LnczLm9yZy8yMDAwL3N2ZyIgeG1sbnM9Imh0dHA6Ly93d3cudzMub3JnLzIwMDAvc3ZnIiB4bWxuczpzb2RpcG9kaT0iaHR0cDovL3NvZGlwb2RpLnNvdXJjZWZvcmdlLm5ldC9EVEQvc29kaXBvZGktMC5kdGQiIHhtbG5zOmlua3NjYXBlPSJodHRwOi8vd3d3Lmlua3NjYXBlLm9yZy9uYW1lc3BhY2VzL2lua3NjYXBlIiB2ZXJzaW9uPSIxLjEiIGlkPSJzdmc3OTMzNSIgaW5rc2NhcGU6dmVyc2lvbj0iMC45Mi4zICgyNDA1NTQ2LCAyMDE4LTAzLTExKSIgc29kaXBvZGk6ZG9jbmFtZT0iZG9ja2VyLnN2ZyIgeD0iMHB4IiB5PSIwcHgiIHZpZXdCb3g9IjAgMCA5OS4yMiA4My4yMzk4NCIgeG1sOnNwYWNlPSJwcmVzZXJ2ZSIgd2lkdGg9Ijk5LjIyMDAwMSIgaGVpZ2h0PSI4My4yMzk4MzgiPjxtZXRhZGF0YSBpZD0ibWV0YWRhdGExMTIxIj48cmRmOlJERj48Y2M6V29yayByZGY6YWJvdXQ9IiI+PGRjOmZvcm1hdD5pbWFnZS9zdmcreG1sPC9kYzpmb3JtYXQ+PGRjOnR5cGUgcmRmOnJlc291cmNlPSJodHRwOi8vcHVybC5vcmcvZGMvZGNtaXR5cGUvU3RpbGxJbWFnZSIvPjxkYzp0aXRsZS8+PC9jYzpXb3JrPjwvcmRmOlJERj48L21ldGFkYXRhPjxkZWZzIGlkPSJkZWZzMTExOSI+JiN4YTsJJiN4YTsmI3hhOwkmI3hhOyYjeGE7CSYjeGE7CSYjeGE7CSYjeGE7JiN4YTsJJiN4YTsJJiN4YTsJJiN4YTsmI3hhOwkmI3hhOwkmI3hhOwkmI3hhOyYjeGE7CSYjeGE7CSYjeGE7CSYjeGE7JiN4YTsJJiN4YTsmI3hhOwkmI3hhOwkmI3hhOwkmI3hhOyYjeGE7CSYjeGE7CSYjeGE7CSYjeGE7JiN4YTsJJiN4YTsJJiN4YTsJJiN4YTsmI3hhOwkmI3hhOwkmI3hhOwkmI3hhOyYjeGE7CSYjeGE7CSYjeGE7CSYjeGE7JiN4YTsJJiN4YTsJJiN4YTsJJiN4YTsmI3hhOwkmI3hhOwkmI3hhOwkmI3hhOyYjeGE7CSYjeGE7CSYjeGE7CSYjeGE7JiN4YTsJJiN4YTsJJiN4YTsJJiN4YTsmI3hhOwkmI3hhOyYjeGE7CSYjeGE7JiN4YTsJJiN4YTsmI3hhOwkmI3hhOyYjeGE7CSYjeGE7JiN4YTsJCSYjeGE7CSYjeGE7CQkmI3hhOwkmI3hhOwkJJiN4YTsJJiN4YTsJCSYjeGE7CSYjeGE7CQkmI3hhOwkmI3hhOwkJJiN4YTsJJiN4YTsJCSYjeGE7CSYjeGE7CQkmI3hhOwkmI3hhOwkJJiN4YTsJJiN4YTsJCSYjeGE7CSYjeGE7CQkmI3hhOwkmI3hhOwkJJiN4YTsJJiN4YTsJCSYjeGE7CSYjeGE7CQkmI3hhOwkmI3hhOwkJJiN4YTsJJiN4YTsJCSYjeGE7CSYjeGE7CQkmI3hhOwkmI3hhOwkJJiN4YTsJJiN4YTsJCSYjeGE7CSYjeGE7CQkmI3hhOwkmI3hhOwkJCSYjeGE7CQkmI3hhOwkJCSYjeGE7CQkmI3hhOwkJCSYjeGE7CQkmI3hhOwkJCSYjeGE7CQk8L2RlZnM+JiN4YTs8ZmlsdGVyIGlkPSJmaWx0ZXJfMiI+JiN4YTsJPGZlR2F1c3NpYW5CbHVyIGlkPSJmZUdhdXNzaWFuQmx1cjc5MTUwIiBzdGREZXZpYXRpb249IjIiLz4mI3hhOzwvZmlsdGVyPiYjeGE7PHNvZGlwb2RpOm5hbWVkdmlldyBib3JkZXJjb2xvcj0iIzY2NjY2NiIgYm9yZGVyb3BhY2l0eT0iMSIgZml0LW1hcmdpbi1ib3R0b209IjAiIGZpdC1tYXJnaW4tbGVmdD0iMCIgZml0LW1hcmdpbi1yaWdodD0iMCIgZml0LW1hcmdpbi10b3A9IjAiIGdyaWR0b2xlcmFuY2U9IjEwIiBndWlkZXRvbGVyYW5jZT0iMTAiIGlkPSJuYW1lZHZpZXc3OTMzNyIgaW5rc2NhcGU6Y3VycmVudC1sYXllcj0ic3ZnNzkzMzUiIGlua3NjYXBlOmN4PSItMjQuMjM0MzIxIiBpbmtzY2FwZTpjeT0iNTUuNzcxNTY5IiBpbmtzY2FwZTpwYWdlb3BhY2l0eT0iMCIgaW5rc2NhcGU6cGFnZXNoYWRvdz0iMiIgaW5rc2NhcGU6d2luZG93LWhlaWdodD0iMTAxNyIgaW5rc2NhcGU6d2luZG93LW1heGltaXplZD0iMSIgaW5rc2NhcGU6d2luZG93LXdpZHRoPSIxOTIwIiBpbmtzY2FwZTp3aW5kb3cteD0iLTgiIGlua3NjYXBlOndpbmRvdy15PSItOCIgaW5rc2NhcGU6em9vbT0iMy4yOTk1NDQ5IiBvYmplY3R0b2xlcmFuY2U9IjEwIiBwYWdlY29sb3I9IiNmZmZmZmYiIHNob3dncmlkPSJmYWxzZSI+JiN4YTsJPC9zb2RpcG9kaTpuYW1lZHZpZXc+JiN4YTsmI3hhOzxwYXRoIGlkPSJwYXRoNzkxNjMiIGlua3NjYXBlOmNvbm5lY3Rvci1jdXJ2YXR1cmU9IjAiIHN0eWxlPSJmaWxsOiMzZjU3NjUiIGQ9Im0gNzMuNDYsNzggYyAyLjIzLC0xLjkxIDQuNDYsLTMuODMgNi42OSwtNS43NSAwLjc2LC0wLjY2IDEuNTksLTEuMzQgMi4zNSwtMi4wMyAtMC42MSwtMC43NiAtMS42MiwtMS4zMSAtMi40OCwtMS42NCAtMS43MywtMC42NiAtMy40NCwtMC40NCAtNS4wMywwLjQ4IC0yLjA5LDEuMiAtMi45NywzLjEyIC0yLjg5LDUuNSAwLjAzLDAuOTQgMC4yOCwxLjg0IDAuNzgsMi42NCAwLjE3LDAuMjggMC4zNywwLjU1IDAuNTgsMC44IHogbSAyLjU4LDEuODEgYyAxLjEsMC4zOCAyLjM0LDAuMzMgMy40NywwLjE0IDAuNTcsLTAuMjUgMi4wNCwtMC44OSAyLjU4LC0wLjggbCAwLjA4LDAuMDIgMC4wOCwwLjA0IGMgMC4zMywwLjE2IDAuNjQsMC4zOCAwLjgxLDAuNzIgMC40LDAuNzkgMC4yMSwxLjU3IC0wLjU3LDIuMDIgbCAtMC4yNSwwLjE1IGMgLTIuODUsMS42NSAtNS44OSwxLjQyIC04LjczLC0wLjEyIC0xLjM2LC0wLjczIC0yLjQsLTEuODIgLTMuMTcsLTMuMTYgbCAtMC4xOCwtMC4zMSBjIC0xLjgzLC0zLjE3IC0xLjU4LC02LjUgMC40OCwtOS41MiAwLjcyLC0xLjA0IDEuNjUsLTEuODUgMi43NCwtMi40OCBsIDAuNDEsLTAuMjMgYyAyLjY5LC0xLjU1IDUuNTcsLTEuNDUgOC4zMywtMC4wOSAxLjQ4LDAuNzMgMi42OCwxLjgzIDMuNTEsMy4yNiBsIDAuMTUsMC4yNiBjIDAuNiwxLjA0IC0wLjE4LDEuOTUgLTAuOTgsMi41NyAtMC45NCwwLjcyIC0xLjg4LDEuNTkgLTIuNzgsMi4zNiAtMS45OSwxLjcyIC0zLjk4LDMuNDUgLTUuOTgsNS4xNyB6IE0gOTcuNDEsNjUuMzkgaCAwLjMgYyAwLjksMCAxLjUxLDAuNjEgMS41MSwxLjUgMCwxLjI1IC0xLjIsMS41NyAtMi4yMiwxLjU3IC0xLjM2LDAgLTIuNjQsMC44MSAtMy41NywxLjczIC0xLjE3LDEuMTUgLTEuNjcsMi42MSAtMS42Nyw0LjIyIHYgNy4yOCBjIDAsMC44MyAtMC41MiwxLjUxIC0xLjM5LDEuNTEgaCAtMC4yNCBjIC0wLjg2LDAgLTEuMzgsLTAuNjggLTEuMzgsLTEuNTEgdiAtNy43IGMgMCwtMi45NSAxLjQ0LC01LjM2IDMuODQsLTcuMDYgMS40MywtMS4wMSAzLjA3LC0xLjU0IDQuODIsLTEuNTQgeiBtIC0zNy40Nyw1LjE2IGMgMS4xNiwtMS4xNyAyLjM0LC0yLjMzIDMuNTIsLTMuNDggMC4zMywtMC4zMiAxLjU4LC0xLjY4IDIuMDgsLTEuNjggaCAwLjUzIGwgMC4wNiwwLjAxIGMgMC42OSwwLjE0IDEuMiwwLjU4IDEuMiwxLjMxIHYgMC4zIGMgMCwwLjUgLTAuNTksMS4wOSAtMC45MSwxLjQzIC0wLjY5LDAuNzQgLTEuNDIsMS40NCAtMi4xMywyLjE2IGwgLTMuNjMsMy42OSBjIDEuNTcsMS41NiAzLjEzLDMuMTMgNC42OCw0LjcxIDAuNDMsMC40NCAwLjg2LDAuODggMS4yOCwxLjMyIDAuMTUsMC4xNiAwLjM3LDAuMzUgMC41LDAuNTcgMC4xMywwLjIxIDAuMjEsMC40NCAwLjIxLDAuNjggdiAwLjMxIGwgLTAuMDEsMC4wNyBjIC0wLjE3LDAuNjkgLTAuNjEsMS4yNCAtMS4zNywxLjI0IGggLTAuMjQgYyAtMC41LDAgLTEuMDYsLTAuNTYgLTEuNCwtMC44OCAtMC43LC0wLjY2IC0xLjM4LC0xLjM2IC0yLjA3LC0yLjAzIGwgLTIuMzEsLTIuMjcgdiAzLjYyIGMgMCwwLjg0IC0wLjUyLDEuNTEgLTEuMzgsMS41MSBoIC0wLjI0IGMgLTAuODYsMCAtMS4zOCwtMC42NyAtMS4zOCwtMS41MSBWIDYxLjIyIGMgMCwtMC44MyAwLjUyLC0xLjUgMS4zOCwtMS41IGggMC4yNCBjIDAuODYsMCAxLjM4LDAuNjcgMS4zOCwxLjUgdiA5LjMzIHogbSAtOS43NSwtMi4wMyBjIC0wLjQ2LC0wLjIxIC0xLjMxLC0wLjI5IC0xLjgsLTAuMyAtMi41MSwtMC4xIC00LjMzLDEuMzIgLTUuNCwzLjUzIC0wLjM2LDAuNzcgLTAuNTMsMS41OCAtMC41MywyLjQyIDAsMi41OCAxLjM1LDQuMzggMy42NSw1LjQ4IDAuODQsMC40IDEuOTIsMC40OCAyLjg0LDAuNDggMC44MSwwIDEuOTUsLTAuNSAyLjY2LC0wLjg0IGwgMC4xMywtMC4wNiBoIDAuNTYgbCAwLjA2LDAuMDIgYyAwLjY4LDAuMTQgMS4yLDAuNTcgMS4yLDEuMzEgdiAwLjMgYyAwLDEuODMgLTMuMzUsMi4yNSAtNC42MywyLjM0IC00LjUsMC4zMSAtNy44NywtMi4xNyAtOS4xNSwtNi40NiAtMC4yMywtMC43NSAtMC4zMywtMS40OSAtMC4zMywtMi4yNyB2IC0wLjYgYyAwLC0zLjI2IDEuNjIsLTUuODQgNC40MiwtNy41IDEuMywtMC43NyAyLjczLC0xLjE2IDQuMjUsLTEuMTYgaCAwLjU5IGMgMS42LDAgMy4wOCwwLjQ1IDQuNCwxLjM2IGwgMC4xMSwwLjA3IDAuMDcsMC4xMiBjIDAuMTQsMC4yMyAwLjI3LDAuNTEgMC4yNywwLjc5IHYgMC4zIGMgMCwwLjc2IC0wLjU4LDEuMTggLTEuMjcsMS4zMSBsIC0wLjA2LDAuMDEgaCAtMC4xOCBjIC0wLjQ1LDAgLTEuNDYsLTAuNDYgLTEuODYsLTAuNjUgeiBtIC0yNy40Miw1LjcxIGMgMCwyLjI5IDEuMTIsMy45NyAzLjA1LDUuMTUgMC45MSwwLjU2IDEuOSwwLjgxIDIuOTYsMC44MSAyLjI2LDAgMy45MywtMS4xNSA1LjA5LC0zLjA1IDAuNTYsLTAuOTEgMC44MSwtMS45MSAwLjgxLC0yLjk3IDAsLTIuMTIgLTEuMDMsLTMuNzUgLTIuNzgsLTQuOTIgLTAuOTYsLTAuNjUgLTIuMDIsLTAuOTcgLTMuMTgsLTAuOTcgLTIuNTIsMCAtNC4zMywxLjI3IC01LjQyLDMuNTMgLTAuMzcsMC43NiAtMC41MywxLjU4IC0wLjUzLDIuNDIgeiBtIDUuNjUsLTguOTYgaCAwLjQyIGMgMy40OSwwIDYuMTQsMS42OSA3LjgxLDQuNzMgMC42OCwxLjIyIDEuMDMsMi41NCAxLjAzLDMuOTQgdiAwLjU5IGMgMCwzLjI2IC0xLjYsNS44NiAtNC40MSw3LjUxIC0xLjMsMC43NiAtMi43NCwxLjE1IC00LjI1LDEuMTUgaCAtMC42IGMgLTMuMjYsMCAtNS44NSwtMS42MSAtNy41LC00LjQxIC0wLjc3LC0xLjMgLTEuMTYsLTIuNzQgLTEuMTYsLTQuMjUgdiAtMC41OSBjIDAsLTMuMjcgMS42MiwtNS44NSA0LjQxLC03LjUxIDEuMzEsLTAuNzcgMi43NCwtMS4xNiA0LjI1LC0xLjE2IHogTSAzLjA4LDc0LjIzIGMgMCwyLjM2IDEuMTQsNC4xMyAzLjIsNS4yNiAwLjg0LDAuNDUgMS43NCwwLjcgMi42OSwwLjcgMi4zMSwwIDQuMDMsLTEuMDkgNS4yMSwtMy4wNSAwLjU1LC0wLjkxIDAuODEsLTEuOTEgMC44MSwtMi45NyAwLC0yLjA0IC0wLjk3LC0zLjYzIC0yLjYyLC00LjgyIC0wLjk5LC0wLjcxIC0yLjEyLC0xLjA3IC0zLjM0LC0xLjA3IC0yLjUyLDAgLTQuMzMsMS4yNyAtNS40MiwzLjUzIC0wLjM3LDAuNzYgLTAuNTMsMS41OCAtMC41MywyLjQyIHogbSAxMS45MSwtNi43MiB2IC02LjM1IGMgMCwtMC44MyAwLjUyLC0xLjUgMS4zOCwtMS41IGggMC4yNCBjIDAuODcsMCAxLjM4LDAuNjcgMS4zOCwxLjUgdiAxMy4zNyBjIDAsMy4yNiAtMS42MSw1Ljg1IC00LjQxLDcuNTEgLTEuMywwLjc2IC0yLjc0LDEuMTYgLTQuMjUsMS4xNiBIIDguNzMgQyA1LjQ3LDgzLjIgMi44OCw4MS41OCAxLjIzLDc4Ljc4IDAuNDYsNzcuNDggMC4wNyw3Ni4wNCAwLjA3LDc0LjUzIHYgLTAuNTkgYyAwLC0zLjI2IDEuNjEsLTUuODYgNC40MSwtNy41MSAxLjMxLC0wLjc3IDIuNzQsLTEuMTYgNC4yNSwtMS4xNiBoIDAuNiBjIDIuMjEsMCA0LjA4LDAuODUgNS42NiwyLjI0IHoiLz4mI3hhOyYjeGE7PHBhdGggaWQ9InBhdGg3OTE3MSIgaW5rc2NhcGU6Y29ubmVjdG9yLWN1cnZhdHVyZT0iMCIgc3R5bGU9ImZpbGw6IzM5NGQ1NCIgZD0ibSA1Ny4yMywxNy43NSBoIDguODcgdiA5LjA3IGggNC40OSBjIDIuMDcsMCA0LjIsLTAuMzcgNi4xNiwtMS4wNCAwLjk2LC0wLjMyIDIuMDUsLTAuNzggMywtMS4zNSAtMS4yNiwtMS42NCAtMS44OSwtMy43IC0yLjA4LC01Ljc0IC0wLjI2LC0yLjc2IDAuMywtNi4zNyAyLjE3LC04LjUzIGwgMC45NCwtMS4wOCAxLjExLDAuODkgYyAyLjgsMi4yNSA1LjE1LDUuMzkgNS41Niw4Ljk3IDMuMzcsLTAuOTkgNy4zMywtMC43NiAxMC4zLDAuOTYgbCAxLjIyLDAuNyAtMC42NCwxLjI1IEMgOTUuODEsMjYuNzYgOTAuNTYsMjguMjcgODUuNDMsMjggNzcuNzUsNDcuMTQgNjEuMDIsNTYuMiA0MC43NSw1Ni4yIDMwLjI3LDU2LjIgMjAuNjYsNTIuMjggMTUuMTgsNDIuOTggTCAxNS4wOSw0Mi44MyAxNC4zLDQxLjIxIEMgMTIuNDUsMzcuMTIgMTEuODMsMzIuNjQgMTIuMjUsMjguMTYgbCAwLjEyLC0xLjM0IGggNy41OSB2IC05LjA3IGggOC44NyBWIDguODcgSCA0Ni41OCBWIDAgaCAxMC42NCB6Ii8+JiN4YTs8cGF0aCBkPSJtIDg1Ljk4MDMsMjEuMTAwMzMxIGMgMC41OSwtNC42MiAtMi44NywtOC4yNSAtNS4wMiwtOS45OCAtMi40NywyLjg2IC0yLjg1LDEwLjM1IDEuMDMsMTMuNTEgLTIuMTcsMS45MiAtNi43MywzLjY2IC0xMS40LDMuNjYgaCAtNTYuODcgYyAtMC40NSw0Ljg4IDAuNDEsOS4zNyAyLjM2LDEzLjIyIGwgMC42NSwxLjE4IGMgMC40MSwwLjY5IDAuODYsMS4zNiAxLjM0LDIuMDEgdiAwIGMgMi4zNCwwLjE1IDQuNDksMC4yIDYuNDYsMC4xNiAwLDAgMCwwIDAuMDEsMCAzLjg3LC0wLjA5IDcuMDMsLTAuNTQgOS40MywtMS4zNyAwLjM2LC0wLjEzIDAuNzUsMC4wNiAwLjg3LDAuNDIgMC4xMiwwLjM1IC0wLjA3LDAuNzQgLTAuNDIsMC44NyAtMC4zMiwwLjExIC0wLjY1LDAuMjEgLTEsMC4zMSB2IDAgYyAtMS44OSwwLjU0IC0zLjkxLDAuOSAtNi41MiwxLjA2IDAuMTYsMCAtMC4xNiwwLjAyIC0wLjE2LDAuMDIgLTAuMDksMC4wMSAtMC4yLDAuMDIgLTAuMjksMC4wMyAtMS4wMywwLjA1IC0yLjE0LDAuMDcgLTMuMjcsMC4wNyAtMS4yNCwwIC0yLjQ2LC0wLjAzIC0zLjgzLC0wLjEgbCAtMC4wMywwLjAzIGMgNC43Myw1LjMyIDEyLjE0LDguNTIgMjEuNDMsOC41MiAxOS42NSwwIDM2LjMyLC04LjcyIDQzLjcsLTI4LjI4IDUuMjQsMC41NCAxMC4yNywtMC43OSAxMi41NiwtNS4yNiAtMy42NCwtMi4xMSAtOC4zMywtMS40NCAtMTEuMDMsLTAuMDggeiIgc3R5bGU9ImZpbGw6IzAwYWFkYSIgaW5rc2NhcGU6Y29ubmVjdG9yLWN1cnZhdHVyZT0iMCIgaWQ9InBhdGg3OTE4MSIvPiYjeGE7PHBhdGggZD0ibSA4NS45Nzk3NiwyMS4xMDI3MjEgYyAwLjU5LC00LjYzIC0yLjg3LC04LjI2IC01LjAxLC05Ljk4IC0yLjQ4LDIuODYgLTIuODYsMTAuMzUgMS4wMiwxMy41MSAtMi4xNywxLjkyIC02LjczLDMuNjYgLTExLjQsMy42NiBoIC01My41IGMgLTAuMjMsNy40NyAyLjU0LDEzLjE0IDcuNDQsMTYuNTcgMCwwIDAsMCAwLjAxLDAgMy44NywtMC4wOSA3LjAzLC0wLjU1IDkuNDMsLTEuMzggMC4zNiwtMC4xMiAwLjc1LDAuMDcgMC44NywwLjQzIDAuMTIsMC4zNSAtMC4wNywwLjc0IC0wLjQyLDAuODYgLTAuMzIsMC4xMiAtMC42NSwwLjIyIC0xLDAuMzIgdiAwIGMgLTEuODksMC41MyAtNC4wOCwwLjk0IC02LjY5LDEuMTEgMCwwIC0wLjA3LC0wLjA3IC0wLjA3LC0wLjA2IDYuNjksMy40MyAxNi4zOSwzLjQxIDI3LjUxLC0wLjg2IDEyLjQ3LC00Ljc5IDI0LjA3LC0xMy45MSAzMi4xNiwtMjQuMzUgLTAuMTIsMC4wNSAtMC4yNCwwLjExIC0wLjM1LDAuMTcgeiIgc3R5bGU9ImZpbGw6IzI0YjhlYiIgaW5rc2NhcGU6Y29ubmVjdG9yLWN1cnZhdHVyZT0iMCIgaWQ9InBhdGg3OTE4OSIvPiYjeGE7PHBhdGggZD0ibSAxMy44MzEyMywzNC4yMjAzMzEgYyAwLjM1LDIuNjEgMS4xMiw1LjA2IDIuMjUsNy4yOCBsIDAuNjUsMS4xOSBjIDAuNDEsMC42OSAwLjg1LDEuMzYgMS4zNCwyLjAxIDIuMzQsMC4xNSA0LjQ5LDAuMiA2LjQ2LDAuMTYgMy44OCwtMC4wOSA3LjA0LC0wLjU0IDkuNDQsLTEuMzggMC4zNiwtMC4xMiAwLjc0LDAuMDcgMC44NywwLjQzIDAuMTIsMC4zNSAtMC4wNywwLjc0IC0wLjQyLDAuODcgLTAuMzIsMC4xMSAtMC42NiwwLjIxIC0xLDAuMzEgdiAwIGMgLTEuODksMC41NCAtNC4wNywwLjkyIC02LjY4LDEuMDggLTAuMDksMC4wMSAtMC4yNSwwLjAxIC0wLjM0LDAuMDIgLTEuMDIsMC4wNSAtMi4xMiwwLjA5IC0zLjI2LDAuMDkgLTEuMjQsMCAtMi41MSwtMC4wMiAtMy44NywtMC4wOSA0Ljc0LDUuMzIgMTIuMTksOC41MyAyMS40OCw4LjUzIDE2LjgyLDAgMzEuNDYsLTYuMzkgMzkuOTYsLTIwLjUgeiIgc3R5bGU9ImZpbGw6IzAwOGJiOCIgaW5rc2NhcGU6Y29ubmVjdG9yLWN1cnZhdHVyZT0iMCIgaWQ9InBhdGg3OTE5NyIvPiYjeGE7PHBhdGggZD0ibSAxNy42MDM4NiwzNC4yMTgzNDEgYyAxLjAxLDQuNTkgMy40Miw4LjE5IDYuOTMsMTAuNjQgMy44OCwtMC4wOCA3LjA0LC0wLjU0IDkuNDQsLTEuMzcgMC4zNSwtMC4xMyAwLjc0LDAuMDYgMC44NywwLjQyIDAuMTIsMC4zNiAtMC4wNywwLjc0IC0wLjQzLDAuODcgLTAuMzIsMC4xMSAtMC42NSwwLjIxIC0wLjk5LDAuMzEgdiAwIGMgLTEuODksMC41NCAtNC4xMiwwLjkyIC02LjczLDEuMDkgNi42OSwzLjQzIDE2LjM2LDMuMzggMjcuNDcsLTAuODkgNi43MywtMi41OSAxMy4yLC02LjQzIDE5LjAxLC0xMS4wNyB6IiBzdHlsZT0iZmlsbDojMDM5YmM2IiBpbmtzY2FwZTpjb25uZWN0b3ItY3VydmF0dXJlPSIwIiBpZD0icGF0aDc5MjA1Ii8+JiN4YTsmI3hhOzxwYXRoIGlkPSJwYXRoNzkyMTQiIGlua3NjYXBlOmNvbm5lY3Rvci1jdXJ2YXR1cmU9IjAiIHN0eWxlPSJmaWxsOiMzOTRkNTQiIGQ9Im0gMjMuMTYsNDYuMjUgYyAxLjEzLDAgMi4yMSwtMC4wMyAzLjI0LC0wLjA5IDAuMDksLTAuMDEgMC4xNywtMC4wMSAwLjI2LC0wLjAyIDAuMDEsMCAwLjAxLDAgMC4wMSwwIDIuNjEsLTAuMTYgNC44NywtMC41MSA2Ljc1LC0xLjA1IHYgMCBjIDAuMzUsLTAuMDkgMC42OCwtMC4yIDEsLTAuMzEgMC4zNSwtMC4xMiAwLjU0LC0wLjUxIDAuNDIsLTAuODcgLTAuMTIsLTAuMzUgLTAuNTEsLTAuNTQgLTAuODcsLTAuNDIgLTIuNCwwLjgzIC01LjU2LDEuMjkgLTkuNDMsMS4zNyB2IDAgYyAtMS45OCwwLjA1IC00LjEzLDAgLTYuNDcsLTAuMTUgdiAwIGMgLTAuMTIsLTAuMDEgLTAuMjQsLTAuMDIgLTAuMzYsLTAuMDMgLTAuMzcsLTAuMDIgLTAuNywwLjI2IC0wLjcyLDAuNjQgLTAuMDMsMC4zNyAwLjI1LDAuNyAwLjYzLDAuNzMgMC40OCwwLjAzIDAuOTUsMC4wNiAxLjQxLDAuMDggMC4wNywwIDAuMTQsMC4wMSAwLjIyLDAuMDEgMS4zNiwwLjA3IDIuNjcsMC4xMSAzLjkxLDAuMTEgeiIvPiYjeGE7PHBhdGggZD0ibSAyNy44ODI2LDE5Ljg2OTIzMSBoIDAuNjEgdiA2LjQgaCAtMC42MSB6IG0gLTEuMTYsMCBoIDAuNjMgdiA2LjQgaCAtMC42MyB6IG0gLTEuMTcsMCBoIDAuNjMgdiA2LjQgaCAtMC42MyB6IG0gLTEuMTYsMCBoIDAuNjMgdiA2LjQgaCAtMC42MyB6IG0gLTEuMTcsMCBoIDAuNjMgdiA2LjQgaCAtMC42MyB6IG0gLTEuMTQsMCBoIDAuNjEgdiA2LjQgaCAtMC42MSB6IG0gLTAuNjQsLTAuNjQgaCA3LjY5IHYgNy42OSBoIC03LjY5IHoiIHN0eWxlPSJmaWxsOiMwMGFjZDMiIGlua3NjYXBlOmNvbm5lY3Rvci1jdXJ2YXR1cmU9IjAiIGlkPSJwYXRoNzkyMjQiLz4mI3hhOzxwYXRoIGQ9Im0gMzYuNzU0NSwxMC45OTYwNjEgaCAwLjYxIHYgNi40MSBoIC0wLjYxIHogbSAtMS4xNiwwIGggMC42MyB2IDYuNDEgaCAtMC42MyB6IG0gLTEuMTcsMCBoIDAuNjMgdiA2LjQxIGggLTAuNjMgeiBtIC0xLjE2LDAgaCAwLjYzIHYgNi40MSBoIC0wLjYzIHogbSAtMS4xNywwIGggMC42MyB2IDYuNDEgaCAtMC42MyB6IG0gLTEuMTQsMCBoIDAuNjEgdiA2LjQxIGggLTAuNjEgeiBtIC0wLjY0LC0wLjY0IGggNy42OSB2IDcuNjkgaCAtNy42OSB6IiBzdHlsZT0iZmlsbDojMDBhY2QzIiBpbmtzY2FwZTpjb25uZWN0b3ItY3VydmF0dXJlPSIwIiBpZD0icGF0aDc5MjMyIi8+JiN4YTs8cGF0aCBkPSJtIDM2Ljc1NDUsMTkuODY5MjMxIGggMC42MSB2IDYuNCBoIC0wLjYxIHogbSAtMS4xNiwwIGggMC42MyB2IDYuNCBoIC0wLjYzIHogbSAtMS4xNywwIGggMC42MyB2IDYuNCBoIC0wLjYzIHogbSAtMS4xNiwwIGggMC42MyB2IDYuNCBoIC0wLjYzIHogbSAtMS4xNywwIGggMC42MyB2IDYuNCBoIC0wLjYzIHogbSAtMS4xNCwwIGggMC42MSB2IDYuNCBoIC0wLjYxIHogbSAtMC42NCwtMC42NCBoIDcuNjkgdiA3LjY5IGggLTcuNjkgeiIgc3R5bGU9ImZpbGw6IzIwYzJlZiIgaW5rc2NhcGU6Y29ubmVjdG9yLWN1cnZhdHVyZT0iMCIgaWQ9InBhdGg3OTI0MCIvPiYjeGE7PHBhdGggZD0ibSA0NS42Mjg5LDE5Ljg2OTIzMSBoIDAuNjEgdiA2LjQgaCAtMC42MSB6IG0gLTEuMTYsMCBoIDAuNjMgdiA2LjQgaCAtMC42MyB6IG0gLTEuMTcsMCBoIDAuNjMgdiA2LjQgaCAtMC42MyB6IG0gLTEuMTYsMCBoIDAuNjMgdiA2LjQgaCAtMC42MyB6IG0gLTEuMTcsMCBoIDAuNjMgdiA2LjQgaCAtMC42MyB6IG0gLTEuMTQsMCBoIDAuNjEgdiA2LjQgaCAtMC42MSB6IG0gLTAuNjQsLTAuNjQgaCA3LjY5IHYgNy42OSBoIC03LjY5IHoiIHN0eWxlPSJmaWxsOiMwMGFjZDMiIGlua3NjYXBlOmNvbm5lY3Rvci1jdXJ2YXR1cmU9IjAiIGlkPSJwYXRoNzkyNDgiLz4mI3hhOzxwYXRoIGQ9Im0gNDUuNjI4OSwxMC45OTYwNjEgaCAwLjYxIHYgNi40MSBoIC0wLjYxIHogbSAtMS4xNiwwIGggMC42MyB2IDYuNDEgaCAtMC42MyB6IG0gLTEuMTcsMCBoIDAuNjMgdiA2LjQxIGggLTAuNjMgeiBtIC0xLjE2LDAgaCAwLjYzIHYgNi40MSBoIC0wLjYzIHogbSAtMS4xNywwIGggMC42MyB2IDYuNDEgaCAtMC42MyB6IG0gLTEuMTQsMCBoIDAuNjEgdiA2LjQxIGggLTAuNjEgeiBtIC0wLjY0LC0wLjY0IGggNy42OSB2IDcuNjkgaCAtNy42OSB6IiBzdHlsZT0iZmlsbDojMjBjMmVmIiBpbmtzY2FwZTpjb25uZWN0b3ItY3VydmF0dXJlPSIwIiBpZD0icGF0aDc5MjU2Ii8+JiN4YTs8cGF0aCBkPSJtIDU0LjUwMDgsMTkuODY5MjMxIGggMC42MSB2IDYuNCBoIC0wLjYxIHogbSAtMS4xNiwwIGggMC42MyB2IDYuNCBoIC0wLjYzIHogbSAtMS4xNywwIGggMC42MyB2IDYuNCBoIC0wLjYzIHogbSAtMS4xNiwwIGggMC42MyB2IDYuNCBoIC0wLjYzIHogbSAtMS4xNywwIGggMC42MyB2IDYuNCBoIC0wLjYzIHogbSAtMS4xNCwwIGggMC42MSB2IDYuNCBoIC0wLjYxIHogbSAtMC42NCwtMC42NCBoIDcuNjkgdiA3LjY5IGggLTcuNjkgeiIgc3R5bGU9ImZpbGw6IzIwYzJlZiIgaW5rc2NhcGU6Y29ubmVjdG9yLWN1cnZhdHVyZT0iMCIgaWQ9InBhdGg3OTI2NCIvPiYjeGE7PHBhdGggZD0ibSA1NC41MDA4LDEwLjk5NjA2MSBoIDAuNjEgdiA2LjQxIGggLTAuNjEgeiBtIC0xLjE2LDAgaCAwLjYzIHYgNi40MSBoIC0wLjYzIHogbSAtMS4xNywwIGggMC42MyB2IDYuNDEgaCAtMC42MyB6IG0gLTEuMTYsMCBoIDAuNjMgdiA2LjQxIGggLTAuNjMgeiBtIC0xLjE3LDAgaCAwLjYzIHYgNi40MSBoIC0wLjYzIHogbSAtMS4xNCwwIGggMC42MSB2IDYuNDEgaCAtMC42MSB6IG0gLTAuNjQsLTAuNjQgaCA3LjY5IHYgNy42OSBoIC03LjY5IHoiIHN0eWxlPSJmaWxsOiMwMGFjZDMiIGlua3NjYXBlOmNvbm5lY3Rvci1jdXJ2YXR1cmU9IjAiIGlkPSJwYXRoNzkyNzIiLz4mI3hhOzxwYXRoIGQ9Im0gNTQuNTAwOCwyLjEyMjkzMSBoIDAuNjEgdiA2LjQxIGggLTAuNjEgeiBtIC0xLjE2LDAgaCAwLjYzIHYgNi40MSBoIC0wLjYzIHogbSAtMS4xNywwIGggMC42MyB2IDYuNDEgaCAtMC42MyB6IG0gLTEuMTYsMCBoIDAuNjMgdiA2LjQxIGggLTAuNjMgeiBtIC0xLjE3LDAgaCAwLjYzIHYgNi40MSBoIC0wLjYzIHogbSAtMS4xNCwwIGggMC42MSB2IDYuNDEgaCAtMC42MSB6IG0gLTAuNjQsLTAuNjQgaCA3LjY5IHYgNy42OSBoIC03LjY5IHoiIHN0eWxlPSJmaWxsOiMyMGMyZWYiIGlua3NjYXBlOmNvbm5lY3Rvci1jdXJ2YXR1cmU9IjAiIGlkPSJwYXRoNzkyODAiLz4mI3hhOzxwYXRoIGQ9Im0gNjMuMzc0LDE5Ljg2OTIzMSBoIDAuNjEgdiA2LjQgaCAtMC42MSB6IG0gLTEuMTYsMCBoIDAuNjMgdiA2LjQgaCAtMC42MyB6IG0gLTEuMTcsMCBoIDAuNjMgdiA2LjQgaCAtMC42MyB6IG0gLTEuMTYsMCBoIDAuNjMgdiA2LjQgaCAtMC42MyB6IG0gLTEuMTcsMCBoIDAuNjMgdiA2LjQgaCAtMC42MyB6IG0gLTEuMTQsMCBoIDAuNjEgdiA2LjQgaCAtMC42MSB6IG0gLTAuNjQsLTAuNjQgaCA3LjY5IHYgNy42OSBoIC03LjY5IHoiIHN0eWxlPSJmaWxsOiMwMGFjZDMiIGlua3NjYXBlOmNvbm5lY3Rvci1jdXJ2YXR1cmU9IjAiIGlkPSJwYXRoNzkyODgiLz4mI3hhOyYjeGE7PHBhdGggaWQ9InBhdGg3OTI5NyIgaW5rc2NhcGU6Y29ubmVjdG9yLWN1cnZhdHVyZT0iMCIgc3R5bGU9ImZpbGw6I2Q0ZWRmMSIgZD0ibSAzNy41MiwzOS4zOCBjIDEuMTcsMCAyLjEyLDAuOTUgMi4xMiwyLjEyIDAsMS4xOCAtMC45NSwyLjEzIC0yLjEyLDIuMTMgLTEuMTcsMCAtMi4xMiwtMC45NSAtMi4xMiwtMi4xMyAwLC0xLjE3IDAuOTUsLTIuMTIgMi4xMiwtMi4xMiB6Ii8+JiN4YTsmI3hhOzxwYXRoIGlkPSJwYXRoNzkzMDUiIGlua3NjYXBlOmNvbm5lY3Rvci1jdXJ2YXR1cmU9IjAiIHN0eWxlPSJmaWxsOiMzOTRkNTQiIGQ9Im0gMzcuNTIsMzkuOTkgYyAwLjE5LDAgMC4zOCwwLjA0IDAuNTUsMC4xIC0wLjE5LDAuMTEgLTAuMzEsMC4zMSAtMC4zMSwwLjU0IDAsMC4zNCAwLjI4LDAuNjIgMC42MiwwLjYyIDAuMjMsMCAwLjQ0LC0wLjEzIDAuNTQsLTAuMzMgMC4wOCwwLjE4IDAuMTIsMC4zOCAwLjEyLDAuNTkgMCwwLjg0IC0wLjY4LDEuNTIgLTEuNTIsMS41MiAtMC44NCwwIC0xLjUyLC0wLjY4IC0xLjUyLC0xLjUyIDAsLTAuODQgMC42OCwtMS41MiAxLjUyLC0xLjUyIHoiLz4mI3hhOyYjeGE7PHBhdGggaWQ9InBhdGg3OTMxMyIgaW5rc2NhcGU6Y29ubmVjdG9yLWN1cnZhdHVyZT0iMCIgc3R5bGU9ImZpbGw6IzM5NGQ1NCIgZD0ibSAwLDM0Ljk5IGggNDYuNDcgNS43NSA0Ni40NyBjIC0yLjE1LC0wLjU1IC02LjgsLTEuMjggLTYuMDMsLTQuMSAtMy45MSw0LjUyIC0xMy4zMywzLjE3IC0xNS43MSwwLjk0IC0yLjY1LDMuODUgLTE4LjA3LDIuMzkgLTE5LjE0LC0wLjYxIC0zLjMyLDMuOSAtMTMuNjEsMy45IC0xNi45MywwIEMgMzkuOCwzNC4yMSAyNC4zOSwzNS42NyAyMS43NCwzMS44MyAxOS4zNiwzNC4wNiA5Ljk0LDM1LjQxIDYuMDMsMzAuODkgNi44LDMzLjcxIDIuMTUsMzQuNDQgMCwzNC45OSBaIi8+JiN4YTsmI3hhOzxwYXRoIGlkPSJwYXRoNzkzMjEiIGlua3NjYXBlOmNvbm5lY3Rvci1jdXJ2YXR1cmU9IjAiIHN0eWxlPSJmaWxsOiNiZmRiZTAiIGQ9Im0gNDMuMTcsNTQuNjcgYyAtNS4yNiwtMi40OSAtOC4xNCwtNS44OCAtOS43NSwtOS41OCAtMS45NSwwLjU1IC00LjI5LDAuOTEgLTcuMDIsMS4wNiAtMS4wMywwLjA2IC0yLjExLDAuMDkgLTMuMjQsMC4wOSAtMS4zMSwwIC0yLjY5LC0wLjA0IC00LjEzLC0wLjEyIDQuODIsNC44MiAxMC43NSw4LjUzIDIxLjcyLDguNTkgMC44MSwwLjAxIDEuNjIsLTAuMDEgMi40MiwtMC4wNCB6Ii8+JiN4YTsmI3hhOzxwYXRoIGlkPSJwYXRoNzkzMjkiIGlua3NjYXBlOmNvbm5lY3Rvci1jdXJ2YXR1cmU9IjAiIHN0eWxlPSJmaWxsOiNkNGVkZjEiIGQ9Im0gMzUuMzcsNDguNTEgYyAtMC43MiwtMC45OSAtMS40MywtMi4yMyAtMS45NCwtMy40MiAtMS45NiwwLjU2IC00LjMsMC45MiAtNy4wMywxLjA3IDEuODcsMS4wMiA0LjU1LDEuOTYgOC45NywyLjM1IHoiLz4mI3hhOzwvc3ZnPg==;" vertex="1" parent="1">
          <mxGeometry x="189.48" y="659.0899999999999" width="61.81" height="51.82" as="geometry" />
        </mxCell>
        <mxCell id="BwXOe6zrHSaQDzwSpbx--107" value="&lt;font color=&quot;#ffffff&quot;&gt;Ansible&lt;/font&gt;" style="text;strokeColor=none;align=center;fillColor=none;html=1;verticalAlign=middle;whiteSpace=wrap;rounded=0;" vertex="1" parent="1">
          <mxGeometry x="191.29" y="705.59" width="60" height="30" as="geometry" />
        </mxCell>
        <mxCell id="BwXOe6zrHSaQDzwSpbx--116" value="" style="shape=image;verticalLabelPosition=bottom;labelBackgroundColor=#ffffff;verticalAlign=top;aspect=fixed;imageAspect=0;image=data:image/svg+xml,PHN2ZyB4bWxuczpkYz0iaHR0cDovL3B1cmwub3JnL2RjL2VsZW1lbnRzLzEuMS8iIHhtbG5zOmNjPSJodHRwOi8vY3JlYXRpdmVjb21tb25zLm9yZy9ucyMiIHhtbG5zOnJkZj0iaHR0cDovL3d3dy53My5vcmcvMTk5OS8wMi8yMi1yZGYtc3ludGF4LW5zIyIgeG1sbnM6c3ZnPSJodHRwOi8vd3d3LnczLm9yZy8yMDAwL3N2ZyIgeG1sbnM9Imh0dHA6Ly93d3cudzMub3JnLzIwMDAvc3ZnIiB4bWxuczpzb2RpcG9kaT0iaHR0cDovL3NvZGlwb2RpLnNvdXJjZWZvcmdlLm5ldC9EVEQvc29kaXBvZGktMC5kdGQiIHhtbG5zOmlua3NjYXBlPSJodHRwOi8vd3d3Lmlua3NjYXBlLm9yZy9uYW1lc3BhY2VzL2lua3NjYXBlIiB2ZXJzaW9uPSIxLjEiIGlkPSJzdmc3OTMzNSIgaW5rc2NhcGU6dmVyc2lvbj0iMC45Mi4zICgyNDA1NTQ2LCAyMDE4LTAzLTExKSIgc29kaXBvZGk6ZG9jbmFtZT0iZG9ja2VyLnN2ZyIgeD0iMHB4IiB5PSIwcHgiIHZpZXdCb3g9IjAgMCA5OS4yMiA4My4yMzk4NCIgeG1sOnNwYWNlPSJwcmVzZXJ2ZSIgd2lkdGg9Ijk5LjIyMDAwMSIgaGVpZ2h0PSI4My4yMzk4MzgiPjxtZXRhZGF0YSBpZD0ibWV0YWRhdGExMTIxIj48cmRmOlJERj48Y2M6V29yayByZGY6YWJvdXQ9IiI+PGRjOmZvcm1hdD5pbWFnZS9zdmcreG1sPC9kYzpmb3JtYXQ+PGRjOnR5cGUgcmRmOnJlc291cmNlPSJodHRwOi8vcHVybC5vcmcvZGMvZGNtaXR5cGUvU3RpbGxJbWFnZSIvPjxkYzp0aXRsZS8+PC9jYzpXb3JrPjwvcmRmOlJERj48L21ldGFkYXRhPjxkZWZzIGlkPSJkZWZzMTExOSI+JiN4YTsJJiN4YTsmI3hhOwkmI3hhOyYjeGE7CSYjeGE7CSYjeGE7CSYjeGE7JiN4YTsJJiN4YTsJJiN4YTsJJiN4YTsmI3hhOwkmI3hhOwkmI3hhOwkmI3hhOyYjeGE7CSYjeGE7CSYjeGE7CSYjeGE7JiN4YTsJJiN4YTsmI3hhOwkmI3hhOwkmI3hhOwkmI3hhOyYjeGE7CSYjeGE7CSYjeGE7CSYjeGE7JiN4YTsJJiN4YTsJJiN4YTsJJiN4YTsmI3hhOwkmI3hhOwkmI3hhOwkmI3hhOyYjeGE7CSYjeGE7CSYjeGE7CSYjeGE7JiN4YTsJJiN4YTsJJiN4YTsJJiN4YTsmI3hhOwkmI3hhOwkmI3hhOwkmI3hhOyYjeGE7CSYjeGE7CSYjeGE7CSYjeGE7JiN4YTsJJiN4YTsJJiN4YTsJJiN4YTsmI3hhOwkmI3hhOyYjeGE7CSYjeGE7JiN4YTsJJiN4YTsmI3hhOwkmI3hhOyYjeGE7CSYjeGE7JiN4YTsJCSYjeGE7CSYjeGE7CQkmI3hhOwkmI3hhOwkJJiN4YTsJJiN4YTsJCSYjeGE7CSYjeGE7CQkmI3hhOwkmI3hhOwkJJiN4YTsJJiN4YTsJCSYjeGE7CSYjeGE7CQkmI3hhOwkmI3hhOwkJJiN4YTsJJiN4YTsJCSYjeGE7CSYjeGE7CQkmI3hhOwkmI3hhOwkJJiN4YTsJJiN4YTsJCSYjeGE7CSYjeGE7CQkmI3hhOwkmI3hhOwkJJiN4YTsJJiN4YTsJCSYjeGE7CSYjeGE7CQkmI3hhOwkmI3hhOwkJJiN4YTsJJiN4YTsJCSYjeGE7CSYjeGE7CQkmI3hhOwkmI3hhOwkJCSYjeGE7CQkmI3hhOwkJCSYjeGE7CQkmI3hhOwkJCSYjeGE7CQkmI3hhOwkJCSYjeGE7CQk8L2RlZnM+JiN4YTs8ZmlsdGVyIGlkPSJmaWx0ZXJfMiI+JiN4YTsJPGZlR2F1c3NpYW5CbHVyIGlkPSJmZUdhdXNzaWFuQmx1cjc5MTUwIiBzdGREZXZpYXRpb249IjIiLz4mI3hhOzwvZmlsdGVyPiYjeGE7PHNvZGlwb2RpOm5hbWVkdmlldyBib3JkZXJjb2xvcj0iIzY2NjY2NiIgYm9yZGVyb3BhY2l0eT0iMSIgZml0LW1hcmdpbi1ib3R0b209IjAiIGZpdC1tYXJnaW4tbGVmdD0iMCIgZml0LW1hcmdpbi1yaWdodD0iMCIgZml0LW1hcmdpbi10b3A9IjAiIGdyaWR0b2xlcmFuY2U9IjEwIiBndWlkZXRvbGVyYW5jZT0iMTAiIGlkPSJuYW1lZHZpZXc3OTMzNyIgaW5rc2NhcGU6Y3VycmVudC1sYXllcj0ic3ZnNzkzMzUiIGlua3NjYXBlOmN4PSItMjQuMjM0MzIxIiBpbmtzY2FwZTpjeT0iNTUuNzcxNTY5IiBpbmtzY2FwZTpwYWdlb3BhY2l0eT0iMCIgaW5rc2NhcGU6cGFnZXNoYWRvdz0iMiIgaW5rc2NhcGU6d2luZG93LWhlaWdodD0iMTAxNyIgaW5rc2NhcGU6d2luZG93LW1heGltaXplZD0iMSIgaW5rc2NhcGU6d2luZG93LXdpZHRoPSIxOTIwIiBpbmtzY2FwZTp3aW5kb3cteD0iLTgiIGlua3NjYXBlOndpbmRvdy15PSItOCIgaW5rc2NhcGU6em9vbT0iMy4yOTk1NDQ5IiBvYmplY3R0b2xlcmFuY2U9IjEwIiBwYWdlY29sb3I9IiNmZmZmZmYiIHNob3dncmlkPSJmYWxzZSI+JiN4YTsJPC9zb2RpcG9kaTpuYW1lZHZpZXc+JiN4YTsmI3hhOzxwYXRoIGlkPSJwYXRoNzkxNjMiIGlua3NjYXBlOmNvbm5lY3Rvci1jdXJ2YXR1cmU9IjAiIHN0eWxlPSJmaWxsOiMzZjU3NjUiIGQ9Im0gNzMuNDYsNzggYyAyLjIzLC0xLjkxIDQuNDYsLTMuODMgNi42OSwtNS43NSAwLjc2LC0wLjY2IDEuNTksLTEuMzQgMi4zNSwtMi4wMyAtMC42MSwtMC43NiAtMS42MiwtMS4zMSAtMi40OCwtMS42NCAtMS43MywtMC42NiAtMy40NCwtMC40NCAtNS4wMywwLjQ4IC0yLjA5LDEuMiAtMi45NywzLjEyIC0yLjg5LDUuNSAwLjAzLDAuOTQgMC4yOCwxLjg0IDAuNzgsMi42NCAwLjE3LDAuMjggMC4zNywwLjU1IDAuNTgsMC44IHogbSAyLjU4LDEuODEgYyAxLjEsMC4zOCAyLjM0LDAuMzMgMy40NywwLjE0IDAuNTcsLTAuMjUgMi4wNCwtMC44OSAyLjU4LC0wLjggbCAwLjA4LDAuMDIgMC4wOCwwLjA0IGMgMC4zMywwLjE2IDAuNjQsMC4zOCAwLjgxLDAuNzIgMC40LDAuNzkgMC4yMSwxLjU3IC0wLjU3LDIuMDIgbCAtMC4yNSwwLjE1IGMgLTIuODUsMS42NSAtNS44OSwxLjQyIC04LjczLC0wLjEyIC0xLjM2LC0wLjczIC0yLjQsLTEuODIgLTMuMTcsLTMuMTYgbCAtMC4xOCwtMC4zMSBjIC0xLjgzLC0zLjE3IC0xLjU4LC02LjUgMC40OCwtOS41MiAwLjcyLC0xLjA0IDEuNjUsLTEuODUgMi43NCwtMi40OCBsIDAuNDEsLTAuMjMgYyAyLjY5LC0xLjU1IDUuNTcsLTEuNDUgOC4zMywtMC4wOSAxLjQ4LDAuNzMgMi42OCwxLjgzIDMuNTEsMy4yNiBsIDAuMTUsMC4yNiBjIDAuNiwxLjA0IC0wLjE4LDEuOTUgLTAuOTgsMi41NyAtMC45NCwwLjcyIC0xLjg4LDEuNTkgLTIuNzgsMi4zNiAtMS45OSwxLjcyIC0zLjk4LDMuNDUgLTUuOTgsNS4xNyB6IE0gOTcuNDEsNjUuMzkgaCAwLjMgYyAwLjksMCAxLjUxLDAuNjEgMS41MSwxLjUgMCwxLjI1IC0xLjIsMS41NyAtMi4yMiwxLjU3IC0xLjM2LDAgLTIuNjQsMC44MSAtMy41NywxLjczIC0xLjE3LDEuMTUgLTEuNjcsMi42MSAtMS42Nyw0LjIyIHYgNy4yOCBjIDAsMC44MyAtMC41MiwxLjUxIC0xLjM5LDEuNTEgaCAtMC4yNCBjIC0wLjg2LDAgLTEuMzgsLTAuNjggLTEuMzgsLTEuNTEgdiAtNy43IGMgMCwtMi45NSAxLjQ0LC01LjM2IDMuODQsLTcuMDYgMS40MywtMS4wMSAzLjA3LC0xLjU0IDQuODIsLTEuNTQgeiBtIC0zNy40Nyw1LjE2IGMgMS4xNiwtMS4xNyAyLjM0LC0yLjMzIDMuNTIsLTMuNDggMC4zMywtMC4zMiAxLjU4LC0xLjY4IDIuMDgsLTEuNjggaCAwLjUzIGwgMC4wNiwwLjAxIGMgMC42OSwwLjE0IDEuMiwwLjU4IDEuMiwxLjMxIHYgMC4zIGMgMCwwLjUgLTAuNTksMS4wOSAtMC45MSwxLjQzIC0wLjY5LDAuNzQgLTEuNDIsMS40NCAtMi4xMywyLjE2IGwgLTMuNjMsMy42OSBjIDEuNTcsMS41NiAzLjEzLDMuMTMgNC42OCw0LjcxIDAuNDMsMC40NCAwLjg2LDAuODggMS4yOCwxLjMyIDAuMTUsMC4xNiAwLjM3LDAuMzUgMC41LDAuNTcgMC4xMywwLjIxIDAuMjEsMC40NCAwLjIxLDAuNjggdiAwLjMxIGwgLTAuMDEsMC4wNyBjIC0wLjE3LDAuNjkgLTAuNjEsMS4yNCAtMS4zNywxLjI0IGggLTAuMjQgYyAtMC41LDAgLTEuMDYsLTAuNTYgLTEuNCwtMC44OCAtMC43LC0wLjY2IC0xLjM4LC0xLjM2IC0yLjA3LC0yLjAzIGwgLTIuMzEsLTIuMjcgdiAzLjYyIGMgMCwwLjg0IC0wLjUyLDEuNTEgLTEuMzgsMS41MSBoIC0wLjI0IGMgLTAuODYsMCAtMS4zOCwtMC42NyAtMS4zOCwtMS41MSBWIDYxLjIyIGMgMCwtMC44MyAwLjUyLC0xLjUgMS4zOCwtMS41IGggMC4yNCBjIDAuODYsMCAxLjM4LDAuNjcgMS4zOCwxLjUgdiA5LjMzIHogbSAtOS43NSwtMi4wMyBjIC0wLjQ2LC0wLjIxIC0xLjMxLC0wLjI5IC0xLjgsLTAuMyAtMi41MSwtMC4xIC00LjMzLDEuMzIgLTUuNCwzLjUzIC0wLjM2LDAuNzcgLTAuNTMsMS41OCAtMC41MywyLjQyIDAsMi41OCAxLjM1LDQuMzggMy42NSw1LjQ4IDAuODQsMC40IDEuOTIsMC40OCAyLjg0LDAuNDggMC44MSwwIDEuOTUsLTAuNSAyLjY2LC0wLjg0IGwgMC4xMywtMC4wNiBoIDAuNTYgbCAwLjA2LDAuMDIgYyAwLjY4LDAuMTQgMS4yLDAuNTcgMS4yLDEuMzEgdiAwLjMgYyAwLDEuODMgLTMuMzUsMi4yNSAtNC42MywyLjM0IC00LjUsMC4zMSAtNy44NywtMi4xNyAtOS4xNSwtNi40NiAtMC4yMywtMC43NSAtMC4zMywtMS40OSAtMC4zMywtMi4yNyB2IC0wLjYgYyAwLC0zLjI2IDEuNjIsLTUuODQgNC40MiwtNy41IDEuMywtMC43NyAyLjczLC0xLjE2IDQuMjUsLTEuMTYgaCAwLjU5IGMgMS42LDAgMy4wOCwwLjQ1IDQuNCwxLjM2IGwgMC4xMSwwLjA3IDAuMDcsMC4xMiBjIDAuMTQsMC4yMyAwLjI3LDAuNTEgMC4yNywwLjc5IHYgMC4zIGMgMCwwLjc2IC0wLjU4LDEuMTggLTEuMjcsMS4zMSBsIC0wLjA2LDAuMDEgaCAtMC4xOCBjIC0wLjQ1LDAgLTEuNDYsLTAuNDYgLTEuODYsLTAuNjUgeiBtIC0yNy40Miw1LjcxIGMgMCwyLjI5IDEuMTIsMy45NyAzLjA1LDUuMTUgMC45MSwwLjU2IDEuOSwwLjgxIDIuOTYsMC44MSAyLjI2LDAgMy45MywtMS4xNSA1LjA5LC0zLjA1IDAuNTYsLTAuOTEgMC44MSwtMS45MSAwLjgxLC0yLjk3IDAsLTIuMTIgLTEuMDMsLTMuNzUgLTIuNzgsLTQuOTIgLTAuOTYsLTAuNjUgLTIuMDIsLTAuOTcgLTMuMTgsLTAuOTcgLTIuNTIsMCAtNC4zMywxLjI3IC01LjQyLDMuNTMgLTAuMzcsMC43NiAtMC41MywxLjU4IC0wLjUzLDIuNDIgeiBtIDUuNjUsLTguOTYgaCAwLjQyIGMgMy40OSwwIDYuMTQsMS42OSA3LjgxLDQuNzMgMC42OCwxLjIyIDEuMDMsMi41NCAxLjAzLDMuOTQgdiAwLjU5IGMgMCwzLjI2IC0xLjYsNS44NiAtNC40MSw3LjUxIC0xLjMsMC43NiAtMi43NCwxLjE1IC00LjI1LDEuMTUgaCAtMC42IGMgLTMuMjYsMCAtNS44NSwtMS42MSAtNy41LC00LjQxIC0wLjc3LC0xLjMgLTEuMTYsLTIuNzQgLTEuMTYsLTQuMjUgdiAtMC41OSBjIDAsLTMuMjcgMS42MiwtNS44NSA0LjQxLC03LjUxIDEuMzEsLTAuNzcgMi43NCwtMS4xNiA0LjI1LC0xLjE2IHogTSAzLjA4LDc0LjIzIGMgMCwyLjM2IDEuMTQsNC4xMyAzLjIsNS4yNiAwLjg0LDAuNDUgMS43NCwwLjcgMi42OSwwLjcgMi4zMSwwIDQuMDMsLTEuMDkgNS4yMSwtMy4wNSAwLjU1LC0wLjkxIDAuODEsLTEuOTEgMC44MSwtMi45NyAwLC0yLjA0IC0wLjk3LC0zLjYzIC0yLjYyLC00LjgyIC0wLjk5LC0wLjcxIC0yLjEyLC0xLjA3IC0zLjM0LC0xLjA3IC0yLjUyLDAgLTQuMzMsMS4yNyAtNS40MiwzLjUzIC0wLjM3LDAuNzYgLTAuNTMsMS41OCAtMC41MywyLjQyIHogbSAxMS45MSwtNi43MiB2IC02LjM1IGMgMCwtMC44MyAwLjUyLC0xLjUgMS4zOCwtMS41IGggMC4yNCBjIDAuODcsMCAxLjM4LDAuNjcgMS4zOCwxLjUgdiAxMy4zNyBjIDAsMy4yNiAtMS42MSw1Ljg1IC00LjQxLDcuNTEgLTEuMywwLjc2IC0yLjc0LDEuMTYgLTQuMjUsMS4xNiBIIDguNzMgQyA1LjQ3LDgzLjIgMi44OCw4MS41OCAxLjIzLDc4Ljc4IDAuNDYsNzcuNDggMC4wNyw3Ni4wNCAwLjA3LDc0LjUzIHYgLTAuNTkgYyAwLC0zLjI2IDEuNjEsLTUuODYgNC40MSwtNy41MSAxLjMxLC0wLjc3IDIuNzQsLTEuMTYgNC4yNSwtMS4xNiBoIDAuNiBjIDIuMjEsMCA0LjA4LDAuODUgNS42NiwyLjI0IHoiLz4mI3hhOyYjeGE7PHBhdGggaWQ9InBhdGg3OTE3MSIgaW5rc2NhcGU6Y29ubmVjdG9yLWN1cnZhdHVyZT0iMCIgc3R5bGU9ImZpbGw6IzM5NGQ1NCIgZD0ibSA1Ny4yMywxNy43NSBoIDguODcgdiA5LjA3IGggNC40OSBjIDIuMDcsMCA0LjIsLTAuMzcgNi4xNiwtMS4wNCAwLjk2LC0wLjMyIDIuMDUsLTAuNzggMywtMS4zNSAtMS4yNiwtMS42NCAtMS44OSwtMy43IC0yLjA4LC01Ljc0IC0wLjI2LC0yLjc2IDAuMywtNi4zNyAyLjE3LC04LjUzIGwgMC45NCwtMS4wOCAxLjExLDAuODkgYyAyLjgsMi4yNSA1LjE1LDUuMzkgNS41Niw4Ljk3IDMuMzcsLTAuOTkgNy4zMywtMC43NiAxMC4zLDAuOTYgbCAxLjIyLDAuNyAtMC42NCwxLjI1IEMgOTUuODEsMjYuNzYgOTAuNTYsMjguMjcgODUuNDMsMjggNzcuNzUsNDcuMTQgNjEuMDIsNTYuMiA0MC43NSw1Ni4yIDMwLjI3LDU2LjIgMjAuNjYsNTIuMjggMTUuMTgsNDIuOTggTCAxNS4wOSw0Mi44MyAxNC4zLDQxLjIxIEMgMTIuNDUsMzcuMTIgMTEuODMsMzIuNjQgMTIuMjUsMjguMTYgbCAwLjEyLC0xLjM0IGggNy41OSB2IC05LjA3IGggOC44NyBWIDguODcgSCA0Ni41OCBWIDAgaCAxMC42NCB6Ii8+JiN4YTs8cGF0aCBkPSJtIDg1Ljk4MDMsMjEuMTAwMzMxIGMgMC41OSwtNC42MiAtMi44NywtOC4yNSAtNS4wMiwtOS45OCAtMi40NywyLjg2IC0yLjg1LDEwLjM1IDEuMDMsMTMuNTEgLTIuMTcsMS45MiAtNi43MywzLjY2IC0xMS40LDMuNjYgaCAtNTYuODcgYyAtMC40NSw0Ljg4IDAuNDEsOS4zNyAyLjM2LDEzLjIyIGwgMC42NSwxLjE4IGMgMC40MSwwLjY5IDAuODYsMS4zNiAxLjM0LDIuMDEgdiAwIGMgMi4zNCwwLjE1IDQuNDksMC4yIDYuNDYsMC4xNiAwLDAgMCwwIDAuMDEsMCAzLjg3LC0wLjA5IDcuMDMsLTAuNTQgOS40MywtMS4zNyAwLjM2LC0wLjEzIDAuNzUsMC4wNiAwLjg3LDAuNDIgMC4xMiwwLjM1IC0wLjA3LDAuNzQgLTAuNDIsMC44NyAtMC4zMiwwLjExIC0wLjY1LDAuMjEgLTEsMC4zMSB2IDAgYyAtMS44OSwwLjU0IC0zLjkxLDAuOSAtNi41MiwxLjA2IDAuMTYsMCAtMC4xNiwwLjAyIC0wLjE2LDAuMDIgLTAuMDksMC4wMSAtMC4yLDAuMDIgLTAuMjksMC4wMyAtMS4wMywwLjA1IC0yLjE0LDAuMDcgLTMuMjcsMC4wNyAtMS4yNCwwIC0yLjQ2LC0wLjAzIC0zLjgzLC0wLjEgbCAtMC4wMywwLjAzIGMgNC43Myw1LjMyIDEyLjE0LDguNTIgMjEuNDMsOC41MiAxOS42NSwwIDM2LjMyLC04LjcyIDQzLjcsLTI4LjI4IDUuMjQsMC41NCAxMC4yNywtMC43OSAxMi41NiwtNS4yNiAtMy42NCwtMi4xMSAtOC4zMywtMS40NCAtMTEuMDMsLTAuMDggeiIgc3R5bGU9ImZpbGw6IzAwYWFkYSIgaW5rc2NhcGU6Y29ubmVjdG9yLWN1cnZhdHVyZT0iMCIgaWQ9InBhdGg3OTE4MSIvPiYjeGE7PHBhdGggZD0ibSA4NS45Nzk3NiwyMS4xMDI3MjEgYyAwLjU5LC00LjYzIC0yLjg3LC04LjI2IC01LjAxLC05Ljk4IC0yLjQ4LDIuODYgLTIuODYsMTAuMzUgMS4wMiwxMy41MSAtMi4xNywxLjkyIC02LjczLDMuNjYgLTExLjQsMy42NiBoIC01My41IGMgLTAuMjMsNy40NyAyLjU0LDEzLjE0IDcuNDQsMTYuNTcgMCwwIDAsMCAwLjAxLDAgMy44NywtMC4wOSA3LjAzLC0wLjU1IDkuNDMsLTEuMzggMC4zNiwtMC4xMiAwLjc1LDAuMDcgMC44NywwLjQzIDAuMTIsMC4zNSAtMC4wNywwLjc0IC0wLjQyLDAuODYgLTAuMzIsMC4xMiAtMC42NSwwLjIyIC0xLDAuMzIgdiAwIGMgLTEuODksMC41MyAtNC4wOCwwLjk0IC02LjY5LDEuMTEgMCwwIC0wLjA3LC0wLjA3IC0wLjA3LC0wLjA2IDYuNjksMy40MyAxNi4zOSwzLjQxIDI3LjUxLC0wLjg2IDEyLjQ3LC00Ljc5IDI0LjA3LC0xMy45MSAzMi4xNiwtMjQuMzUgLTAuMTIsMC4wNSAtMC4yNCwwLjExIC0wLjM1LDAuMTcgeiIgc3R5bGU9ImZpbGw6IzI0YjhlYiIgaW5rc2NhcGU6Y29ubmVjdG9yLWN1cnZhdHVyZT0iMCIgaWQ9InBhdGg3OTE4OSIvPiYjeGE7PHBhdGggZD0ibSAxMy44MzEyMywzNC4yMjAzMzEgYyAwLjM1LDIuNjEgMS4xMiw1LjA2IDIuMjUsNy4yOCBsIDAuNjUsMS4xOSBjIDAuNDEsMC42OSAwLjg1LDEuMzYgMS4zNCwyLjAxIDIuMzQsMC4xNSA0LjQ5LDAuMiA2LjQ2LDAuMTYgMy44OCwtMC4wOSA3LjA0LC0wLjU0IDkuNDQsLTEuMzggMC4zNiwtMC4xMiAwLjc0LDAuMDcgMC44NywwLjQzIDAuMTIsMC4zNSAtMC4wNywwLjc0IC0wLjQyLDAuODcgLTAuMzIsMC4xMSAtMC42NiwwLjIxIC0xLDAuMzEgdiAwIGMgLTEuODksMC41NCAtNC4wNywwLjkyIC02LjY4LDEuMDggLTAuMDksMC4wMSAtMC4yNSwwLjAxIC0wLjM0LDAuMDIgLTEuMDIsMC4wNSAtMi4xMiwwLjA5IC0zLjI2LDAuMDkgLTEuMjQsMCAtMi41MSwtMC4wMiAtMy44NywtMC4wOSA0Ljc0LDUuMzIgMTIuMTksOC41MyAyMS40OCw4LjUzIDE2LjgyLDAgMzEuNDYsLTYuMzkgMzkuOTYsLTIwLjUgeiIgc3R5bGU9ImZpbGw6IzAwOGJiOCIgaW5rc2NhcGU6Y29ubmVjdG9yLWN1cnZhdHVyZT0iMCIgaWQ9InBhdGg3OTE5NyIvPiYjeGE7PHBhdGggZD0ibSAxNy42MDM4NiwzNC4yMTgzNDEgYyAxLjAxLDQuNTkgMy40Miw4LjE5IDYuOTMsMTAuNjQgMy44OCwtMC4wOCA3LjA0LC0wLjU0IDkuNDQsLTEuMzcgMC4zNSwtMC4xMyAwLjc0LDAuMDYgMC44NywwLjQyIDAuMTIsMC4zNiAtMC4wNywwLjc0IC0wLjQzLDAuODcgLTAuMzIsMC4xMSAtMC42NSwwLjIxIC0wLjk5LDAuMzEgdiAwIGMgLTEuODksMC41NCAtNC4xMiwwLjkyIC02LjczLDEuMDkgNi42OSwzLjQzIDE2LjM2LDMuMzggMjcuNDcsLTAuODkgNi43MywtMi41OSAxMy4yLC02LjQzIDE5LjAxLC0xMS4wNyB6IiBzdHlsZT0iZmlsbDojMDM5YmM2IiBpbmtzY2FwZTpjb25uZWN0b3ItY3VydmF0dXJlPSIwIiBpZD0icGF0aDc5MjA1Ii8+JiN4YTsmI3hhOzxwYXRoIGlkPSJwYXRoNzkyMTQiIGlua3NjYXBlOmNvbm5lY3Rvci1jdXJ2YXR1cmU9IjAiIHN0eWxlPSJmaWxsOiMzOTRkNTQiIGQ9Im0gMjMuMTYsNDYuMjUgYyAxLjEzLDAgMi4yMSwtMC4wMyAzLjI0LC0wLjA5IDAuMDksLTAuMDEgMC4xNywtMC4wMSAwLjI2LC0wLjAyIDAuMDEsMCAwLjAxLDAgMC4wMSwwIDIuNjEsLTAuMTYgNC44NywtMC41MSA2Ljc1LC0xLjA1IHYgMCBjIDAuMzUsLTAuMDkgMC42OCwtMC4yIDEsLTAuMzEgMC4zNSwtMC4xMiAwLjU0LC0wLjUxIDAuNDIsLTAuODcgLTAuMTIsLTAuMzUgLTAuNTEsLTAuNTQgLTAuODcsLTAuNDIgLTIuNCwwLjgzIC01LjU2LDEuMjkgLTkuNDMsMS4zNyB2IDAgYyAtMS45OCwwLjA1IC00LjEzLDAgLTYuNDcsLTAuMTUgdiAwIGMgLTAuMTIsLTAuMDEgLTAuMjQsLTAuMDIgLTAuMzYsLTAuMDMgLTAuMzcsLTAuMDIgLTAuNywwLjI2IC0wLjcyLDAuNjQgLTAuMDMsMC4zNyAwLjI1LDAuNyAwLjYzLDAuNzMgMC40OCwwLjAzIDAuOTUsMC4wNiAxLjQxLDAuMDggMC4wNywwIDAuMTQsMC4wMSAwLjIyLDAuMDEgMS4zNiwwLjA3IDIuNjcsMC4xMSAzLjkxLDAuMTEgeiIvPiYjeGE7PHBhdGggZD0ibSAyNy44ODI2LDE5Ljg2OTIzMSBoIDAuNjEgdiA2LjQgaCAtMC42MSB6IG0gLTEuMTYsMCBoIDAuNjMgdiA2LjQgaCAtMC42MyB6IG0gLTEuMTcsMCBoIDAuNjMgdiA2LjQgaCAtMC42MyB6IG0gLTEuMTYsMCBoIDAuNjMgdiA2LjQgaCAtMC42MyB6IG0gLTEuMTcsMCBoIDAuNjMgdiA2LjQgaCAtMC42MyB6IG0gLTEuMTQsMCBoIDAuNjEgdiA2LjQgaCAtMC42MSB6IG0gLTAuNjQsLTAuNjQgaCA3LjY5IHYgNy42OSBoIC03LjY5IHoiIHN0eWxlPSJmaWxsOiMwMGFjZDMiIGlua3NjYXBlOmNvbm5lY3Rvci1jdXJ2YXR1cmU9IjAiIGlkPSJwYXRoNzkyMjQiLz4mI3hhOzxwYXRoIGQ9Im0gMzYuNzU0NSwxMC45OTYwNjEgaCAwLjYxIHYgNi40MSBoIC0wLjYxIHogbSAtMS4xNiwwIGggMC42MyB2IDYuNDEgaCAtMC42MyB6IG0gLTEuMTcsMCBoIDAuNjMgdiA2LjQxIGggLTAuNjMgeiBtIC0xLjE2LDAgaCAwLjYzIHYgNi40MSBoIC0wLjYzIHogbSAtMS4xNywwIGggMC42MyB2IDYuNDEgaCAtMC42MyB6IG0gLTEuMTQsMCBoIDAuNjEgdiA2LjQxIGggLTAuNjEgeiBtIC0wLjY0LC0wLjY0IGggNy42OSB2IDcuNjkgaCAtNy42OSB6IiBzdHlsZT0iZmlsbDojMDBhY2QzIiBpbmtzY2FwZTpjb25uZWN0b3ItY3VydmF0dXJlPSIwIiBpZD0icGF0aDc5MjMyIi8+JiN4YTs8cGF0aCBkPSJtIDM2Ljc1NDUsMTkuODY5MjMxIGggMC42MSB2IDYuNCBoIC0wLjYxIHogbSAtMS4xNiwwIGggMC42MyB2IDYuNCBoIC0wLjYzIHogbSAtMS4xNywwIGggMC42MyB2IDYuNCBoIC0wLjYzIHogbSAtMS4xNiwwIGggMC42MyB2IDYuNCBoIC0wLjYzIHogbSAtMS4xNywwIGggMC42MyB2IDYuNCBoIC0wLjYzIHogbSAtMS4xNCwwIGggMC42MSB2IDYuNCBoIC0wLjYxIHogbSAtMC42NCwtMC42NCBoIDcuNjkgdiA3LjY5IGggLTcuNjkgeiIgc3R5bGU9ImZpbGw6IzIwYzJlZiIgaW5rc2NhcGU6Y29ubmVjdG9yLWN1cnZhdHVyZT0iMCIgaWQ9InBhdGg3OTI0MCIvPiYjeGE7PHBhdGggZD0ibSA0NS42Mjg5LDE5Ljg2OTIzMSBoIDAuNjEgdiA2LjQgaCAtMC42MSB6IG0gLTEuMTYsMCBoIDAuNjMgdiA2LjQgaCAtMC42MyB6IG0gLTEuMTcsMCBoIDAuNjMgdiA2LjQgaCAtMC42MyB6IG0gLTEuMTYsMCBoIDAuNjMgdiA2LjQgaCAtMC42MyB6IG0gLTEuMTcsMCBoIDAuNjMgdiA2LjQgaCAtMC42MyB6IG0gLTEuMTQsMCBoIDAuNjEgdiA2LjQgaCAtMC42MSB6IG0gLTAuNjQsLTAuNjQgaCA3LjY5IHYgNy42OSBoIC03LjY5IHoiIHN0eWxlPSJmaWxsOiMwMGFjZDMiIGlua3NjYXBlOmNvbm5lY3Rvci1jdXJ2YXR1cmU9IjAiIGlkPSJwYXRoNzkyNDgiLz4mI3hhOzxwYXRoIGQ9Im0gNDUuNjI4OSwxMC45OTYwNjEgaCAwLjYxIHYgNi40MSBoIC0wLjYxIHogbSAtMS4xNiwwIGggMC42MyB2IDYuNDEgaCAtMC42MyB6IG0gLTEuMTcsMCBoIDAuNjMgdiA2LjQxIGggLTAuNjMgeiBtIC0xLjE2LDAgaCAwLjYzIHYgNi40MSBoIC0wLjYzIHogbSAtMS4xNywwIGggMC42MyB2IDYuNDEgaCAtMC42MyB6IG0gLTEuMTQsMCBoIDAuNjEgdiA2LjQxIGggLTAuNjEgeiBtIC0wLjY0LC0wLjY0IGggNy42OSB2IDcuNjkgaCAtNy42OSB6IiBzdHlsZT0iZmlsbDojMjBjMmVmIiBpbmtzY2FwZTpjb25uZWN0b3ItY3VydmF0dXJlPSIwIiBpZD0icGF0aDc5MjU2Ii8+JiN4YTs8cGF0aCBkPSJtIDU0LjUwMDgsMTkuODY5MjMxIGggMC42MSB2IDYuNCBoIC0wLjYxIHogbSAtMS4xNiwwIGggMC42MyB2IDYuNCBoIC0wLjYzIHogbSAtMS4xNywwIGggMC42MyB2IDYuNCBoIC0wLjYzIHogbSAtMS4xNiwwIGggMC42MyB2IDYuNCBoIC0wLjYzIHogbSAtMS4xNywwIGggMC42MyB2IDYuNCBoIC0wLjYzIHogbSAtMS4xNCwwIGggMC42MSB2IDYuNCBoIC0wLjYxIHogbSAtMC42NCwtMC42NCBoIDcuNjkgdiA3LjY5IGggLTcuNjkgeiIgc3R5bGU9ImZpbGw6IzIwYzJlZiIgaW5rc2NhcGU6Y29ubmVjdG9yLWN1cnZhdHVyZT0iMCIgaWQ9InBhdGg3OTI2NCIvPiYjeGE7PHBhdGggZD0ibSA1NC41MDA4LDEwLjk5NjA2MSBoIDAuNjEgdiA2LjQxIGggLTAuNjEgeiBtIC0xLjE2LDAgaCAwLjYzIHYgNi40MSBoIC0wLjYzIHogbSAtMS4xNywwIGggMC42MyB2IDYuNDEgaCAtMC42MyB6IG0gLTEuMTYsMCBoIDAuNjMgdiA2LjQxIGggLTAuNjMgeiBtIC0xLjE3LDAgaCAwLjYzIHYgNi40MSBoIC0wLjYzIHogbSAtMS4xNCwwIGggMC42MSB2IDYuNDEgaCAtMC42MSB6IG0gLTAuNjQsLTAuNjQgaCA3LjY5IHYgNy42OSBoIC03LjY5IHoiIHN0eWxlPSJmaWxsOiMwMGFjZDMiIGlua3NjYXBlOmNvbm5lY3Rvci1jdXJ2YXR1cmU9IjAiIGlkPSJwYXRoNzkyNzIiLz4mI3hhOzxwYXRoIGQ9Im0gNTQuNTAwOCwyLjEyMjkzMSBoIDAuNjEgdiA2LjQxIGggLTAuNjEgeiBtIC0xLjE2LDAgaCAwLjYzIHYgNi40MSBoIC0wLjYzIHogbSAtMS4xNywwIGggMC42MyB2IDYuNDEgaCAtMC42MyB6IG0gLTEuMTYsMCBoIDAuNjMgdiA2LjQxIGggLTAuNjMgeiBtIC0xLjE3LDAgaCAwLjYzIHYgNi40MSBoIC0wLjYzIHogbSAtMS4xNCwwIGggMC42MSB2IDYuNDEgaCAtMC42MSB6IG0gLTAuNjQsLTAuNjQgaCA3LjY5IHYgNy42OSBoIC03LjY5IHoiIHN0eWxlPSJmaWxsOiMyMGMyZWYiIGlua3NjYXBlOmNvbm5lY3Rvci1jdXJ2YXR1cmU9IjAiIGlkPSJwYXRoNzkyODAiLz4mI3hhOzxwYXRoIGQ9Im0gNjMuMzc0LDE5Ljg2OTIzMSBoIDAuNjEgdiA2LjQgaCAtMC42MSB6IG0gLTEuMTYsMCBoIDAuNjMgdiA2LjQgaCAtMC42MyB6IG0gLTEuMTcsMCBoIDAuNjMgdiA2LjQgaCAtMC42MyB6IG0gLTEuMTYsMCBoIDAuNjMgdiA2LjQgaCAtMC42MyB6IG0gLTEuMTcsMCBoIDAuNjMgdiA2LjQgaCAtMC42MyB6IG0gLTEuMTQsMCBoIDAuNjEgdiA2LjQgaCAtMC42MSB6IG0gLTAuNjQsLTAuNjQgaCA3LjY5IHYgNy42OSBoIC03LjY5IHoiIHN0eWxlPSJmaWxsOiMwMGFjZDMiIGlua3NjYXBlOmNvbm5lY3Rvci1jdXJ2YXR1cmU9IjAiIGlkPSJwYXRoNzkyODgiLz4mI3hhOyYjeGE7PHBhdGggaWQ9InBhdGg3OTI5NyIgaW5rc2NhcGU6Y29ubmVjdG9yLWN1cnZhdHVyZT0iMCIgc3R5bGU9ImZpbGw6I2Q0ZWRmMSIgZD0ibSAzNy41MiwzOS4zOCBjIDEuMTcsMCAyLjEyLDAuOTUgMi4xMiwyLjEyIDAsMS4xOCAtMC45NSwyLjEzIC0yLjEyLDIuMTMgLTEuMTcsMCAtMi4xMiwtMC45NSAtMi4xMiwtMi4xMyAwLC0xLjE3IDAuOTUsLTIuMTIgMi4xMiwtMi4xMiB6Ii8+JiN4YTsmI3hhOzxwYXRoIGlkPSJwYXRoNzkzMDUiIGlua3NjYXBlOmNvbm5lY3Rvci1jdXJ2YXR1cmU9IjAiIHN0eWxlPSJmaWxsOiMzOTRkNTQiIGQ9Im0gMzcuNTIsMzkuOTkgYyAwLjE5LDAgMC4zOCwwLjA0IDAuNTUsMC4xIC0wLjE5LDAuMTEgLTAuMzEsMC4zMSAtMC4zMSwwLjU0IDAsMC4zNCAwLjI4LDAuNjIgMC42MiwwLjYyIDAuMjMsMCAwLjQ0LC0wLjEzIDAuNTQsLTAuMzMgMC4wOCwwLjE4IDAuMTIsMC4zOCAwLjEyLDAuNTkgMCwwLjg0IC0wLjY4LDEuNTIgLTEuNTIsMS41MiAtMC44NCwwIC0xLjUyLC0wLjY4IC0xLjUyLC0xLjUyIDAsLTAuODQgMC42OCwtMS41MiAxLjUyLC0xLjUyIHoiLz4mI3hhOyYjeGE7PHBhdGggaWQ9InBhdGg3OTMxMyIgaW5rc2NhcGU6Y29ubmVjdG9yLWN1cnZhdHVyZT0iMCIgc3R5bGU9ImZpbGw6IzM5NGQ1NCIgZD0ibSAwLDM0Ljk5IGggNDYuNDcgNS43NSA0Ni40NyBjIC0yLjE1LC0wLjU1IC02LjgsLTEuMjggLTYuMDMsLTQuMSAtMy45MSw0LjUyIC0xMy4zMywzLjE3IC0xNS43MSwwLjk0IC0yLjY1LDMuODUgLTE4LjA3LDIuMzkgLTE5LjE0LC0wLjYxIC0zLjMyLDMuOSAtMTMuNjEsMy45IC0xNi45MywwIEMgMzkuOCwzNC4yMSAyNC4zOSwzNS42NyAyMS43NCwzMS44MyAxOS4zNiwzNC4wNiA5Ljk0LDM1LjQxIDYuMDMsMzAuODkgNi44LDMzLjcxIDIuMTUsMzQuNDQgMCwzNC45OSBaIi8+JiN4YTsmI3hhOzxwYXRoIGlkPSJwYXRoNzkzMjEiIGlua3NjYXBlOmNvbm5lY3Rvci1jdXJ2YXR1cmU9IjAiIHN0eWxlPSJmaWxsOiNiZmRiZTAiIGQ9Im0gNDMuMTcsNTQuNjcgYyAtNS4yNiwtMi40OSAtOC4xNCwtNS44OCAtOS43NSwtOS41OCAtMS45NSwwLjU1IC00LjI5LDAuOTEgLTcuMDIsMS4wNiAtMS4wMywwLjA2IC0yLjExLDAuMDkgLTMuMjQsMC4wOSAtMS4zMSwwIC0yLjY5LC0wLjA0IC00LjEzLC0wLjEyIDQuODIsNC44MiAxMC43NSw4LjUzIDIxLjcyLDguNTkgMC44MSwwLjAxIDEuNjIsLTAuMDEgMi40MiwtMC4wNCB6Ii8+JiN4YTsmI3hhOzxwYXRoIGlkPSJwYXRoNzkzMjkiIGlua3NjYXBlOmNvbm5lY3Rvci1jdXJ2YXR1cmU9IjAiIHN0eWxlPSJmaWxsOiNkNGVkZjEiIGQ9Im0gMzUuMzcsNDguNTEgYyAtMC43MiwtMC45OSAtMS40MywtMi4yMyAtMS45NCwtMy40MiAtMS45NiwwLjU2IC00LjMsMC45MiAtNy4wMywxLjA3IDEuODcsMS4wMiA0LjU1LDEuOTYgOC45NywyLjM1IHoiLz4mI3hhOzwvc3ZnPg==;" vertex="1" parent="1">
          <mxGeometry x="723.02" y="673.5" width="55.46" height="46.5" as="geometry" />
        </mxCell>
        <mxCell id="BwXOe6zrHSaQDzwSpbx--117" value="" style="shape=image;verticalLabelPosition=bottom;labelBackgroundColor=#ffffff;verticalAlign=top;aspect=fixed;imageAspect=0;image=data:image/svg+xml,PHN2ZyB4bWxuczpkYz0iaHR0cDovL3B1cmwub3JnL2RjL2VsZW1lbnRzLzEuMS8iIHhtbG5zOmNjPSJodHRwOi8vY3JlYXRpdmVjb21tb25zLm9yZy9ucyMiIHhtbG5zOnJkZj0iaHR0cDovL3d3dy53My5vcmcvMTk5OS8wMi8yMi1yZGYtc3ludGF4LW5zIyIgeG1sbnM6c3ZnPSJodHRwOi8vd3d3LnczLm9yZy8yMDAwL3N2ZyIgeG1sbnM9Imh0dHA6Ly93d3cudzMub3JnLzIwMDAvc3ZnIiB4bWxuczpzb2RpcG9kaT0iaHR0cDovL3NvZGlwb2RpLnNvdXJjZWZvcmdlLm5ldC9EVEQvc29kaXBvZGktMC5kdGQiIHhtbG5zOmlua3NjYXBlPSJodHRwOi8vd3d3Lmlua3NjYXBlLm9yZy9uYW1lc3BhY2VzL2lua3NjYXBlIiB2ZXJzaW9uPSIxLjEiIGlkPSJzdmc3OTMzNSIgaW5rc2NhcGU6dmVyc2lvbj0iMC45Mi4zICgyNDA1NTQ2LCAyMDE4LTAzLTExKSIgc29kaXBvZGk6ZG9jbmFtZT0iZG9ja2VyLnN2ZyIgeD0iMHB4IiB5PSIwcHgiIHZpZXdCb3g9IjAgMCA5OS4yMiA4My4yMzk4NCIgeG1sOnNwYWNlPSJwcmVzZXJ2ZSIgd2lkdGg9Ijk5LjIyMDAwMSIgaGVpZ2h0PSI4My4yMzk4MzgiPjxtZXRhZGF0YSBpZD0ibWV0YWRhdGExMTIxIj48cmRmOlJERj48Y2M6V29yayByZGY6YWJvdXQ9IiI+PGRjOmZvcm1hdD5pbWFnZS9zdmcreG1sPC9kYzpmb3JtYXQ+PGRjOnR5cGUgcmRmOnJlc291cmNlPSJodHRwOi8vcHVybC5vcmcvZGMvZGNtaXR5cGUvU3RpbGxJbWFnZSIvPjxkYzp0aXRsZS8+PC9jYzpXb3JrPjwvcmRmOlJERj48L21ldGFkYXRhPjxkZWZzIGlkPSJkZWZzMTExOSI+JiN4YTsJJiN4YTsmI3hhOwkmI3hhOyYjeGE7CSYjeGE7CSYjeGE7CSYjeGE7JiN4YTsJJiN4YTsJJiN4YTsJJiN4YTsmI3hhOwkmI3hhOwkmI3hhOwkmI3hhOyYjeGE7CSYjeGE7CSYjeGE7CSYjeGE7JiN4YTsJJiN4YTsmI3hhOwkmI3hhOwkmI3hhOwkmI3hhOyYjeGE7CSYjeGE7CSYjeGE7CSYjeGE7JiN4YTsJJiN4YTsJJiN4YTsJJiN4YTsmI3hhOwkmI3hhOwkmI3hhOwkmI3hhOyYjeGE7CSYjeGE7CSYjeGE7CSYjeGE7JiN4YTsJJiN4YTsJJiN4YTsJJiN4YTsmI3hhOwkmI3hhOwkmI3hhOwkmI3hhOyYjeGE7CSYjeGE7CSYjeGE7CSYjeGE7JiN4YTsJJiN4YTsJJiN4YTsJJiN4YTsmI3hhOwkmI3hhOyYjeGE7CSYjeGE7JiN4YTsJJiN4YTsmI3hhOwkmI3hhOyYjeGE7CSYjeGE7JiN4YTsJCSYjeGE7CSYjeGE7CQkmI3hhOwkmI3hhOwkJJiN4YTsJJiN4YTsJCSYjeGE7CSYjeGE7CQkmI3hhOwkmI3hhOwkJJiN4YTsJJiN4YTsJCSYjeGE7CSYjeGE7CQkmI3hhOwkmI3hhOwkJJiN4YTsJJiN4YTsJCSYjeGE7CSYjeGE7CQkmI3hhOwkmI3hhOwkJJiN4YTsJJiN4YTsJCSYjeGE7CSYjeGE7CQkmI3hhOwkmI3hhOwkJJiN4YTsJJiN4YTsJCSYjeGE7CSYjeGE7CQkmI3hhOwkmI3hhOwkJJiN4YTsJJiN4YTsJCSYjeGE7CSYjeGE7CQkmI3hhOwkmI3hhOwkJCSYjeGE7CQkmI3hhOwkJCSYjeGE7CQkmI3hhOwkJCSYjeGE7CQkmI3hhOwkJCSYjeGE7CQk8L2RlZnM+JiN4YTs8ZmlsdGVyIGlkPSJmaWx0ZXJfMiI+JiN4YTsJPGZlR2F1c3NpYW5CbHVyIGlkPSJmZUdhdXNzaWFuQmx1cjc5MTUwIiBzdGREZXZpYXRpb249IjIiLz4mI3hhOzwvZmlsdGVyPiYjeGE7PHNvZGlwb2RpOm5hbWVkdmlldyBib3JkZXJjb2xvcj0iIzY2NjY2NiIgYm9yZGVyb3BhY2l0eT0iMSIgZml0LW1hcmdpbi1ib3R0b209IjAiIGZpdC1tYXJnaW4tbGVmdD0iMCIgZml0LW1hcmdpbi1yaWdodD0iMCIgZml0LW1hcmdpbi10b3A9IjAiIGdyaWR0b2xlcmFuY2U9IjEwIiBndWlkZXRvbGVyYW5jZT0iMTAiIGlkPSJuYW1lZHZpZXc3OTMzNyIgaW5rc2NhcGU6Y3VycmVudC1sYXllcj0ic3ZnNzkzMzUiIGlua3NjYXBlOmN4PSItMjQuMjM0MzIxIiBpbmtzY2FwZTpjeT0iNTUuNzcxNTY5IiBpbmtzY2FwZTpwYWdlb3BhY2l0eT0iMCIgaW5rc2NhcGU6cGFnZXNoYWRvdz0iMiIgaW5rc2NhcGU6d2luZG93LWhlaWdodD0iMTAxNyIgaW5rc2NhcGU6d2luZG93LW1heGltaXplZD0iMSIgaW5rc2NhcGU6d2luZG93LXdpZHRoPSIxOTIwIiBpbmtzY2FwZTp3aW5kb3cteD0iLTgiIGlua3NjYXBlOndpbmRvdy15PSItOCIgaW5rc2NhcGU6em9vbT0iMy4yOTk1NDQ5IiBvYmplY3R0b2xlcmFuY2U9IjEwIiBwYWdlY29sb3I9IiNmZmZmZmYiIHNob3dncmlkPSJmYWxzZSI+JiN4YTsJPC9zb2RpcG9kaTpuYW1lZHZpZXc+JiN4YTsmI3hhOzxwYXRoIGlkPSJwYXRoNzkxNjMiIGlua3NjYXBlOmNvbm5lY3Rvci1jdXJ2YXR1cmU9IjAiIHN0eWxlPSJmaWxsOiMzZjU3NjUiIGQ9Im0gNzMuNDYsNzggYyAyLjIzLC0xLjkxIDQuNDYsLTMuODMgNi42OSwtNS43NSAwLjc2LC0wLjY2IDEuNTksLTEuMzQgMi4zNSwtMi4wMyAtMC42MSwtMC43NiAtMS42MiwtMS4zMSAtMi40OCwtMS42NCAtMS43MywtMC42NiAtMy40NCwtMC40NCAtNS4wMywwLjQ4IC0yLjA5LDEuMiAtMi45NywzLjEyIC0yLjg5LDUuNSAwLjAzLDAuOTQgMC4yOCwxLjg0IDAuNzgsMi42NCAwLjE3LDAuMjggMC4zNywwLjU1IDAuNTgsMC44IHogbSAyLjU4LDEuODEgYyAxLjEsMC4zOCAyLjM0LDAuMzMgMy40NywwLjE0IDAuNTcsLTAuMjUgMi4wNCwtMC44OSAyLjU4LC0wLjggbCAwLjA4LDAuMDIgMC4wOCwwLjA0IGMgMC4zMywwLjE2IDAuNjQsMC4zOCAwLjgxLDAuNzIgMC40LDAuNzkgMC4yMSwxLjU3IC0wLjU3LDIuMDIgbCAtMC4yNSwwLjE1IGMgLTIuODUsMS42NSAtNS44OSwxLjQyIC04LjczLC0wLjEyIC0xLjM2LC0wLjczIC0yLjQsLTEuODIgLTMuMTcsLTMuMTYgbCAtMC4xOCwtMC4zMSBjIC0xLjgzLC0zLjE3IC0xLjU4LC02LjUgMC40OCwtOS41MiAwLjcyLC0xLjA0IDEuNjUsLTEuODUgMi43NCwtMi40OCBsIDAuNDEsLTAuMjMgYyAyLjY5LC0xLjU1IDUuNTcsLTEuNDUgOC4zMywtMC4wOSAxLjQ4LDAuNzMgMi42OCwxLjgzIDMuNTEsMy4yNiBsIDAuMTUsMC4yNiBjIDAuNiwxLjA0IC0wLjE4LDEuOTUgLTAuOTgsMi41NyAtMC45NCwwLjcyIC0xLjg4LDEuNTkgLTIuNzgsMi4zNiAtMS45OSwxLjcyIC0zLjk4LDMuNDUgLTUuOTgsNS4xNyB6IE0gOTcuNDEsNjUuMzkgaCAwLjMgYyAwLjksMCAxLjUxLDAuNjEgMS41MSwxLjUgMCwxLjI1IC0xLjIsMS41NyAtMi4yMiwxLjU3IC0xLjM2LDAgLTIuNjQsMC44MSAtMy41NywxLjczIC0xLjE3LDEuMTUgLTEuNjcsMi42MSAtMS42Nyw0LjIyIHYgNy4yOCBjIDAsMC44MyAtMC41MiwxLjUxIC0xLjM5LDEuNTEgaCAtMC4yNCBjIC0wLjg2LDAgLTEuMzgsLTAuNjggLTEuMzgsLTEuNTEgdiAtNy43IGMgMCwtMi45NSAxLjQ0LC01LjM2IDMuODQsLTcuMDYgMS40MywtMS4wMSAzLjA3LC0xLjU0IDQuODIsLTEuNTQgeiBtIC0zNy40Nyw1LjE2IGMgMS4xNiwtMS4xNyAyLjM0LC0yLjMzIDMuNTIsLTMuNDggMC4zMywtMC4zMiAxLjU4LC0xLjY4IDIuMDgsLTEuNjggaCAwLjUzIGwgMC4wNiwwLjAxIGMgMC42OSwwLjE0IDEuMiwwLjU4IDEuMiwxLjMxIHYgMC4zIGMgMCwwLjUgLTAuNTksMS4wOSAtMC45MSwxLjQzIC0wLjY5LDAuNzQgLTEuNDIsMS40NCAtMi4xMywyLjE2IGwgLTMuNjMsMy42OSBjIDEuNTcsMS41NiAzLjEzLDMuMTMgNC42OCw0LjcxIDAuNDMsMC40NCAwLjg2LDAuODggMS4yOCwxLjMyIDAuMTUsMC4xNiAwLjM3LDAuMzUgMC41LDAuNTcgMC4xMywwLjIxIDAuMjEsMC40NCAwLjIxLDAuNjggdiAwLjMxIGwgLTAuMDEsMC4wNyBjIC0wLjE3LDAuNjkgLTAuNjEsMS4yNCAtMS4zNywxLjI0IGggLTAuMjQgYyAtMC41LDAgLTEuMDYsLTAuNTYgLTEuNCwtMC44OCAtMC43LC0wLjY2IC0xLjM4LC0xLjM2IC0yLjA3LC0yLjAzIGwgLTIuMzEsLTIuMjcgdiAzLjYyIGMgMCwwLjg0IC0wLjUyLDEuNTEgLTEuMzgsMS41MSBoIC0wLjI0IGMgLTAuODYsMCAtMS4zOCwtMC42NyAtMS4zOCwtMS41MSBWIDYxLjIyIGMgMCwtMC44MyAwLjUyLC0xLjUgMS4zOCwtMS41IGggMC4yNCBjIDAuODYsMCAxLjM4LDAuNjcgMS4zOCwxLjUgdiA5LjMzIHogbSAtOS43NSwtMi4wMyBjIC0wLjQ2LC0wLjIxIC0xLjMxLC0wLjI5IC0xLjgsLTAuMyAtMi41MSwtMC4xIC00LjMzLDEuMzIgLTUuNCwzLjUzIC0wLjM2LDAuNzcgLTAuNTMsMS41OCAtMC41MywyLjQyIDAsMi41OCAxLjM1LDQuMzggMy42NSw1LjQ4IDAuODQsMC40IDEuOTIsMC40OCAyLjg0LDAuNDggMC44MSwwIDEuOTUsLTAuNSAyLjY2LC0wLjg0IGwgMC4xMywtMC4wNiBoIDAuNTYgbCAwLjA2LDAuMDIgYyAwLjY4LDAuMTQgMS4yLDAuNTcgMS4yLDEuMzEgdiAwLjMgYyAwLDEuODMgLTMuMzUsMi4yNSAtNC42MywyLjM0IC00LjUsMC4zMSAtNy44NywtMi4xNyAtOS4xNSwtNi40NiAtMC4yMywtMC43NSAtMC4zMywtMS40OSAtMC4zMywtMi4yNyB2IC0wLjYgYyAwLC0zLjI2IDEuNjIsLTUuODQgNC40MiwtNy41IDEuMywtMC43NyAyLjczLC0xLjE2IDQuMjUsLTEuMTYgaCAwLjU5IGMgMS42LDAgMy4wOCwwLjQ1IDQuNCwxLjM2IGwgMC4xMSwwLjA3IDAuMDcsMC4xMiBjIDAuMTQsMC4yMyAwLjI3LDAuNTEgMC4yNywwLjc5IHYgMC4zIGMgMCwwLjc2IC0wLjU4LDEuMTggLTEuMjcsMS4zMSBsIC0wLjA2LDAuMDEgaCAtMC4xOCBjIC0wLjQ1LDAgLTEuNDYsLTAuNDYgLTEuODYsLTAuNjUgeiBtIC0yNy40Miw1LjcxIGMgMCwyLjI5IDEuMTIsMy45NyAzLjA1LDUuMTUgMC45MSwwLjU2IDEuOSwwLjgxIDIuOTYsMC44MSAyLjI2LDAgMy45MywtMS4xNSA1LjA5LC0zLjA1IDAuNTYsLTAuOTEgMC44MSwtMS45MSAwLjgxLC0yLjk3IDAsLTIuMTIgLTEuMDMsLTMuNzUgLTIuNzgsLTQuOTIgLTAuOTYsLTAuNjUgLTIuMDIsLTAuOTcgLTMuMTgsLTAuOTcgLTIuNTIsMCAtNC4zMywxLjI3IC01LjQyLDMuNTMgLTAuMzcsMC43NiAtMC41MywxLjU4IC0wLjUzLDIuNDIgeiBtIDUuNjUsLTguOTYgaCAwLjQyIGMgMy40OSwwIDYuMTQsMS42OSA3LjgxLDQuNzMgMC42OCwxLjIyIDEuMDMsMi41NCAxLjAzLDMuOTQgdiAwLjU5IGMgMCwzLjI2IC0xLjYsNS44NiAtNC40MSw3LjUxIC0xLjMsMC43NiAtMi43NCwxLjE1IC00LjI1LDEuMTUgaCAtMC42IGMgLTMuMjYsMCAtNS44NSwtMS42MSAtNy41LC00LjQxIC0wLjc3LC0xLjMgLTEuMTYsLTIuNzQgLTEuMTYsLTQuMjUgdiAtMC41OSBjIDAsLTMuMjcgMS42MiwtNS44NSA0LjQxLC03LjUxIDEuMzEsLTAuNzcgMi43NCwtMS4xNiA0LjI1LC0xLjE2IHogTSAzLjA4LDc0LjIzIGMgMCwyLjM2IDEuMTQsNC4xMyAzLjIsNS4yNiAwLjg0LDAuNDUgMS43NCwwLjcgMi42OSwwLjcgMi4zMSwwIDQuMDMsLTEuMDkgNS4yMSwtMy4wNSAwLjU1LC0wLjkxIDAuODEsLTEuOTEgMC44MSwtMi45NyAwLC0yLjA0IC0wLjk3LC0zLjYzIC0yLjYyLC00LjgyIC0wLjk5LC0wLjcxIC0yLjEyLC0xLjA3IC0zLjM0LC0xLjA3IC0yLjUyLDAgLTQuMzMsMS4yNyAtNS40MiwzLjUzIC0wLjM3LDAuNzYgLTAuNTMsMS41OCAtMC41MywyLjQyIHogbSAxMS45MSwtNi43MiB2IC02LjM1IGMgMCwtMC44MyAwLjUyLC0xLjUgMS4zOCwtMS41IGggMC4yNCBjIDAuODcsMCAxLjM4LDAuNjcgMS4zOCwxLjUgdiAxMy4zNyBjIDAsMy4yNiAtMS42MSw1Ljg1IC00LjQxLDcuNTEgLTEuMywwLjc2IC0yLjc0LDEuMTYgLTQuMjUsMS4xNiBIIDguNzMgQyA1LjQ3LDgzLjIgMi44OCw4MS41OCAxLjIzLDc4Ljc4IDAuNDYsNzcuNDggMC4wNyw3Ni4wNCAwLjA3LDc0LjUzIHYgLTAuNTkgYyAwLC0zLjI2IDEuNjEsLTUuODYgNC40MSwtNy41MSAxLjMxLC0wLjc3IDIuNzQsLTEuMTYgNC4yNSwtMS4xNiBoIDAuNiBjIDIuMjEsMCA0LjA4LDAuODUgNS42NiwyLjI0IHoiLz4mI3hhOyYjeGE7PHBhdGggaWQ9InBhdGg3OTE3MSIgaW5rc2NhcGU6Y29ubmVjdG9yLWN1cnZhdHVyZT0iMCIgc3R5bGU9ImZpbGw6IzM5NGQ1NCIgZD0ibSA1Ny4yMywxNy43NSBoIDguODcgdiA5LjA3IGggNC40OSBjIDIuMDcsMCA0LjIsLTAuMzcgNi4xNiwtMS4wNCAwLjk2LC0wLjMyIDIuMDUsLTAuNzggMywtMS4zNSAtMS4yNiwtMS42NCAtMS44OSwtMy43IC0yLjA4LC01Ljc0IC0wLjI2LC0yLjc2IDAuMywtNi4zNyAyLjE3LC04LjUzIGwgMC45NCwtMS4wOCAxLjExLDAuODkgYyAyLjgsMi4yNSA1LjE1LDUuMzkgNS41Niw4Ljk3IDMuMzcsLTAuOTkgNy4zMywtMC43NiAxMC4zLDAuOTYgbCAxLjIyLDAuNyAtMC42NCwxLjI1IEMgOTUuODEsMjYuNzYgOTAuNTYsMjguMjcgODUuNDMsMjggNzcuNzUsNDcuMTQgNjEuMDIsNTYuMiA0MC43NSw1Ni4yIDMwLjI3LDU2LjIgMjAuNjYsNTIuMjggMTUuMTgsNDIuOTggTCAxNS4wOSw0Mi44MyAxNC4zLDQxLjIxIEMgMTIuNDUsMzcuMTIgMTEuODMsMzIuNjQgMTIuMjUsMjguMTYgbCAwLjEyLC0xLjM0IGggNy41OSB2IC05LjA3IGggOC44NyBWIDguODcgSCA0Ni41OCBWIDAgaCAxMC42NCB6Ii8+JiN4YTs8cGF0aCBkPSJtIDg1Ljk4MDMsMjEuMTAwMzMxIGMgMC41OSwtNC42MiAtMi44NywtOC4yNSAtNS4wMiwtOS45OCAtMi40NywyLjg2IC0yLjg1LDEwLjM1IDEuMDMsMTMuNTEgLTIuMTcsMS45MiAtNi43MywzLjY2IC0xMS40LDMuNjYgaCAtNTYuODcgYyAtMC40NSw0Ljg4IDAuNDEsOS4zNyAyLjM2LDEzLjIyIGwgMC42NSwxLjE4IGMgMC40MSwwLjY5IDAuODYsMS4zNiAxLjM0LDIuMDEgdiAwIGMgMi4zNCwwLjE1IDQuNDksMC4yIDYuNDYsMC4xNiAwLDAgMCwwIDAuMDEsMCAzLjg3LC0wLjA5IDcuMDMsLTAuNTQgOS40MywtMS4zNyAwLjM2LC0wLjEzIDAuNzUsMC4wNiAwLjg3LDAuNDIgMC4xMiwwLjM1IC0wLjA3LDAuNzQgLTAuNDIsMC44NyAtMC4zMiwwLjExIC0wLjY1LDAuMjEgLTEsMC4zMSB2IDAgYyAtMS44OSwwLjU0IC0zLjkxLDAuOSAtNi41MiwxLjA2IDAuMTYsMCAtMC4xNiwwLjAyIC0wLjE2LDAuMDIgLTAuMDksMC4wMSAtMC4yLDAuMDIgLTAuMjksMC4wMyAtMS4wMywwLjA1IC0yLjE0LDAuMDcgLTMuMjcsMC4wNyAtMS4yNCwwIC0yLjQ2LC0wLjAzIC0zLjgzLC0wLjEgbCAtMC4wMywwLjAzIGMgNC43Myw1LjMyIDEyLjE0LDguNTIgMjEuNDMsOC41MiAxOS42NSwwIDM2LjMyLC04LjcyIDQzLjcsLTI4LjI4IDUuMjQsMC41NCAxMC4yNywtMC43OSAxMi41NiwtNS4yNiAtMy42NCwtMi4xMSAtOC4zMywtMS40NCAtMTEuMDMsLTAuMDggeiIgc3R5bGU9ImZpbGw6IzAwYWFkYSIgaW5rc2NhcGU6Y29ubmVjdG9yLWN1cnZhdHVyZT0iMCIgaWQ9InBhdGg3OTE4MSIvPiYjeGE7PHBhdGggZD0ibSA4NS45Nzk3NiwyMS4xMDI3MjEgYyAwLjU5LC00LjYzIC0yLjg3LC04LjI2IC01LjAxLC05Ljk4IC0yLjQ4LDIuODYgLTIuODYsMTAuMzUgMS4wMiwxMy41MSAtMi4xNywxLjkyIC02LjczLDMuNjYgLTExLjQsMy42NiBoIC01My41IGMgLTAuMjMsNy40NyAyLjU0LDEzLjE0IDcuNDQsMTYuNTcgMCwwIDAsMCAwLjAxLDAgMy44NywtMC4wOSA3LjAzLC0wLjU1IDkuNDMsLTEuMzggMC4zNiwtMC4xMiAwLjc1LDAuMDcgMC44NywwLjQzIDAuMTIsMC4zNSAtMC4wNywwLjc0IC0wLjQyLDAuODYgLTAuMzIsMC4xMiAtMC42NSwwLjIyIC0xLDAuMzIgdiAwIGMgLTEuODksMC41MyAtNC4wOCwwLjk0IC02LjY5LDEuMTEgMCwwIC0wLjA3LC0wLjA3IC0wLjA3LC0wLjA2IDYuNjksMy40MyAxNi4zOSwzLjQxIDI3LjUxLC0wLjg2IDEyLjQ3LC00Ljc5IDI0LjA3LC0xMy45MSAzMi4xNiwtMjQuMzUgLTAuMTIsMC4wNSAtMC4yNCwwLjExIC0wLjM1LDAuMTcgeiIgc3R5bGU9ImZpbGw6IzI0YjhlYiIgaW5rc2NhcGU6Y29ubmVjdG9yLWN1cnZhdHVyZT0iMCIgaWQ9InBhdGg3OTE4OSIvPiYjeGE7PHBhdGggZD0ibSAxMy44MzEyMywzNC4yMjAzMzEgYyAwLjM1LDIuNjEgMS4xMiw1LjA2IDIuMjUsNy4yOCBsIDAuNjUsMS4xOSBjIDAuNDEsMC42OSAwLjg1LDEuMzYgMS4zNCwyLjAxIDIuMzQsMC4xNSA0LjQ5LDAuMiA2LjQ2LDAuMTYgMy44OCwtMC4wOSA3LjA0LC0wLjU0IDkuNDQsLTEuMzggMC4zNiwtMC4xMiAwLjc0LDAuMDcgMC44NywwLjQzIDAuMTIsMC4zNSAtMC4wNywwLjc0IC0wLjQyLDAuODcgLTAuMzIsMC4xMSAtMC42NiwwLjIxIC0xLDAuMzEgdiAwIGMgLTEuODksMC41NCAtNC4wNywwLjkyIC02LjY4LDEuMDggLTAuMDksMC4wMSAtMC4yNSwwLjAxIC0wLjM0LDAuMDIgLTEuMDIsMC4wNSAtMi4xMiwwLjA5IC0zLjI2LDAuMDkgLTEuMjQsMCAtMi41MSwtMC4wMiAtMy44NywtMC4wOSA0Ljc0LDUuMzIgMTIuMTksOC41MyAyMS40OCw4LjUzIDE2LjgyLDAgMzEuNDYsLTYuMzkgMzkuOTYsLTIwLjUgeiIgc3R5bGU9ImZpbGw6IzAwOGJiOCIgaW5rc2NhcGU6Y29ubmVjdG9yLWN1cnZhdHVyZT0iMCIgaWQ9InBhdGg3OTE5NyIvPiYjeGE7PHBhdGggZD0ibSAxNy42MDM4NiwzNC4yMTgzNDEgYyAxLjAxLDQuNTkgMy40Miw4LjE5IDYuOTMsMTAuNjQgMy44OCwtMC4wOCA3LjA0LC0wLjU0IDkuNDQsLTEuMzcgMC4zNSwtMC4xMyAwLjc0LDAuMDYgMC44NywwLjQyIDAuMTIsMC4zNiAtMC4wNywwLjc0IC0wLjQzLDAuODcgLTAuMzIsMC4xMSAtMC42NSwwLjIxIC0wLjk5LDAuMzEgdiAwIGMgLTEuODksMC41NCAtNC4xMiwwLjkyIC02LjczLDEuMDkgNi42OSwzLjQzIDE2LjM2LDMuMzggMjcuNDcsLTAuODkgNi43MywtMi41OSAxMy4yLC02LjQzIDE5LjAxLC0xMS4wNyB6IiBzdHlsZT0iZmlsbDojMDM5YmM2IiBpbmtzY2FwZTpjb25uZWN0b3ItY3VydmF0dXJlPSIwIiBpZD0icGF0aDc5MjA1Ii8+JiN4YTsmI3hhOzxwYXRoIGlkPSJwYXRoNzkyMTQiIGlua3NjYXBlOmNvbm5lY3Rvci1jdXJ2YXR1cmU9IjAiIHN0eWxlPSJmaWxsOiMzOTRkNTQiIGQ9Im0gMjMuMTYsNDYuMjUgYyAxLjEzLDAgMi4yMSwtMC4wMyAzLjI0LC0wLjA5IDAuMDksLTAuMDEgMC4xNywtMC4wMSAwLjI2LC0wLjAyIDAuMDEsMCAwLjAxLDAgMC4wMSwwIDIuNjEsLTAuMTYgNC44NywtMC41MSA2Ljc1LC0xLjA1IHYgMCBjIDAuMzUsLTAuMDkgMC42OCwtMC4yIDEsLTAuMzEgMC4zNSwtMC4xMiAwLjU0LC0wLjUxIDAuNDIsLTAuODcgLTAuMTIsLTAuMzUgLTAuNTEsLTAuNTQgLTAuODcsLTAuNDIgLTIuNCwwLjgzIC01LjU2LDEuMjkgLTkuNDMsMS4zNyB2IDAgYyAtMS45OCwwLjA1IC00LjEzLDAgLTYuNDcsLTAuMTUgdiAwIGMgLTAuMTIsLTAuMDEgLTAuMjQsLTAuMDIgLTAuMzYsLTAuMDMgLTAuMzcsLTAuMDIgLTAuNywwLjI2IC0wLjcyLDAuNjQgLTAuMDMsMC4zNyAwLjI1LDAuNyAwLjYzLDAuNzMgMC40OCwwLjAzIDAuOTUsMC4wNiAxLjQxLDAuMDggMC4wNywwIDAuMTQsMC4wMSAwLjIyLDAuMDEgMS4zNiwwLjA3IDIuNjcsMC4xMSAzLjkxLDAuMTEgeiIvPiYjeGE7PHBhdGggZD0ibSAyNy44ODI2LDE5Ljg2OTIzMSBoIDAuNjEgdiA2LjQgaCAtMC42MSB6IG0gLTEuMTYsMCBoIDAuNjMgdiA2LjQgaCAtMC42MyB6IG0gLTEuMTcsMCBoIDAuNjMgdiA2LjQgaCAtMC42MyB6IG0gLTEuMTYsMCBoIDAuNjMgdiA2LjQgaCAtMC42MyB6IG0gLTEuMTcsMCBoIDAuNjMgdiA2LjQgaCAtMC42MyB6IG0gLTEuMTQsMCBoIDAuNjEgdiA2LjQgaCAtMC42MSB6IG0gLTAuNjQsLTAuNjQgaCA3LjY5IHYgNy42OSBoIC03LjY5IHoiIHN0eWxlPSJmaWxsOiMwMGFjZDMiIGlua3NjYXBlOmNvbm5lY3Rvci1jdXJ2YXR1cmU9IjAiIGlkPSJwYXRoNzkyMjQiLz4mI3hhOzxwYXRoIGQ9Im0gMzYuNzU0NSwxMC45OTYwNjEgaCAwLjYxIHYgNi40MSBoIC0wLjYxIHogbSAtMS4xNiwwIGggMC42MyB2IDYuNDEgaCAtMC42MyB6IG0gLTEuMTcsMCBoIDAuNjMgdiA2LjQxIGggLTAuNjMgeiBtIC0xLjE2LDAgaCAwLjYzIHYgNi40MSBoIC0wLjYzIHogbSAtMS4xNywwIGggMC42MyB2IDYuNDEgaCAtMC42MyB6IG0gLTEuMTQsMCBoIDAuNjEgdiA2LjQxIGggLTAuNjEgeiBtIC0wLjY0LC0wLjY0IGggNy42OSB2IDcuNjkgaCAtNy42OSB6IiBzdHlsZT0iZmlsbDojMDBhY2QzIiBpbmtzY2FwZTpjb25uZWN0b3ItY3VydmF0dXJlPSIwIiBpZD0icGF0aDc5MjMyIi8+JiN4YTs8cGF0aCBkPSJtIDM2Ljc1NDUsMTkuODY5MjMxIGggMC42MSB2IDYuNCBoIC0wLjYxIHogbSAtMS4xNiwwIGggMC42MyB2IDYuNCBoIC0wLjYzIHogbSAtMS4xNywwIGggMC42MyB2IDYuNCBoIC0wLjYzIHogbSAtMS4xNiwwIGggMC42MyB2IDYuNCBoIC0wLjYzIHogbSAtMS4xNywwIGggMC42MyB2IDYuNCBoIC0wLjYzIHogbSAtMS4xNCwwIGggMC42MSB2IDYuNCBoIC0wLjYxIHogbSAtMC42NCwtMC42NCBoIDcuNjkgdiA3LjY5IGggLTcuNjkgeiIgc3R5bGU9ImZpbGw6IzIwYzJlZiIgaW5rc2NhcGU6Y29ubmVjdG9yLWN1cnZhdHVyZT0iMCIgaWQ9InBhdGg3OTI0MCIvPiYjeGE7PHBhdGggZD0ibSA0NS42Mjg5LDE5Ljg2OTIzMSBoIDAuNjEgdiA2LjQgaCAtMC42MSB6IG0gLTEuMTYsMCBoIDAuNjMgdiA2LjQgaCAtMC42MyB6IG0gLTEuMTcsMCBoIDAuNjMgdiA2LjQgaCAtMC42MyB6IG0gLTEuMTYsMCBoIDAuNjMgdiA2LjQgaCAtMC42MyB6IG0gLTEuMTcsMCBoIDAuNjMgdiA2LjQgaCAtMC42MyB6IG0gLTEuMTQsMCBoIDAuNjEgdiA2LjQgaCAtMC42MSB6IG0gLTAuNjQsLTAuNjQgaCA3LjY5IHYgNy42OSBoIC03LjY5IHoiIHN0eWxlPSJmaWxsOiMwMGFjZDMiIGlua3NjYXBlOmNvbm5lY3Rvci1jdXJ2YXR1cmU9IjAiIGlkPSJwYXRoNzkyNDgiLz4mI3hhOzxwYXRoIGQ9Im0gNDUuNjI4OSwxMC45OTYwNjEgaCAwLjYxIHYgNi40MSBoIC0wLjYxIHogbSAtMS4xNiwwIGggMC42MyB2IDYuNDEgaCAtMC42MyB6IG0gLTEuMTcsMCBoIDAuNjMgdiA2LjQxIGggLTAuNjMgeiBtIC0xLjE2LDAgaCAwLjYzIHYgNi40MSBoIC0wLjYzIHogbSAtMS4xNywwIGggMC42MyB2IDYuNDEgaCAtMC42MyB6IG0gLTEuMTQsMCBoIDAuNjEgdiA2LjQxIGggLTAuNjEgeiBtIC0wLjY0LC0wLjY0IGggNy42OSB2IDcuNjkgaCAtNy42OSB6IiBzdHlsZT0iZmlsbDojMjBjMmVmIiBpbmtzY2FwZTpjb25uZWN0b3ItY3VydmF0dXJlPSIwIiBpZD0icGF0aDc5MjU2Ii8+JiN4YTs8cGF0aCBkPSJtIDU0LjUwMDgsMTkuODY5MjMxIGggMC42MSB2IDYuNCBoIC0wLjYxIHogbSAtMS4xNiwwIGggMC42MyB2IDYuNCBoIC0wLjYzIHogbSAtMS4xNywwIGggMC42MyB2IDYuNCBoIC0wLjYzIHogbSAtMS4xNiwwIGggMC42MyB2IDYuNCBoIC0wLjYzIHogbSAtMS4xNywwIGggMC42MyB2IDYuNCBoIC0wLjYzIHogbSAtMS4xNCwwIGggMC42MSB2IDYuNCBoIC0wLjYxIHogbSAtMC42NCwtMC42NCBoIDcuNjkgdiA3LjY5IGggLTcuNjkgeiIgc3R5bGU9ImZpbGw6IzIwYzJlZiIgaW5rc2NhcGU6Y29ubmVjdG9yLWN1cnZhdHVyZT0iMCIgaWQ9InBhdGg3OTI2NCIvPiYjeGE7PHBhdGggZD0ibSA1NC41MDA4LDEwLjk5NjA2MSBoIDAuNjEgdiA2LjQxIGggLTAuNjEgeiBtIC0xLjE2LDAgaCAwLjYzIHYgNi40MSBoIC0wLjYzIHogbSAtMS4xNywwIGggMC42MyB2IDYuNDEgaCAtMC42MyB6IG0gLTEuMTYsMCBoIDAuNjMgdiA2LjQxIGggLTAuNjMgeiBtIC0xLjE3LDAgaCAwLjYzIHYgNi40MSBoIC0wLjYzIHogbSAtMS4xNCwwIGggMC42MSB2IDYuNDEgaCAtMC42MSB6IG0gLTAuNjQsLTAuNjQgaCA3LjY5IHYgNy42OSBoIC03LjY5IHoiIHN0eWxlPSJmaWxsOiMwMGFjZDMiIGlua3NjYXBlOmNvbm5lY3Rvci1jdXJ2YXR1cmU9IjAiIGlkPSJwYXRoNzkyNzIiLz4mI3hhOzxwYXRoIGQ9Im0gNTQuNTAwOCwyLjEyMjkzMSBoIDAuNjEgdiA2LjQxIGggLTAuNjEgeiBtIC0xLjE2LDAgaCAwLjYzIHYgNi40MSBoIC0wLjYzIHogbSAtMS4xNywwIGggMC42MyB2IDYuNDEgaCAtMC42MyB6IG0gLTEuMTYsMCBoIDAuNjMgdiA2LjQxIGggLTAuNjMgeiBtIC0xLjE3LDAgaCAwLjYzIHYgNi40MSBoIC0wLjYzIHogbSAtMS4xNCwwIGggMC42MSB2IDYuNDEgaCAtMC42MSB6IG0gLTAuNjQsLTAuNjQgaCA3LjY5IHYgNy42OSBoIC03LjY5IHoiIHN0eWxlPSJmaWxsOiMyMGMyZWYiIGlua3NjYXBlOmNvbm5lY3Rvci1jdXJ2YXR1cmU9IjAiIGlkPSJwYXRoNzkyODAiLz4mI3hhOzxwYXRoIGQ9Im0gNjMuMzc0LDE5Ljg2OTIzMSBoIDAuNjEgdiA2LjQgaCAtMC42MSB6IG0gLTEuMTYsMCBoIDAuNjMgdiA2LjQgaCAtMC42MyB6IG0gLTEuMTcsMCBoIDAuNjMgdiA2LjQgaCAtMC42MyB6IG0gLTEuMTYsMCBoIDAuNjMgdiA2LjQgaCAtMC42MyB6IG0gLTEuMTcsMCBoIDAuNjMgdiA2LjQgaCAtMC42MyB6IG0gLTEuMTQsMCBoIDAuNjEgdiA2LjQgaCAtMC42MSB6IG0gLTAuNjQsLTAuNjQgaCA3LjY5IHYgNy42OSBoIC03LjY5IHoiIHN0eWxlPSJmaWxsOiMwMGFjZDMiIGlua3NjYXBlOmNvbm5lY3Rvci1jdXJ2YXR1cmU9IjAiIGlkPSJwYXRoNzkyODgiLz4mI3hhOyYjeGE7PHBhdGggaWQ9InBhdGg3OTI5NyIgaW5rc2NhcGU6Y29ubmVjdG9yLWN1cnZhdHVyZT0iMCIgc3R5bGU9ImZpbGw6I2Q0ZWRmMSIgZD0ibSAzNy41MiwzOS4zOCBjIDEuMTcsMCAyLjEyLDAuOTUgMi4xMiwyLjEyIDAsMS4xOCAtMC45NSwyLjEzIC0yLjEyLDIuMTMgLTEuMTcsMCAtMi4xMiwtMC45NSAtMi4xMiwtMi4xMyAwLC0xLjE3IDAuOTUsLTIuMTIgMi4xMiwtMi4xMiB6Ii8+JiN4YTsmI3hhOzxwYXRoIGlkPSJwYXRoNzkzMDUiIGlua3NjYXBlOmNvbm5lY3Rvci1jdXJ2YXR1cmU9IjAiIHN0eWxlPSJmaWxsOiMzOTRkNTQiIGQ9Im0gMzcuNTIsMzkuOTkgYyAwLjE5LDAgMC4zOCwwLjA0IDAuNTUsMC4xIC0wLjE5LDAuMTEgLTAuMzEsMC4zMSAtMC4zMSwwLjU0IDAsMC4zNCAwLjI4LDAuNjIgMC42MiwwLjYyIDAuMjMsMCAwLjQ0LC0wLjEzIDAuNTQsLTAuMzMgMC4wOCwwLjE4IDAuMTIsMC4zOCAwLjEyLDAuNTkgMCwwLjg0IC0wLjY4LDEuNTIgLTEuNTIsMS41MiAtMC44NCwwIC0xLjUyLC0wLjY4IC0xLjUyLC0xLjUyIDAsLTAuODQgMC42OCwtMS41MiAxLjUyLC0xLjUyIHoiLz4mI3hhOyYjeGE7PHBhdGggaWQ9InBhdGg3OTMxMyIgaW5rc2NhcGU6Y29ubmVjdG9yLWN1cnZhdHVyZT0iMCIgc3R5bGU9ImZpbGw6IzM5NGQ1NCIgZD0ibSAwLDM0Ljk5IGggNDYuNDcgNS43NSA0Ni40NyBjIC0yLjE1LC0wLjU1IC02LjgsLTEuMjggLTYuMDMsLTQuMSAtMy45MSw0LjUyIC0xMy4zMywzLjE3IC0xNS43MSwwLjk0IC0yLjY1LDMuODUgLTE4LjA3LDIuMzkgLTE5LjE0LC0wLjYxIC0zLjMyLDMuOSAtMTMuNjEsMy45IC0xNi45MywwIEMgMzkuOCwzNC4yMSAyNC4zOSwzNS42NyAyMS43NCwzMS44MyAxOS4zNiwzNC4wNiA5Ljk0LDM1LjQxIDYuMDMsMzAuODkgNi44LDMzLjcxIDIuMTUsMzQuNDQgMCwzNC45OSBaIi8+JiN4YTsmI3hhOzxwYXRoIGlkPSJwYXRoNzkzMjEiIGlua3NjYXBlOmNvbm5lY3Rvci1jdXJ2YXR1cmU9IjAiIHN0eWxlPSJmaWxsOiNiZmRiZTAiIGQ9Im0gNDMuMTcsNTQuNjcgYyAtNS4yNiwtMi40OSAtOC4xNCwtNS44OCAtOS43NSwtOS41OCAtMS45NSwwLjU1IC00LjI5LDAuOTEgLTcuMDIsMS4wNiAtMS4wMywwLjA2IC0yLjExLDAuMDkgLTMuMjQsMC4wOSAtMS4zMSwwIC0yLjY5LC0wLjA0IC00LjEzLC0wLjEyIDQuODIsNC44MiAxMC43NSw4LjUzIDIxLjcyLDguNTkgMC44MSwwLjAxIDEuNjIsLTAuMDEgMi40MiwtMC4wNCB6Ii8+JiN4YTsmI3hhOzxwYXRoIGlkPSJwYXRoNzkzMjkiIGlua3NjYXBlOmNvbm5lY3Rvci1jdXJ2YXR1cmU9IjAiIHN0eWxlPSJmaWxsOiNkNGVkZjEiIGQ9Im0gMzUuMzcsNDguNTEgYyAtMC43MiwtMC45OSAtMS40MywtMi4yMyAtMS45NCwtMy40MiAtMS45NiwwLjU2IC00LjMsMC45MiAtNy4wMywxLjA3IDEuODcsMS4wMiA0LjU1LDEuOTYgOC45NywyLjM1IHoiLz4mI3hhOzwvc3ZnPg==;" vertex="1" parent="1">
          <mxGeometry x="840.38" y="673.5" width="55.46" height="46.5" as="geometry" />
        </mxCell>
        <mxCell id="BwXOe6zrHSaQDzwSpbx--118" value="" style="shape=image;verticalLabelPosition=bottom;labelBackgroundColor=#ffffff;verticalAlign=top;aspect=fixed;imageAspect=0;image=data:image/svg+xml,PHN2ZyB4bWxuczpkYz0iaHR0cDovL3B1cmwub3JnL2RjL2VsZW1lbnRzLzEuMS8iIHhtbG5zOmNjPSJodHRwOi8vY3JlYXRpdmVjb21tb25zLm9yZy9ucyMiIHhtbG5zOnJkZj0iaHR0cDovL3d3dy53My5vcmcvMTk5OS8wMi8yMi1yZGYtc3ludGF4LW5zIyIgeG1sbnM6c3ZnPSJodHRwOi8vd3d3LnczLm9yZy8yMDAwL3N2ZyIgeG1sbnM9Imh0dHA6Ly93d3cudzMub3JnLzIwMDAvc3ZnIiB4bWxuczpzb2RpcG9kaT0iaHR0cDovL3NvZGlwb2RpLnNvdXJjZWZvcmdlLm5ldC9EVEQvc29kaXBvZGktMC5kdGQiIHhtbG5zOmlua3NjYXBlPSJodHRwOi8vd3d3Lmlua3NjYXBlLm9yZy9uYW1lc3BhY2VzL2lua3NjYXBlIiB2ZXJzaW9uPSIxLjEiIGlkPSJzdmc3OTMzNSIgaW5rc2NhcGU6dmVyc2lvbj0iMC45Mi4zICgyNDA1NTQ2LCAyMDE4LTAzLTExKSIgc29kaXBvZGk6ZG9jbmFtZT0iZG9ja2VyLnN2ZyIgeD0iMHB4IiB5PSIwcHgiIHZpZXdCb3g9IjAgMCA5OS4yMiA4My4yMzk4NCIgeG1sOnNwYWNlPSJwcmVzZXJ2ZSIgd2lkdGg9Ijk5LjIyMDAwMSIgaGVpZ2h0PSI4My4yMzk4MzgiPjxtZXRhZGF0YSBpZD0ibWV0YWRhdGExMTIxIj48cmRmOlJERj48Y2M6V29yayByZGY6YWJvdXQ9IiI+PGRjOmZvcm1hdD5pbWFnZS9zdmcreG1sPC9kYzpmb3JtYXQ+PGRjOnR5cGUgcmRmOnJlc291cmNlPSJodHRwOi8vcHVybC5vcmcvZGMvZGNtaXR5cGUvU3RpbGxJbWFnZSIvPjxkYzp0aXRsZS8+PC9jYzpXb3JrPjwvcmRmOlJERj48L21ldGFkYXRhPjxkZWZzIGlkPSJkZWZzMTExOSI+JiN4YTsJJiN4YTsmI3hhOwkmI3hhOyYjeGE7CSYjeGE7CSYjeGE7CSYjeGE7JiN4YTsJJiN4YTsJJiN4YTsJJiN4YTsmI3hhOwkmI3hhOwkmI3hhOwkmI3hhOyYjeGE7CSYjeGE7CSYjeGE7CSYjeGE7JiN4YTsJJiN4YTsmI3hhOwkmI3hhOwkmI3hhOwkmI3hhOyYjeGE7CSYjeGE7CSYjeGE7CSYjeGE7JiN4YTsJJiN4YTsJJiN4YTsJJiN4YTsmI3hhOwkmI3hhOwkmI3hhOwkmI3hhOyYjeGE7CSYjeGE7CSYjeGE7CSYjeGE7JiN4YTsJJiN4YTsJJiN4YTsJJiN4YTsmI3hhOwkmI3hhOwkmI3hhOwkmI3hhOyYjeGE7CSYjeGE7CSYjeGE7CSYjeGE7JiN4YTsJJiN4YTsJJiN4YTsJJiN4YTsmI3hhOwkmI3hhOyYjeGE7CSYjeGE7JiN4YTsJJiN4YTsmI3hhOwkmI3hhOyYjeGE7CSYjeGE7JiN4YTsJCSYjeGE7CSYjeGE7CQkmI3hhOwkmI3hhOwkJJiN4YTsJJiN4YTsJCSYjeGE7CSYjeGE7CQkmI3hhOwkmI3hhOwkJJiN4YTsJJiN4YTsJCSYjeGE7CSYjeGE7CQkmI3hhOwkmI3hhOwkJJiN4YTsJJiN4YTsJCSYjeGE7CSYjeGE7CQkmI3hhOwkmI3hhOwkJJiN4YTsJJiN4YTsJCSYjeGE7CSYjeGE7CQkmI3hhOwkmI3hhOwkJJiN4YTsJJiN4YTsJCSYjeGE7CSYjeGE7CQkmI3hhOwkmI3hhOwkJJiN4YTsJJiN4YTsJCSYjeGE7CSYjeGE7CQkmI3hhOwkmI3hhOwkJCSYjeGE7CQkmI3hhOwkJCSYjeGE7CQkmI3hhOwkJCSYjeGE7CQkmI3hhOwkJCSYjeGE7CQk8L2RlZnM+JiN4YTs8ZmlsdGVyIGlkPSJmaWx0ZXJfMiI+JiN4YTsJPGZlR2F1c3NpYW5CbHVyIGlkPSJmZUdhdXNzaWFuQmx1cjc5MTUwIiBzdGREZXZpYXRpb249IjIiLz4mI3hhOzwvZmlsdGVyPiYjeGE7PHNvZGlwb2RpOm5hbWVkdmlldyBib3JkZXJjb2xvcj0iIzY2NjY2NiIgYm9yZGVyb3BhY2l0eT0iMSIgZml0LW1hcmdpbi1ib3R0b209IjAiIGZpdC1tYXJnaW4tbGVmdD0iMCIgZml0LW1hcmdpbi1yaWdodD0iMCIgZml0LW1hcmdpbi10b3A9IjAiIGdyaWR0b2xlcmFuY2U9IjEwIiBndWlkZXRvbGVyYW5jZT0iMTAiIGlkPSJuYW1lZHZpZXc3OTMzNyIgaW5rc2NhcGU6Y3VycmVudC1sYXllcj0ic3ZnNzkzMzUiIGlua3NjYXBlOmN4PSItMjQuMjM0MzIxIiBpbmtzY2FwZTpjeT0iNTUuNzcxNTY5IiBpbmtzY2FwZTpwYWdlb3BhY2l0eT0iMCIgaW5rc2NhcGU6cGFnZXNoYWRvdz0iMiIgaW5rc2NhcGU6d2luZG93LWhlaWdodD0iMTAxNyIgaW5rc2NhcGU6d2luZG93LW1heGltaXplZD0iMSIgaW5rc2NhcGU6d2luZG93LXdpZHRoPSIxOTIwIiBpbmtzY2FwZTp3aW5kb3cteD0iLTgiIGlua3NjYXBlOndpbmRvdy15PSItOCIgaW5rc2NhcGU6em9vbT0iMy4yOTk1NDQ5IiBvYmplY3R0b2xlcmFuY2U9IjEwIiBwYWdlY29sb3I9IiNmZmZmZmYiIHNob3dncmlkPSJmYWxzZSI+JiN4YTsJPC9zb2RpcG9kaTpuYW1lZHZpZXc+JiN4YTsmI3hhOzxwYXRoIGlkPSJwYXRoNzkxNjMiIGlua3NjYXBlOmNvbm5lY3Rvci1jdXJ2YXR1cmU9IjAiIHN0eWxlPSJmaWxsOiMzZjU3NjUiIGQ9Im0gNzMuNDYsNzggYyAyLjIzLC0xLjkxIDQuNDYsLTMuODMgNi42OSwtNS43NSAwLjc2LC0wLjY2IDEuNTksLTEuMzQgMi4zNSwtMi4wMyAtMC42MSwtMC43NiAtMS42MiwtMS4zMSAtMi40OCwtMS42NCAtMS43MywtMC42NiAtMy40NCwtMC40NCAtNS4wMywwLjQ4IC0yLjA5LDEuMiAtMi45NywzLjEyIC0yLjg5LDUuNSAwLjAzLDAuOTQgMC4yOCwxLjg0IDAuNzgsMi42NCAwLjE3LDAuMjggMC4zNywwLjU1IDAuNTgsMC44IHogbSAyLjU4LDEuODEgYyAxLjEsMC4zOCAyLjM0LDAuMzMgMy40NywwLjE0IDAuNTcsLTAuMjUgMi4wNCwtMC44OSAyLjU4LC0wLjggbCAwLjA4LDAuMDIgMC4wOCwwLjA0IGMgMC4zMywwLjE2IDAuNjQsMC4zOCAwLjgxLDAuNzIgMC40LDAuNzkgMC4yMSwxLjU3IC0wLjU3LDIuMDIgbCAtMC4yNSwwLjE1IGMgLTIuODUsMS42NSAtNS44OSwxLjQyIC04LjczLC0wLjEyIC0xLjM2LC0wLjczIC0yLjQsLTEuODIgLTMuMTcsLTMuMTYgbCAtMC4xOCwtMC4zMSBjIC0xLjgzLC0zLjE3IC0xLjU4LC02LjUgMC40OCwtOS41MiAwLjcyLC0xLjA0IDEuNjUsLTEuODUgMi43NCwtMi40OCBsIDAuNDEsLTAuMjMgYyAyLjY5LC0xLjU1IDUuNTcsLTEuNDUgOC4zMywtMC4wOSAxLjQ4LDAuNzMgMi42OCwxLjgzIDMuNTEsMy4yNiBsIDAuMTUsMC4yNiBjIDAuNiwxLjA0IC0wLjE4LDEuOTUgLTAuOTgsMi41NyAtMC45NCwwLjcyIC0xLjg4LDEuNTkgLTIuNzgsMi4zNiAtMS45OSwxLjcyIC0zLjk4LDMuNDUgLTUuOTgsNS4xNyB6IE0gOTcuNDEsNjUuMzkgaCAwLjMgYyAwLjksMCAxLjUxLDAuNjEgMS41MSwxLjUgMCwxLjI1IC0xLjIsMS41NyAtMi4yMiwxLjU3IC0xLjM2LDAgLTIuNjQsMC44MSAtMy41NywxLjczIC0xLjE3LDEuMTUgLTEuNjcsMi42MSAtMS42Nyw0LjIyIHYgNy4yOCBjIDAsMC44MyAtMC41MiwxLjUxIC0xLjM5LDEuNTEgaCAtMC4yNCBjIC0wLjg2LDAgLTEuMzgsLTAuNjggLTEuMzgsLTEuNTEgdiAtNy43IGMgMCwtMi45NSAxLjQ0LC01LjM2IDMuODQsLTcuMDYgMS40MywtMS4wMSAzLjA3LC0xLjU0IDQuODIsLTEuNTQgeiBtIC0zNy40Nyw1LjE2IGMgMS4xNiwtMS4xNyAyLjM0LC0yLjMzIDMuNTIsLTMuNDggMC4zMywtMC4zMiAxLjU4LC0xLjY4IDIuMDgsLTEuNjggaCAwLjUzIGwgMC4wNiwwLjAxIGMgMC42OSwwLjE0IDEuMiwwLjU4IDEuMiwxLjMxIHYgMC4zIGMgMCwwLjUgLTAuNTksMS4wOSAtMC45MSwxLjQzIC0wLjY5LDAuNzQgLTEuNDIsMS40NCAtMi4xMywyLjE2IGwgLTMuNjMsMy42OSBjIDEuNTcsMS41NiAzLjEzLDMuMTMgNC42OCw0LjcxIDAuNDMsMC40NCAwLjg2LDAuODggMS4yOCwxLjMyIDAuMTUsMC4xNiAwLjM3LDAuMzUgMC41LDAuNTcgMC4xMywwLjIxIDAuMjEsMC40NCAwLjIxLDAuNjggdiAwLjMxIGwgLTAuMDEsMC4wNyBjIC0wLjE3LDAuNjkgLTAuNjEsMS4yNCAtMS4zNywxLjI0IGggLTAuMjQgYyAtMC41LDAgLTEuMDYsLTAuNTYgLTEuNCwtMC44OCAtMC43LC0wLjY2IC0xLjM4LC0xLjM2IC0yLjA3LC0yLjAzIGwgLTIuMzEsLTIuMjcgdiAzLjYyIGMgMCwwLjg0IC0wLjUyLDEuNTEgLTEuMzgsMS41MSBoIC0wLjI0IGMgLTAuODYsMCAtMS4zOCwtMC42NyAtMS4zOCwtMS41MSBWIDYxLjIyIGMgMCwtMC44MyAwLjUyLC0xLjUgMS4zOCwtMS41IGggMC4yNCBjIDAuODYsMCAxLjM4LDAuNjcgMS4zOCwxLjUgdiA5LjMzIHogbSAtOS43NSwtMi4wMyBjIC0wLjQ2LC0wLjIxIC0xLjMxLC0wLjI5IC0xLjgsLTAuMyAtMi41MSwtMC4xIC00LjMzLDEuMzIgLTUuNCwzLjUzIC0wLjM2LDAuNzcgLTAuNTMsMS41OCAtMC41MywyLjQyIDAsMi41OCAxLjM1LDQuMzggMy42NSw1LjQ4IDAuODQsMC40IDEuOTIsMC40OCAyLjg0LDAuNDggMC44MSwwIDEuOTUsLTAuNSAyLjY2LC0wLjg0IGwgMC4xMywtMC4wNiBoIDAuNTYgbCAwLjA2LDAuMDIgYyAwLjY4LDAuMTQgMS4yLDAuNTcgMS4yLDEuMzEgdiAwLjMgYyAwLDEuODMgLTMuMzUsMi4yNSAtNC42MywyLjM0IC00LjUsMC4zMSAtNy44NywtMi4xNyAtOS4xNSwtNi40NiAtMC4yMywtMC43NSAtMC4zMywtMS40OSAtMC4zMywtMi4yNyB2IC0wLjYgYyAwLC0zLjI2IDEuNjIsLTUuODQgNC40MiwtNy41IDEuMywtMC43NyAyLjczLC0xLjE2IDQuMjUsLTEuMTYgaCAwLjU5IGMgMS42LDAgMy4wOCwwLjQ1IDQuNCwxLjM2IGwgMC4xMSwwLjA3IDAuMDcsMC4xMiBjIDAuMTQsMC4yMyAwLjI3LDAuNTEgMC4yNywwLjc5IHYgMC4zIGMgMCwwLjc2IC0wLjU4LDEuMTggLTEuMjcsMS4zMSBsIC0wLjA2LDAuMDEgaCAtMC4xOCBjIC0wLjQ1LDAgLTEuNDYsLTAuNDYgLTEuODYsLTAuNjUgeiBtIC0yNy40Miw1LjcxIGMgMCwyLjI5IDEuMTIsMy45NyAzLjA1LDUuMTUgMC45MSwwLjU2IDEuOSwwLjgxIDIuOTYsMC44MSAyLjI2LDAgMy45MywtMS4xNSA1LjA5LC0zLjA1IDAuNTYsLTAuOTEgMC44MSwtMS45MSAwLjgxLC0yLjk3IDAsLTIuMTIgLTEuMDMsLTMuNzUgLTIuNzgsLTQuOTIgLTAuOTYsLTAuNjUgLTIuMDIsLTAuOTcgLTMuMTgsLTAuOTcgLTIuNTIsMCAtNC4zMywxLjI3IC01LjQyLDMuNTMgLTAuMzcsMC43NiAtMC41MywxLjU4IC0wLjUzLDIuNDIgeiBtIDUuNjUsLTguOTYgaCAwLjQyIGMgMy40OSwwIDYuMTQsMS42OSA3LjgxLDQuNzMgMC42OCwxLjIyIDEuMDMsMi41NCAxLjAzLDMuOTQgdiAwLjU5IGMgMCwzLjI2IC0xLjYsNS44NiAtNC40MSw3LjUxIC0xLjMsMC43NiAtMi43NCwxLjE1IC00LjI1LDEuMTUgaCAtMC42IGMgLTMuMjYsMCAtNS44NSwtMS42MSAtNy41LC00LjQxIC0wLjc3LC0xLjMgLTEuMTYsLTIuNzQgLTEuMTYsLTQuMjUgdiAtMC41OSBjIDAsLTMuMjcgMS42MiwtNS44NSA0LjQxLC03LjUxIDEuMzEsLTAuNzcgMi43NCwtMS4xNiA0LjI1LC0xLjE2IHogTSAzLjA4LDc0LjIzIGMgMCwyLjM2IDEuMTQsNC4xMyAzLjIsNS4yNiAwLjg0LDAuNDUgMS43NCwwLjcgMi42OSwwLjcgMi4zMSwwIDQuMDMsLTEuMDkgNS4yMSwtMy4wNSAwLjU1LC0wLjkxIDAuODEsLTEuOTEgMC44MSwtMi45NyAwLC0yLjA0IC0wLjk3LC0zLjYzIC0yLjYyLC00LjgyIC0wLjk5LC0wLjcxIC0yLjEyLC0xLjA3IC0zLjM0LC0xLjA3IC0yLjUyLDAgLTQuMzMsMS4yNyAtNS40MiwzLjUzIC0wLjM3LDAuNzYgLTAuNTMsMS41OCAtMC41MywyLjQyIHogbSAxMS45MSwtNi43MiB2IC02LjM1IGMgMCwtMC44MyAwLjUyLC0xLjUgMS4zOCwtMS41IGggMC4yNCBjIDAuODcsMCAxLjM4LDAuNjcgMS4zOCwxLjUgdiAxMy4zNyBjIDAsMy4yNiAtMS42MSw1Ljg1IC00LjQxLDcuNTEgLTEuMywwLjc2IC0yLjc0LDEuMTYgLTQuMjUsMS4xNiBIIDguNzMgQyA1LjQ3LDgzLjIgMi44OCw4MS41OCAxLjIzLDc4Ljc4IDAuNDYsNzcuNDggMC4wNyw3Ni4wNCAwLjA3LDc0LjUzIHYgLTAuNTkgYyAwLC0zLjI2IDEuNjEsLTUuODYgNC40MSwtNy41MSAxLjMxLC0wLjc3IDIuNzQsLTEuMTYgNC4yNSwtMS4xNiBoIDAuNiBjIDIuMjEsMCA0LjA4LDAuODUgNS42NiwyLjI0IHoiLz4mI3hhOyYjeGE7PHBhdGggaWQ9InBhdGg3OTE3MSIgaW5rc2NhcGU6Y29ubmVjdG9yLWN1cnZhdHVyZT0iMCIgc3R5bGU9ImZpbGw6IzM5NGQ1NCIgZD0ibSA1Ny4yMywxNy43NSBoIDguODcgdiA5LjA3IGggNC40OSBjIDIuMDcsMCA0LjIsLTAuMzcgNi4xNiwtMS4wNCAwLjk2LC0wLjMyIDIuMDUsLTAuNzggMywtMS4zNSAtMS4yNiwtMS42NCAtMS44OSwtMy43IC0yLjA4LC01Ljc0IC0wLjI2LC0yLjc2IDAuMywtNi4zNyAyLjE3LC04LjUzIGwgMC45NCwtMS4wOCAxLjExLDAuODkgYyAyLjgsMi4yNSA1LjE1LDUuMzkgNS41Niw4Ljk3IDMuMzcsLTAuOTkgNy4zMywtMC43NiAxMC4zLDAuOTYgbCAxLjIyLDAuNyAtMC42NCwxLjI1IEMgOTUuODEsMjYuNzYgOTAuNTYsMjguMjcgODUuNDMsMjggNzcuNzUsNDcuMTQgNjEuMDIsNTYuMiA0MC43NSw1Ni4yIDMwLjI3LDU2LjIgMjAuNjYsNTIuMjggMTUuMTgsNDIuOTggTCAxNS4wOSw0Mi44MyAxNC4zLDQxLjIxIEMgMTIuNDUsMzcuMTIgMTEuODMsMzIuNjQgMTIuMjUsMjguMTYgbCAwLjEyLC0xLjM0IGggNy41OSB2IC05LjA3IGggOC44NyBWIDguODcgSCA0Ni41OCBWIDAgaCAxMC42NCB6Ii8+JiN4YTs8cGF0aCBkPSJtIDg1Ljk4MDMsMjEuMTAwMzMxIGMgMC41OSwtNC42MiAtMi44NywtOC4yNSAtNS4wMiwtOS45OCAtMi40NywyLjg2IC0yLjg1LDEwLjM1IDEuMDMsMTMuNTEgLTIuMTcsMS45MiAtNi43MywzLjY2IC0xMS40LDMuNjYgaCAtNTYuODcgYyAtMC40NSw0Ljg4IDAuNDEsOS4zNyAyLjM2LDEzLjIyIGwgMC42NSwxLjE4IGMgMC40MSwwLjY5IDAuODYsMS4zNiAxLjM0LDIuMDEgdiAwIGMgMi4zNCwwLjE1IDQuNDksMC4yIDYuNDYsMC4xNiAwLDAgMCwwIDAuMDEsMCAzLjg3LC0wLjA5IDcuMDMsLTAuNTQgOS40MywtMS4zNyAwLjM2LC0wLjEzIDAuNzUsMC4wNiAwLjg3LDAuNDIgMC4xMiwwLjM1IC0wLjA3LDAuNzQgLTAuNDIsMC44NyAtMC4zMiwwLjExIC0wLjY1LDAuMjEgLTEsMC4zMSB2IDAgYyAtMS44OSwwLjU0IC0zLjkxLDAuOSAtNi41MiwxLjA2IDAuMTYsMCAtMC4xNiwwLjAyIC0wLjE2LDAuMDIgLTAuMDksMC4wMSAtMC4yLDAuMDIgLTAuMjksMC4wMyAtMS4wMywwLjA1IC0yLjE0LDAuMDcgLTMuMjcsMC4wNyAtMS4yNCwwIC0yLjQ2LC0wLjAzIC0zLjgzLC0wLjEgbCAtMC4wMywwLjAzIGMgNC43Myw1LjMyIDEyLjE0LDguNTIgMjEuNDMsOC41MiAxOS42NSwwIDM2LjMyLC04LjcyIDQzLjcsLTI4LjI4IDUuMjQsMC41NCAxMC4yNywtMC43OSAxMi41NiwtNS4yNiAtMy42NCwtMi4xMSAtOC4zMywtMS40NCAtMTEuMDMsLTAuMDggeiIgc3R5bGU9ImZpbGw6IzAwYWFkYSIgaW5rc2NhcGU6Y29ubmVjdG9yLWN1cnZhdHVyZT0iMCIgaWQ9InBhdGg3OTE4MSIvPiYjeGE7PHBhdGggZD0ibSA4NS45Nzk3NiwyMS4xMDI3MjEgYyAwLjU5LC00LjYzIC0yLjg3LC04LjI2IC01LjAxLC05Ljk4IC0yLjQ4LDIuODYgLTIuODYsMTAuMzUgMS4wMiwxMy41MSAtMi4xNywxLjkyIC02LjczLDMuNjYgLTExLjQsMy42NiBoIC01My41IGMgLTAuMjMsNy40NyAyLjU0LDEzLjE0IDcuNDQsMTYuNTcgMCwwIDAsMCAwLjAxLDAgMy44NywtMC4wOSA3LjAzLC0wLjU1IDkuNDMsLTEuMzggMC4zNiwtMC4xMiAwLjc1LDAuMDcgMC44NywwLjQzIDAuMTIsMC4zNSAtMC4wNywwLjc0IC0wLjQyLDAuODYgLTAuMzIsMC4xMiAtMC42NSwwLjIyIC0xLDAuMzIgdiAwIGMgLTEuODksMC41MyAtNC4wOCwwLjk0IC02LjY5LDEuMTEgMCwwIC0wLjA3LC0wLjA3IC0wLjA3LC0wLjA2IDYuNjksMy40MyAxNi4zOSwzLjQxIDI3LjUxLC0wLjg2IDEyLjQ3LC00Ljc5IDI0LjA3LC0xMy45MSAzMi4xNiwtMjQuMzUgLTAuMTIsMC4wNSAtMC4yNCwwLjExIC0wLjM1LDAuMTcgeiIgc3R5bGU9ImZpbGw6IzI0YjhlYiIgaW5rc2NhcGU6Y29ubmVjdG9yLWN1cnZhdHVyZT0iMCIgaWQ9InBhdGg3OTE4OSIvPiYjeGE7PHBhdGggZD0ibSAxMy44MzEyMywzNC4yMjAzMzEgYyAwLjM1LDIuNjEgMS4xMiw1LjA2IDIuMjUsNy4yOCBsIDAuNjUsMS4xOSBjIDAuNDEsMC42OSAwLjg1LDEuMzYgMS4zNCwyLjAxIDIuMzQsMC4xNSA0LjQ5LDAuMiA2LjQ2LDAuMTYgMy44OCwtMC4wOSA3LjA0LC0wLjU0IDkuNDQsLTEuMzggMC4zNiwtMC4xMiAwLjc0LDAuMDcgMC44NywwLjQzIDAuMTIsMC4zNSAtMC4wNywwLjc0IC0wLjQyLDAuODcgLTAuMzIsMC4xMSAtMC42NiwwLjIxIC0xLDAuMzEgdiAwIGMgLTEuODksMC41NCAtNC4wNywwLjkyIC02LjY4LDEuMDggLTAuMDksMC4wMSAtMC4yNSwwLjAxIC0wLjM0LDAuMDIgLTEuMDIsMC4wNSAtMi4xMiwwLjA5IC0zLjI2LDAuMDkgLTEuMjQsMCAtMi41MSwtMC4wMiAtMy44NywtMC4wOSA0Ljc0LDUuMzIgMTIuMTksOC41MyAyMS40OCw4LjUzIDE2LjgyLDAgMzEuNDYsLTYuMzkgMzkuOTYsLTIwLjUgeiIgc3R5bGU9ImZpbGw6IzAwOGJiOCIgaW5rc2NhcGU6Y29ubmVjdG9yLWN1cnZhdHVyZT0iMCIgaWQ9InBhdGg3OTE5NyIvPiYjeGE7PHBhdGggZD0ibSAxNy42MDM4NiwzNC4yMTgzNDEgYyAxLjAxLDQuNTkgMy40Miw4LjE5IDYuOTMsMTAuNjQgMy44OCwtMC4wOCA3LjA0LC0wLjU0IDkuNDQsLTEuMzcgMC4zNSwtMC4xMyAwLjc0LDAuMDYgMC44NywwLjQyIDAuMTIsMC4zNiAtMC4wNywwLjc0IC0wLjQzLDAuODcgLTAuMzIsMC4xMSAtMC42NSwwLjIxIC0wLjk5LDAuMzEgdiAwIGMgLTEuODksMC41NCAtNC4xMiwwLjkyIC02LjczLDEuMDkgNi42OSwzLjQzIDE2LjM2LDMuMzggMjcuNDcsLTAuODkgNi43MywtMi41OSAxMy4yLC02LjQzIDE5LjAxLC0xMS4wNyB6IiBzdHlsZT0iZmlsbDojMDM5YmM2IiBpbmtzY2FwZTpjb25uZWN0b3ItY3VydmF0dXJlPSIwIiBpZD0icGF0aDc5MjA1Ii8+JiN4YTsmI3hhOzxwYXRoIGlkPSJwYXRoNzkyMTQiIGlua3NjYXBlOmNvbm5lY3Rvci1jdXJ2YXR1cmU9IjAiIHN0eWxlPSJmaWxsOiMzOTRkNTQiIGQ9Im0gMjMuMTYsNDYuMjUgYyAxLjEzLDAgMi4yMSwtMC4wMyAzLjI0LC0wLjA5IDAuMDksLTAuMDEgMC4xNywtMC4wMSAwLjI2LC0wLjAyIDAuMDEsMCAwLjAxLDAgMC4wMSwwIDIuNjEsLTAuMTYgNC44NywtMC41MSA2Ljc1LC0xLjA1IHYgMCBjIDAuMzUsLTAuMDkgMC42OCwtMC4yIDEsLTAuMzEgMC4zNSwtMC4xMiAwLjU0LC0wLjUxIDAuNDIsLTAuODcgLTAuMTIsLTAuMzUgLTAuNTEsLTAuNTQgLTAuODcsLTAuNDIgLTIuNCwwLjgzIC01LjU2LDEuMjkgLTkuNDMsMS4zNyB2IDAgYyAtMS45OCwwLjA1IC00LjEzLDAgLTYuNDcsLTAuMTUgdiAwIGMgLTAuMTIsLTAuMDEgLTAuMjQsLTAuMDIgLTAuMzYsLTAuMDMgLTAuMzcsLTAuMDIgLTAuNywwLjI2IC0wLjcyLDAuNjQgLTAuMDMsMC4zNyAwLjI1LDAuNyAwLjYzLDAuNzMgMC40OCwwLjAzIDAuOTUsMC4wNiAxLjQxLDAuMDggMC4wNywwIDAuMTQsMC4wMSAwLjIyLDAuMDEgMS4zNiwwLjA3IDIuNjcsMC4xMSAzLjkxLDAuMTEgeiIvPiYjeGE7PHBhdGggZD0ibSAyNy44ODI2LDE5Ljg2OTIzMSBoIDAuNjEgdiA2LjQgaCAtMC42MSB6IG0gLTEuMTYsMCBoIDAuNjMgdiA2LjQgaCAtMC42MyB6IG0gLTEuMTcsMCBoIDAuNjMgdiA2LjQgaCAtMC42MyB6IG0gLTEuMTYsMCBoIDAuNjMgdiA2LjQgaCAtMC42MyB6IG0gLTEuMTcsMCBoIDAuNjMgdiA2LjQgaCAtMC42MyB6IG0gLTEuMTQsMCBoIDAuNjEgdiA2LjQgaCAtMC42MSB6IG0gLTAuNjQsLTAuNjQgaCA3LjY5IHYgNy42OSBoIC03LjY5IHoiIHN0eWxlPSJmaWxsOiMwMGFjZDMiIGlua3NjYXBlOmNvbm5lY3Rvci1jdXJ2YXR1cmU9IjAiIGlkPSJwYXRoNzkyMjQiLz4mI3hhOzxwYXRoIGQ9Im0gMzYuNzU0NSwxMC45OTYwNjEgaCAwLjYxIHYgNi40MSBoIC0wLjYxIHogbSAtMS4xNiwwIGggMC42MyB2IDYuNDEgaCAtMC42MyB6IG0gLTEuMTcsMCBoIDAuNjMgdiA2LjQxIGggLTAuNjMgeiBtIC0xLjE2LDAgaCAwLjYzIHYgNi40MSBoIC0wLjYzIHogbSAtMS4xNywwIGggMC42MyB2IDYuNDEgaCAtMC42MyB6IG0gLTEuMTQsMCBoIDAuNjEgdiA2LjQxIGggLTAuNjEgeiBtIC0wLjY0LC0wLjY0IGggNy42OSB2IDcuNjkgaCAtNy42OSB6IiBzdHlsZT0iZmlsbDojMDBhY2QzIiBpbmtzY2FwZTpjb25uZWN0b3ItY3VydmF0dXJlPSIwIiBpZD0icGF0aDc5MjMyIi8+JiN4YTs8cGF0aCBkPSJtIDM2Ljc1NDUsMTkuODY5MjMxIGggMC42MSB2IDYuNCBoIC0wLjYxIHogbSAtMS4xNiwwIGggMC42MyB2IDYuNCBoIC0wLjYzIHogbSAtMS4xNywwIGggMC42MyB2IDYuNCBoIC0wLjYzIHogbSAtMS4xNiwwIGggMC42MyB2IDYuNCBoIC0wLjYzIHogbSAtMS4xNywwIGggMC42MyB2IDYuNCBoIC0wLjYzIHogbSAtMS4xNCwwIGggMC42MSB2IDYuNCBoIC0wLjYxIHogbSAtMC42NCwtMC42NCBoIDcuNjkgdiA3LjY5IGggLTcuNjkgeiIgc3R5bGU9ImZpbGw6IzIwYzJlZiIgaW5rc2NhcGU6Y29ubmVjdG9yLWN1cnZhdHVyZT0iMCIgaWQ9InBhdGg3OTI0MCIvPiYjeGE7PHBhdGggZD0ibSA0NS42Mjg5LDE5Ljg2OTIzMSBoIDAuNjEgdiA2LjQgaCAtMC42MSB6IG0gLTEuMTYsMCBoIDAuNjMgdiA2LjQgaCAtMC42MyB6IG0gLTEuMTcsMCBoIDAuNjMgdiA2LjQgaCAtMC42MyB6IG0gLTEuMTYsMCBoIDAuNjMgdiA2LjQgaCAtMC42MyB6IG0gLTEuMTcsMCBoIDAuNjMgdiA2LjQgaCAtMC42MyB6IG0gLTEuMTQsMCBoIDAuNjEgdiA2LjQgaCAtMC42MSB6IG0gLTAuNjQsLTAuNjQgaCA3LjY5IHYgNy42OSBoIC03LjY5IHoiIHN0eWxlPSJmaWxsOiMwMGFjZDMiIGlua3NjYXBlOmNvbm5lY3Rvci1jdXJ2YXR1cmU9IjAiIGlkPSJwYXRoNzkyNDgiLz4mI3hhOzxwYXRoIGQ9Im0gNDUuNjI4OSwxMC45OTYwNjEgaCAwLjYxIHYgNi40MSBoIC0wLjYxIHogbSAtMS4xNiwwIGggMC42MyB2IDYuNDEgaCAtMC42MyB6IG0gLTEuMTcsMCBoIDAuNjMgdiA2LjQxIGggLTAuNjMgeiBtIC0xLjE2LDAgaCAwLjYzIHYgNi40MSBoIC0wLjYzIHogbSAtMS4xNywwIGggMC42MyB2IDYuNDEgaCAtMC42MyB6IG0gLTEuMTQsMCBoIDAuNjEgdiA2LjQxIGggLTAuNjEgeiBtIC0wLjY0LC0wLjY0IGggNy42OSB2IDcuNjkgaCAtNy42OSB6IiBzdHlsZT0iZmlsbDojMjBjMmVmIiBpbmtzY2FwZTpjb25uZWN0b3ItY3VydmF0dXJlPSIwIiBpZD0icGF0aDc5MjU2Ii8+JiN4YTs8cGF0aCBkPSJtIDU0LjUwMDgsMTkuODY5MjMxIGggMC42MSB2IDYuNCBoIC0wLjYxIHogbSAtMS4xNiwwIGggMC42MyB2IDYuNCBoIC0wLjYzIHogbSAtMS4xNywwIGggMC42MyB2IDYuNCBoIC0wLjYzIHogbSAtMS4xNiwwIGggMC42MyB2IDYuNCBoIC0wLjYzIHogbSAtMS4xNywwIGggMC42MyB2IDYuNCBoIC0wLjYzIHogbSAtMS4xNCwwIGggMC42MSB2IDYuNCBoIC0wLjYxIHogbSAtMC42NCwtMC42NCBoIDcuNjkgdiA3LjY5IGggLTcuNjkgeiIgc3R5bGU9ImZpbGw6IzIwYzJlZiIgaW5rc2NhcGU6Y29ubmVjdG9yLWN1cnZhdHVyZT0iMCIgaWQ9InBhdGg3OTI2NCIvPiYjeGE7PHBhdGggZD0ibSA1NC41MDA4LDEwLjk5NjA2MSBoIDAuNjEgdiA2LjQxIGggLTAuNjEgeiBtIC0xLjE2LDAgaCAwLjYzIHYgNi40MSBoIC0wLjYzIHogbSAtMS4xNywwIGggMC42MyB2IDYuNDEgaCAtMC42MyB6IG0gLTEuMTYsMCBoIDAuNjMgdiA2LjQxIGggLTAuNjMgeiBtIC0xLjE3LDAgaCAwLjYzIHYgNi40MSBoIC0wLjYzIHogbSAtMS4xNCwwIGggMC42MSB2IDYuNDEgaCAtMC42MSB6IG0gLTAuNjQsLTAuNjQgaCA3LjY5IHYgNy42OSBoIC03LjY5IHoiIHN0eWxlPSJmaWxsOiMwMGFjZDMiIGlua3NjYXBlOmNvbm5lY3Rvci1jdXJ2YXR1cmU9IjAiIGlkPSJwYXRoNzkyNzIiLz4mI3hhOzxwYXRoIGQ9Im0gNTQuNTAwOCwyLjEyMjkzMSBoIDAuNjEgdiA2LjQxIGggLTAuNjEgeiBtIC0xLjE2LDAgaCAwLjYzIHYgNi40MSBoIC0wLjYzIHogbSAtMS4xNywwIGggMC42MyB2IDYuNDEgaCAtMC42MyB6IG0gLTEuMTYsMCBoIDAuNjMgdiA2LjQxIGggLTAuNjMgeiBtIC0xLjE3LDAgaCAwLjYzIHYgNi40MSBoIC0wLjYzIHogbSAtMS4xNCwwIGggMC42MSB2IDYuNDEgaCAtMC42MSB6IG0gLTAuNjQsLTAuNjQgaCA3LjY5IHYgNy42OSBoIC03LjY5IHoiIHN0eWxlPSJmaWxsOiMyMGMyZWYiIGlua3NjYXBlOmNvbm5lY3Rvci1jdXJ2YXR1cmU9IjAiIGlkPSJwYXRoNzkyODAiLz4mI3hhOzxwYXRoIGQ9Im0gNjMuMzc0LDE5Ljg2OTIzMSBoIDAuNjEgdiA2LjQgaCAtMC42MSB6IG0gLTEuMTYsMCBoIDAuNjMgdiA2LjQgaCAtMC42MyB6IG0gLTEuMTcsMCBoIDAuNjMgdiA2LjQgaCAtMC42MyB6IG0gLTEuMTYsMCBoIDAuNjMgdiA2LjQgaCAtMC42MyB6IG0gLTEuMTcsMCBoIDAuNjMgdiA2LjQgaCAtMC42MyB6IG0gLTEuMTQsMCBoIDAuNjEgdiA2LjQgaCAtMC42MSB6IG0gLTAuNjQsLTAuNjQgaCA3LjY5IHYgNy42OSBoIC03LjY5IHoiIHN0eWxlPSJmaWxsOiMwMGFjZDMiIGlua3NjYXBlOmNvbm5lY3Rvci1jdXJ2YXR1cmU9IjAiIGlkPSJwYXRoNzkyODgiLz4mI3hhOyYjeGE7PHBhdGggaWQ9InBhdGg3OTI5NyIgaW5rc2NhcGU6Y29ubmVjdG9yLWN1cnZhdHVyZT0iMCIgc3R5bGU9ImZpbGw6I2Q0ZWRmMSIgZD0ibSAzNy41MiwzOS4zOCBjIDEuMTcsMCAyLjEyLDAuOTUgMi4xMiwyLjEyIDAsMS4xOCAtMC45NSwyLjEzIC0yLjEyLDIuMTMgLTEuMTcsMCAtMi4xMiwtMC45NSAtMi4xMiwtMi4xMyAwLC0xLjE3IDAuOTUsLTIuMTIgMi4xMiwtMi4xMiB6Ii8+JiN4YTsmI3hhOzxwYXRoIGlkPSJwYXRoNzkzMDUiIGlua3NjYXBlOmNvbm5lY3Rvci1jdXJ2YXR1cmU9IjAiIHN0eWxlPSJmaWxsOiMzOTRkNTQiIGQ9Im0gMzcuNTIsMzkuOTkgYyAwLjE5LDAgMC4zOCwwLjA0IDAuNTUsMC4xIC0wLjE5LDAuMTEgLTAuMzEsMC4zMSAtMC4zMSwwLjU0IDAsMC4zNCAwLjI4LDAuNjIgMC42MiwwLjYyIDAuMjMsMCAwLjQ0LC0wLjEzIDAuNTQsLTAuMzMgMC4wOCwwLjE4IDAuMTIsMC4zOCAwLjEyLDAuNTkgMCwwLjg0IC0wLjY4LDEuNTIgLTEuNTIsMS41MiAtMC44NCwwIC0xLjUyLC0wLjY4IC0xLjUyLC0xLjUyIDAsLTAuODQgMC42OCwtMS41MiAxLjUyLC0xLjUyIHoiLz4mI3hhOyYjeGE7PHBhdGggaWQ9InBhdGg3OTMxMyIgaW5rc2NhcGU6Y29ubmVjdG9yLWN1cnZhdHVyZT0iMCIgc3R5bGU9ImZpbGw6IzM5NGQ1NCIgZD0ibSAwLDM0Ljk5IGggNDYuNDcgNS43NSA0Ni40NyBjIC0yLjE1LC0wLjU1IC02LjgsLTEuMjggLTYuMDMsLTQuMSAtMy45MSw0LjUyIC0xMy4zMywzLjE3IC0xNS43MSwwLjk0IC0yLjY1LDMuODUgLTE4LjA3LDIuMzkgLTE5LjE0LC0wLjYxIC0zLjMyLDMuOSAtMTMuNjEsMy45IC0xNi45MywwIEMgMzkuOCwzNC4yMSAyNC4zOSwzNS42NyAyMS43NCwzMS44MyAxOS4zNiwzNC4wNiA5Ljk0LDM1LjQxIDYuMDMsMzAuODkgNi44LDMzLjcxIDIuMTUsMzQuNDQgMCwzNC45OSBaIi8+JiN4YTsmI3hhOzxwYXRoIGlkPSJwYXRoNzkzMjEiIGlua3NjYXBlOmNvbm5lY3Rvci1jdXJ2YXR1cmU9IjAiIHN0eWxlPSJmaWxsOiNiZmRiZTAiIGQ9Im0gNDMuMTcsNTQuNjcgYyAtNS4yNiwtMi40OSAtOC4xNCwtNS44OCAtOS43NSwtOS41OCAtMS45NSwwLjU1IC00LjI5LDAuOTEgLTcuMDIsMS4wNiAtMS4wMywwLjA2IC0yLjExLDAuMDkgLTMuMjQsMC4wOSAtMS4zMSwwIC0yLjY5LC0wLjA0IC00LjEzLC0wLjEyIDQuODIsNC44MiAxMC43NSw4LjUzIDIxLjcyLDguNTkgMC44MSwwLjAxIDEuNjIsLTAuMDEgMi40MiwtMC4wNCB6Ii8+JiN4YTsmI3hhOzxwYXRoIGlkPSJwYXRoNzkzMjkiIGlua3NjYXBlOmNvbm5lY3Rvci1jdXJ2YXR1cmU9IjAiIHN0eWxlPSJmaWxsOiNkNGVkZjEiIGQ9Im0gMzUuMzcsNDguNTEgYyAtMC43MiwtMC45OSAtMS40MywtMi4yMyAtMS45NCwtMy40MiAtMS45NiwwLjU2IC00LjMsMC45MiAtNy4wMywxLjA3IDEuODcsMS4wMiA0LjU1LDEuOTYgOC45NywyLjM1IHoiLz4mI3hhOzwvc3ZnPg==;" vertex="1" parent="1">
          <mxGeometry x="962.27" y="673.5" width="55.46" height="46.5" as="geometry" />
        </mxCell>
        <mxCell id="BwXOe6zrHSaQDzwSpbx--119" style="edgeStyle=orthogonalEdgeStyle;rounded=0;orthogonalLoop=1;jettySize=auto;html=1;entryX=0;entryY=0.471;entryDx=0;entryDy=0;entryPerimeter=0;strokeColor=#FFFFFF;" edge="1" parent="1" source="BwXOe6zrHSaQDzwSpbx--94" target="BwXOe6zrHSaQDzwSpbx--21">
          <mxGeometry relative="1" as="geometry" />
        </mxCell>
        <mxCell id="BwXOe6zrHSaQDzwSpbx--120" value="" style="edgeStyle=orthogonalEdgeStyle;rounded=0;orthogonalLoop=1;jettySize=auto;html=1;entryX=0;entryY=0.471;entryDx=0;entryDy=0;entryPerimeter=0;strokeColor=#FFFFFF;" edge="1" parent="1" source="BwXOe6zrHSaQDzwSpbx--106" target="BwXOe6zrHSaQDzwSpbx--94">
          <mxGeometry relative="1" as="geometry">
            <mxPoint x="251" y="685" as="sourcePoint" />
            <mxPoint x="710" y="560" as="targetPoint" />
          </mxGeometry>
        </mxCell>
        <mxCell id="BwXOe6zrHSaQDzwSpbx--94" value="&lt;font color=&quot;#ffffff&quot;&gt;ssh&lt;br&gt;&lt;/font&gt;" style="text;strokeColor=none;align=center;fillColor=none;html=1;verticalAlign=middle;whiteSpace=wrap;rounded=0;" vertex="1" parent="1">
          <mxGeometry x="450" y="595.59" width="70" height="40" as="geometry" />
        </mxCell>
        <mxCell id="BwXOe6zrHSaQDzwSpbx--121" value="&lt;font color=&quot;#ffffff&quot;&gt;DVWA&lt;/font&gt;" style="text;strokeColor=none;align=center;fillColor=none;html=1;verticalAlign=middle;whiteSpace=wrap;rounded=0;" vertex="1" parent="1">
          <mxGeometry x="725" y="710.9100000000001" width="60" height="30" as="geometry" />
        </mxCell>
        <mxCell id="BwXOe6zrHSaQDzwSpbx--122" value="&lt;font color=&quot;#ffffff&quot;&gt;DVWA&lt;/font&gt;" style="text;strokeColor=none;align=center;fillColor=none;html=1;verticalAlign=middle;whiteSpace=wrap;rounded=0;" vertex="1" parent="1">
          <mxGeometry x="838.11" y="710.91" width="60" height="30" as="geometry" />
        </mxCell>
        <mxCell id="BwXOe6zrHSaQDzwSpbx--123" value="&lt;font color=&quot;#ffffff&quot;&gt;DVWA&lt;/font&gt;" style="text;strokeColor=none;align=center;fillColor=none;html=1;verticalAlign=middle;whiteSpace=wrap;rounded=0;" vertex="1" parent="1">
          <mxGeometry x="957.73" y="710.91" width="60" height="30" as="geometry" />
        </mxCell>
        <mxCell id="BwXOe6zrHSaQDzwSpbx--127" style="edgeStyle=orthogonalEdgeStyle;rounded=0;orthogonalLoop=1;jettySize=auto;html=1;exitX=1;exitY=0.5;exitDx=0;exitDy=0;entryX=0.941;entryY=0.495;entryDx=0;entryDy=0;entryPerimeter=0;strokeColor=#FFFFFF;" edge="1" parent="1" source="BwXOe6zrHSaQDzwSpbx--134" target="BwXOe6zrHSaQDzwSpbx--21">
          <mxGeometry relative="1" as="geometry" />
        </mxCell>
        <mxCell id="BwXOe6zrHSaQDzwSpbx--128" style="edgeStyle=orthogonalEdgeStyle;rounded=0;orthogonalLoop=1;jettySize=auto;html=1;exitX=1;exitY=0.75;exitDx=0;exitDy=0;entryX=0.959;entryY=0.619;entryDx=0;entryDy=0;entryPerimeter=0;strokeColor=#FFFFFF;" edge="1" parent="1" source="BwXOe6zrHSaQDzwSpbx--132" target="BwXOe6zrHSaQDzwSpbx--32">
          <mxGeometry relative="1" as="geometry" />
        </mxCell>
        <mxCell id="BwXOe6zrHSaQDzwSpbx--130" style="edgeStyle=orthogonalEdgeStyle;rounded=0;orthogonalLoop=1;jettySize=auto;html=1;exitX=1;exitY=0.25;exitDx=0;exitDy=0;entryX=0.911;entryY=0.714;entryDx=0;entryDy=0;entryPerimeter=0;strokeColor=#FFFFFF;" edge="1" parent="1" source="BwXOe6zrHSaQDzwSpbx--131" target="BwXOe6zrHSaQDzwSpbx--22">
          <mxGeometry relative="1" as="geometry" />
        </mxCell>
        <mxCell id="BwXOe6zrHSaQDzwSpbx--135" value="" style="edgeStyle=orthogonalEdgeStyle;rounded=0;orthogonalLoop=1;jettySize=auto;html=1;exitX=1;exitY=0.5;exitDx=0;exitDy=0;entryX=0.941;entryY=0.495;entryDx=0;entryDy=0;entryPerimeter=0;strokeColor=#FFFFFF;" edge="1" parent="1" source="BwXOe6zrHSaQDzwSpbx--121" target="BwXOe6zrHSaQDzwSpbx--134">
          <mxGeometry relative="1" as="geometry">
            <mxPoint x="785" y="726" as="sourcePoint" />
            <mxPoint x="787" y="562" as="targetPoint" />
          </mxGeometry>
        </mxCell>
        <mxCell id="BwXOe6zrHSaQDzwSpbx--134" value="&lt;font color=&quot;#ffffff&quot;&gt;Port 80&lt;/font&gt;" style="text;strokeColor=none;align=center;fillColor=none;html=1;verticalAlign=middle;whiteSpace=wrap;rounded=0;rotation=-90;" vertex="1" parent="1">
          <mxGeometry x="770" y="635.59" width="60" height="30" as="geometry" />
        </mxCell>
        <mxCell id="BwXOe6zrHSaQDzwSpbx--136" value="" style="edgeStyle=orthogonalEdgeStyle;rounded=0;orthogonalLoop=1;jettySize=auto;html=1;exitX=1;exitY=0.75;exitDx=0;exitDy=0;entryX=0.959;entryY=0.619;entryDx=0;entryDy=0;entryPerimeter=0;strokeColor=#FFFFFF;" edge="1" parent="1" source="BwXOe6zrHSaQDzwSpbx--122" target="BwXOe6zrHSaQDzwSpbx--132">
          <mxGeometry relative="1" as="geometry">
            <mxPoint x="898" y="733" as="sourcePoint" />
            <mxPoint x="908" y="569" as="targetPoint" />
          </mxGeometry>
        </mxCell>
        <mxCell id="BwXOe6zrHSaQDzwSpbx--132" value="&lt;font color=&quot;#ffffff&quot;&gt;Port 80&lt;/font&gt;" style="text;strokeColor=none;align=center;fillColor=none;html=1;verticalAlign=middle;whiteSpace=wrap;rounded=0;rotation=-90;" vertex="1" parent="1">
          <mxGeometry x="895.84" y="629.0899999999999" width="60" height="30" as="geometry" />
        </mxCell>
        <mxCell id="BwXOe6zrHSaQDzwSpbx--137" value="" style="edgeStyle=orthogonalEdgeStyle;rounded=0;orthogonalLoop=1;jettySize=auto;html=1;exitX=1;exitY=0.25;exitDx=0;exitDy=0;entryX=0.911;entryY=0.714;entryDx=0;entryDy=0;entryPerimeter=0;strokeColor=#FFFFFF;" edge="1" parent="1" source="BwXOe6zrHSaQDzwSpbx--123" target="BwXOe6zrHSaQDzwSpbx--131">
          <mxGeometry relative="1" as="geometry">
            <mxPoint x="1003" y="718" as="sourcePoint" />
            <mxPoint x="1020" y="576" as="targetPoint" />
          </mxGeometry>
        </mxCell>
        <mxCell id="BwXOe6zrHSaQDzwSpbx--131" value="&lt;font color=&quot;#ffffff&quot;&gt;Port 80&lt;/font&gt;" style="text;strokeColor=none;align=center;fillColor=none;html=1;verticalAlign=middle;whiteSpace=wrap;rounded=0;rotation=-90;" vertex="1" parent="1">
          <mxGeometry x="1003.02" y="650" width="60" height="30" as="geometry" />
        </mxCell>
        <mxCell id="BwXOe6zrHSaQDzwSpbx--138" value="&lt;font color=&quot;#ffffff&quot;&gt;PC&lt;/font&gt;" style="text;strokeColor=none;align=center;fillColor=none;html=1;verticalAlign=middle;whiteSpace=wrap;rounded=0;" vertex="1" parent="1">
          <mxGeometry x="40" y="595.59" width="60" height="30" as="geometry" />
        </mxCell>
        <mxCell id="SFFqVULRnlfiKm2uCUp_-1" value="&lt;font style=&quot;&quot; color=&quot;#ffffff&quot;&gt;Subnet 10.0.1.0/24&lt;br&gt;&lt;/font&gt;" style="text;strokeColor=none;align=center;fillColor=none;html=1;verticalAlign=middle;whiteSpace=wrap;rounded=0;" vertex="1" parent="1">
          <mxGeometry x="633" y="157" width="60" height="30" as="geometry" />
        </mxCell>
      </root>
    </mxGraphModel>
  </diagram>
</mxfile>
